%TF.GenerationSoftware,KiCad,Pcbnew,9.0.7*%
%TF.CreationDate,2026-03-05T15:15:48+08:00*%
%TF.ProjectId,HSDAC,48534441-432e-46b6-9963-61645f706362,rev?*%
%TF.SameCoordinates,Original*%
%TF.FileFunction,Legend,Top*%
%TF.FilePolarity,Positive*%
%FSLAX46Y46*%
G04 Gerber Fmt 4.6, Leading zero omitted, Abs format (unit mm)*
G04 Created by KiCad (PCBNEW 9.0.7) date 2026-03-05 15:15:48*
%MOMM*%
%LPD*%
G01*
G04 APERTURE LIST*
G04 Aperture macros list*
%AMRoundRect*
0 Rectangle with rounded corners*
0 $1 Rounding radius*
0 $2 $3 $4 $5 $6 $7 $8 $9 X,Y pos of 4 corners*
0 Add a 4 corners polygon primitive as box body*
4,1,4,$2,$3,$4,$5,$6,$7,$8,$9,$2,$3,0*
0 Add four circle primitives for the rounded corners*
1,1,$1+$1,$2,$3*
1,1,$1+$1,$4,$5*
1,1,$1+$1,$6,$7*
1,1,$1+$1,$8,$9*
0 Add four rect primitives between the rounded corners*
20,1,$1+$1,$2,$3,$4,$5,0*
20,1,$1+$1,$4,$5,$6,$7,0*
20,1,$1+$1,$6,$7,$8,$9,0*
20,1,$1+$1,$8,$9,$2,$3,0*%
G04 Aperture macros list end*
%ADD10C,0.200000*%
%ADD11C,0.125000*%
%ADD12C,0.120000*%
%ADD13C,0.254000*%
%ADD14C,0.250000*%
%ADD15RoundRect,0.237500X-0.237500X0.287500X-0.237500X-0.287500X0.237500X-0.287500X0.237500X0.287500X0*%
%ADD16RoundRect,0.237500X0.237500X-0.287500X0.237500X0.287500X-0.237500X0.287500X-0.237500X-0.287500X0*%
%ADD17RoundRect,0.237500X-0.250000X-0.237500X0.250000X-0.237500X0.250000X0.237500X-0.250000X0.237500X0*%
%ADD18RoundRect,0.100000X0.637500X0.100000X-0.637500X0.100000X-0.637500X-0.100000X0.637500X-0.100000X0*%
%ADD19RoundRect,0.218750X-0.218750X-0.256250X0.218750X-0.256250X0.218750X0.256250X-0.218750X0.256250X0*%
%ADD20RoundRect,0.237500X0.287500X0.237500X-0.287500X0.237500X-0.287500X-0.237500X0.287500X-0.237500X0*%
%ADD21RoundRect,0.237500X-0.287500X-0.237500X0.287500X-0.237500X0.287500X0.237500X-0.287500X0.237500X0*%
%ADD22RoundRect,0.237500X0.250000X0.237500X-0.250000X0.237500X-0.250000X-0.237500X0.250000X-0.237500X0*%
%ADD23RoundRect,0.250000X-0.450000X-0.350000X0.450000X-0.350000X0.450000X0.350000X-0.450000X0.350000X0*%
%ADD24R,0.900000X1.700000*%
%ADD25RoundRect,0.250000X-1.250000X-0.550000X1.250000X-0.550000X1.250000X0.550000X-1.250000X0.550000X0*%
%ADD26R,0.600000X1.200000*%
%ADD27RoundRect,0.237500X-0.237500X0.250000X-0.237500X-0.250000X0.237500X-0.250000X0.237500X0.250000X0*%
%ADD28RoundRect,0.237500X0.237500X-0.250000X0.237500X0.250000X-0.237500X0.250000X-0.237500X-0.250000X0*%
%ADD29RoundRect,0.150000X-0.150000X0.825000X-0.150000X-0.825000X0.150000X-0.825000X0.150000X0.825000X0*%
%ADD30RoundRect,0.250000X-0.550000X1.250000X-0.550000X-1.250000X0.550000X-1.250000X0.550000X1.250000X0*%
%ADD31RoundRect,0.218750X0.218750X0.256250X-0.218750X0.256250X-0.218750X-0.256250X0.218750X-0.256250X0*%
%ADD32R,1.500000X3.000000*%
%ADD33R,0.300000X0.900000*%
%ADD34R,0.900000X0.300000*%
%ADD35R,3.600000X3.600000*%
%ADD36RoundRect,0.150000X-0.512500X-0.150000X0.512500X-0.150000X0.512500X0.150000X-0.512500X0.150000X0*%
%ADD37RoundRect,0.150000X0.150000X-0.587500X0.150000X0.587500X-0.150000X0.587500X-0.150000X-0.587500X0*%
%ADD38C,0.650000*%
%ADD39R,1.240000X0.600000*%
%ADD40R,1.240000X0.300000*%
%ADD41O,2.100000X1.000000*%
%ADD42O,1.800000X1.000000*%
%ADD43RoundRect,0.150000X-0.700000X0.150000X-0.700000X-0.150000X0.700000X-0.150000X0.700000X0.150000X0*%
%ADD44RoundRect,0.250000X-1.100000X0.250000X-1.100000X-0.250000X1.100000X-0.250000X1.100000X0.250000X0*%
%ADD45RoundRect,0.218750X0.256250X-0.218750X0.256250X0.218750X-0.256250X0.218750X-0.256250X-0.218750X0*%
G04 APERTURE END LIST*
D10*
X88898244Y-88100552D02*
X88898244Y-88767219D01*
X88660149Y-87719600D02*
X88422054Y-88433885D01*
X88422054Y-88433885D02*
X89041101Y-88433885D01*
X89422054Y-88671980D02*
X89469673Y-88719600D01*
X89469673Y-88719600D02*
X89422054Y-88767219D01*
X89422054Y-88767219D02*
X89374435Y-88719600D01*
X89374435Y-88719600D02*
X89422054Y-88671980D01*
X89422054Y-88671980D02*
X89422054Y-88767219D01*
X89803006Y-87767219D02*
X90469672Y-87767219D01*
X90469672Y-87767219D02*
X90041101Y-88767219D01*
D11*
X89044140Y-77571119D02*
X88472712Y-77571119D01*
X88758426Y-77571119D02*
X88758426Y-76571119D01*
X88758426Y-76571119D02*
X88663188Y-76713976D01*
X88663188Y-76713976D02*
X88567950Y-76809214D01*
X88567950Y-76809214D02*
X88472712Y-76856833D01*
X89663188Y-76571119D02*
X89758426Y-76571119D01*
X89758426Y-76571119D02*
X89853664Y-76618738D01*
X89853664Y-76618738D02*
X89901283Y-76666357D01*
X89901283Y-76666357D02*
X89948902Y-76761595D01*
X89948902Y-76761595D02*
X89996521Y-76952071D01*
X89996521Y-76952071D02*
X89996521Y-77190166D01*
X89996521Y-77190166D02*
X89948902Y-77380642D01*
X89948902Y-77380642D02*
X89901283Y-77475880D01*
X89901283Y-77475880D02*
X89853664Y-77523500D01*
X89853664Y-77523500D02*
X89758426Y-77571119D01*
X89758426Y-77571119D02*
X89663188Y-77571119D01*
X89663188Y-77571119D02*
X89567950Y-77523500D01*
X89567950Y-77523500D02*
X89520331Y-77475880D01*
X89520331Y-77475880D02*
X89472712Y-77380642D01*
X89472712Y-77380642D02*
X89425093Y-77190166D01*
X89425093Y-77190166D02*
X89425093Y-76952071D01*
X89425093Y-76952071D02*
X89472712Y-76761595D01*
X89472712Y-76761595D02*
X89520331Y-76666357D01*
X89520331Y-76666357D02*
X89567950Y-76618738D01*
X89567950Y-76618738D02*
X89663188Y-76571119D01*
X90615569Y-76571119D02*
X90710807Y-76571119D01*
X90710807Y-76571119D02*
X90806045Y-76618738D01*
X90806045Y-76618738D02*
X90853664Y-76666357D01*
X90853664Y-76666357D02*
X90901283Y-76761595D01*
X90901283Y-76761595D02*
X90948902Y-76952071D01*
X90948902Y-76952071D02*
X90948902Y-77190166D01*
X90948902Y-77190166D02*
X90901283Y-77380642D01*
X90901283Y-77380642D02*
X90853664Y-77475880D01*
X90853664Y-77475880D02*
X90806045Y-77523500D01*
X90806045Y-77523500D02*
X90710807Y-77571119D01*
X90710807Y-77571119D02*
X90615569Y-77571119D01*
X90615569Y-77571119D02*
X90520331Y-77523500D01*
X90520331Y-77523500D02*
X90472712Y-77475880D01*
X90472712Y-77475880D02*
X90425093Y-77380642D01*
X90425093Y-77380642D02*
X90377474Y-77190166D01*
X90377474Y-77190166D02*
X90377474Y-76952071D01*
X90377474Y-76952071D02*
X90425093Y-76761595D01*
X90425093Y-76761595D02*
X90472712Y-76666357D01*
X90472712Y-76666357D02*
X90520331Y-76618738D01*
X90520331Y-76618738D02*
X90615569Y-76571119D01*
D12*
%TO.C,C34*%
X43669000Y-76711500D02*
X43669000Y-80013500D01*
X43669000Y-80013500D02*
X45066000Y-80013500D01*
X45066000Y-76711500D02*
X43669000Y-76711500D01*
X45066000Y-80013500D02*
X45066000Y-76711500D01*
%TO.C,C38*%
X72466500Y-92299000D02*
X72466500Y-95601000D01*
X72466500Y-95601000D02*
X73863500Y-95601000D01*
X73863500Y-92299000D02*
X72466500Y-92299000D01*
X73863500Y-95601000D02*
X73863500Y-92299000D01*
%TO.C,R7*%
X45494000Y-84368500D02*
X45494000Y-85765500D01*
X45494000Y-85765500D02*
X48796000Y-85765500D01*
X48796000Y-84368500D02*
X45494000Y-84368500D01*
X48796000Y-85765500D02*
X48796000Y-84368500D01*
%TO.C,C22*%
X77674500Y-82496000D02*
X77674500Y-85798000D01*
X77674500Y-85798000D02*
X79071500Y-85798000D01*
X79071500Y-82496000D02*
X77674500Y-82496000D01*
X79071500Y-85798000D02*
X79071500Y-82496000D01*
%TO.C,R29*%
X57547000Y-76622500D02*
X57547000Y-78019500D01*
X57547000Y-78019500D02*
X60849000Y-78019500D01*
X60849000Y-76622500D02*
X57547000Y-76622500D01*
X60849000Y-78019500D02*
X60849000Y-76622500D01*
%TO.C,R3*%
X32725000Y-96354000D02*
X32725000Y-97751000D01*
X32725000Y-97751000D02*
X36027000Y-97751000D01*
X36027000Y-96354000D02*
X32725000Y-96354000D01*
X36027000Y-97751000D02*
X36027000Y-96354000D01*
%TO.C,C27*%
X36269000Y-76862500D02*
X36269000Y-80164500D01*
X36269000Y-80164500D02*
X37666000Y-80164500D01*
X37666000Y-76862500D02*
X36269000Y-76862500D01*
X37666000Y-80164500D02*
X37666000Y-76862500D01*
%TO.C,U1*%
X38240000Y-85850000D02*
X42860000Y-85850000D01*
X42860000Y-92620000D02*
X38240000Y-92620000D01*
X44740000Y-92405000D02*
X44410000Y-92165000D01*
X44740000Y-91925000D01*
X44740000Y-92405000D01*
G36*
X44740000Y-92405000D02*
G01*
X44410000Y-92165000D01*
X44740000Y-91925000D01*
X44740000Y-92405000D01*
G37*
%TO.C,FB1*%
X45602000Y-77910000D02*
X45602000Y-79510000D01*
X45602000Y-79510000D02*
X48802000Y-79510000D01*
X48802000Y-77910000D02*
X45602000Y-77910000D01*
X48802000Y-79510000D02*
X48802000Y-77910000D01*
%TO.C,C6*%
X45513000Y-82868500D02*
X45513000Y-84265500D01*
X45513000Y-84265500D02*
X48815000Y-84265500D01*
X48815000Y-82868500D02*
X45513000Y-82868500D01*
X48815000Y-84265500D02*
X48815000Y-82868500D01*
%TO.C,C2*%
X39417000Y-92882500D02*
X39417000Y-94279500D01*
X39417000Y-94279500D02*
X42719000Y-94279500D01*
X42719000Y-92882500D02*
X39417000Y-92882500D01*
X42719000Y-94279500D02*
X42719000Y-92882500D01*
%TO.C,R21*%
X67127500Y-85363000D02*
X67127500Y-86760000D01*
X67127500Y-86760000D02*
X70429500Y-86760000D01*
X70429500Y-85363000D02*
X67127500Y-85363000D01*
X70429500Y-86760000D02*
X70429500Y-85363000D01*
%TO.C,R31*%
X79498000Y-87296000D02*
X79498000Y-88693000D01*
X79498000Y-88693000D02*
X82800000Y-88693000D01*
X82800000Y-87296000D02*
X79498000Y-87296000D01*
X82800000Y-88693000D02*
X82800000Y-87296000D01*
%TO.C,C8*%
X53002000Y-81144000D02*
X53002000Y-82541000D01*
X53002000Y-82541000D02*
X56304000Y-82541000D01*
X56304000Y-81144000D02*
X53002000Y-81144000D01*
X56304000Y-82541000D02*
X56304000Y-81144000D01*
%TO.C,X1*%
X36950000Y-94210000D02*
X41350000Y-94210000D01*
X36950000Y-97310000D02*
X36950000Y-94210000D01*
X41350000Y-94210000D02*
X41350000Y-97810000D01*
X41350000Y-97810000D02*
X37450000Y-97810000D01*
D10*
X37213500Y-97610000D02*
G75*
G02*
X37086500Y-97610000I-63500J0D01*
G01*
X37086500Y-97610000D02*
G75*
G02*
X37213500Y-97610000I63500J0D01*
G01*
D12*
%TO.C,C15*%
X67605000Y-76094500D02*
X67605000Y-77491500D01*
X67605000Y-77491500D02*
X70907000Y-77491500D01*
X70907000Y-76094500D02*
X67605000Y-76094500D01*
X70907000Y-77491500D02*
X70907000Y-76094500D01*
%TO.C,C11*%
X45602000Y-79695000D02*
X45602000Y-81092000D01*
X45602000Y-81092000D02*
X48904000Y-81092000D01*
X48904000Y-79695000D02*
X45602000Y-79695000D01*
X48904000Y-81092000D02*
X48904000Y-79695000D01*
%TO.C,SW1*%
X42490000Y-94575000D02*
X46140000Y-94575000D01*
X42490000Y-94875000D02*
X42490000Y-94575000D01*
X42490000Y-97075000D02*
X42490000Y-97375000D01*
X42490000Y-97375000D02*
X46140000Y-97375000D01*
X46140000Y-94575000D02*
X46140000Y-94875000D01*
X46140000Y-97375000D02*
X46140000Y-97075000D01*
%TO.C,C36*%
X75411000Y-77761000D02*
X76036000Y-77761000D01*
X75723500Y-77448500D02*
X75723500Y-78073500D01*
X76276000Y-77750437D02*
X76276000Y-78386000D01*
X76276000Y-77750437D02*
X77340437Y-76686000D01*
X76276000Y-81141563D02*
X76276000Y-80506000D01*
X76276000Y-81141563D02*
X77340437Y-82206000D01*
X77340437Y-76686000D02*
X81796000Y-76686000D01*
X77340437Y-82206000D02*
X81796000Y-82206000D01*
X81796000Y-76686000D02*
X81796000Y-78386000D01*
X81796000Y-82206000D02*
X81796000Y-80506000D01*
D10*
%TO.C,PS2*%
X51772584Y-95754832D02*
X51772584Y-94554832D01*
X51912584Y-93604832D02*
X54832584Y-93604832D01*
X51912584Y-94204832D02*
X51912584Y-93604832D01*
X54832584Y-93604832D02*
X54832584Y-94204832D01*
X54832584Y-94204832D02*
X51912584Y-94204832D01*
D12*
%TO.C,C10*%
X49143000Y-81062000D02*
X49143000Y-82459000D01*
X49143000Y-82459000D02*
X52445000Y-82459000D01*
X52445000Y-81062000D02*
X49143000Y-81062000D01*
X52445000Y-82459000D02*
X52445000Y-81062000D01*
%TO.C,R18*%
X34812500Y-78641000D02*
X34812500Y-81943000D01*
X34812500Y-81943000D02*
X36209500Y-81943000D01*
X36209500Y-78641000D02*
X34812500Y-78641000D01*
X36209500Y-81943000D02*
X36209500Y-78641000D01*
%TO.C,R33*%
X56869672Y-94963500D02*
X56869672Y-96360500D01*
X56869672Y-96360500D02*
X60171672Y-96360500D01*
X60171672Y-94963500D02*
X56869672Y-94963500D01*
X60171672Y-96360500D02*
X60171672Y-94963500D01*
%TO.C,C4*%
X39683000Y-84211000D02*
X39683000Y-85608000D01*
X39683000Y-85608000D02*
X42985000Y-85608000D01*
X42985000Y-84211000D02*
X39683000Y-84211000D01*
X42985000Y-85608000D02*
X42985000Y-84211000D01*
%TO.C,C19*%
X64233500Y-87307500D02*
X64233500Y-90609500D01*
X64233500Y-90609500D02*
X65630500Y-90609500D01*
X65630500Y-87307500D02*
X64233500Y-87307500D01*
X65630500Y-90609500D02*
X65630500Y-87307500D01*
%TO.C,R14*%
X62678500Y-87375500D02*
X62678500Y-90677500D01*
X62678500Y-90677500D02*
X64075500Y-90677500D01*
X64075500Y-87375500D02*
X62678500Y-87375500D01*
X64075500Y-90677500D02*
X64075500Y-87375500D01*
%TO.C,R2*%
X32725000Y-94837000D02*
X32725000Y-96234000D01*
X32725000Y-96234000D02*
X36027000Y-96234000D01*
X36027000Y-94837000D02*
X32725000Y-94837000D01*
X36027000Y-96234000D02*
X36027000Y-94837000D01*
%TO.C,R19*%
X72868000Y-75673500D02*
X72868000Y-78975500D01*
X72868000Y-78975500D02*
X74265000Y-78975500D01*
X74265000Y-75673500D02*
X72868000Y-75673500D01*
X74265000Y-78975500D02*
X74265000Y-75673500D01*
%TO.C,C9*%
X49247000Y-79513500D02*
X49247000Y-80910500D01*
X49247000Y-80910500D02*
X52549000Y-80910500D01*
X52549000Y-79513500D02*
X49247000Y-79513500D01*
X52549000Y-80910500D02*
X52549000Y-79513500D01*
%TO.C,C23*%
X67193000Y-83861000D02*
X67193000Y-85258000D01*
X67193000Y-85258000D02*
X70495000Y-85258000D01*
X70495000Y-83861000D02*
X67193000Y-83861000D01*
X70495000Y-85258000D02*
X70495000Y-83861000D01*
D10*
%TO.C,PS1*%
X67959500Y-79372000D02*
X70879500Y-79372000D01*
X67959500Y-79972000D02*
X67959500Y-79372000D01*
X70879500Y-79372000D02*
X70879500Y-79972000D01*
X70879500Y-79972000D02*
X67959500Y-79972000D01*
X71019500Y-77822000D02*
X71019500Y-79022000D01*
D12*
%TO.C,U4*%
X57250000Y-88883000D02*
X57345000Y-88883000D01*
X57250000Y-93003000D02*
X57250000Y-88883000D01*
X57345000Y-93003000D02*
X57250000Y-93003000D01*
X62275000Y-88883000D02*
X62370000Y-88883000D01*
X62370000Y-88883000D02*
X62370000Y-93003000D01*
X62370000Y-93003000D02*
X62275000Y-93003000D01*
X62610000Y-88583000D02*
X62280000Y-88343000D01*
X62610000Y-88103000D01*
X62610000Y-88583000D01*
G36*
X62610000Y-88583000D02*
G01*
X62280000Y-88343000D01*
X62610000Y-88103000D01*
X62610000Y-88583000D01*
G37*
%TO.C,R23*%
X67235000Y-82397000D02*
X67235000Y-83794000D01*
X67235000Y-83794000D02*
X70537000Y-83794000D01*
X70537000Y-82397000D02*
X67235000Y-82397000D01*
X70537000Y-83794000D02*
X70537000Y-82397000D01*
%TO.C,C18*%
X62612500Y-82392500D02*
X62612500Y-85694500D01*
X62612500Y-85694500D02*
X64009500Y-85694500D01*
X64009500Y-82392500D02*
X62612500Y-82392500D01*
X64009500Y-85694500D02*
X64009500Y-82392500D01*
%TO.C,C17*%
X62612500Y-78961000D02*
X62612500Y-82263000D01*
X62612500Y-82263000D02*
X64009500Y-82263000D01*
X64009500Y-78961000D02*
X62612500Y-78961000D01*
X64009500Y-82263000D02*
X64009500Y-78961000D01*
%TO.C,C35*%
X77540000Y-91264437D02*
X77540000Y-95720000D01*
X77540000Y-95720000D02*
X79240000Y-95720000D01*
X78604437Y-90200000D02*
X77540000Y-91264437D01*
X78604437Y-90200000D02*
X79240000Y-90200000D01*
X81985000Y-89335000D02*
X81985000Y-89960000D01*
X81995563Y-90200000D02*
X81360000Y-90200000D01*
X81995563Y-90200000D02*
X83060000Y-91264437D01*
X82297500Y-89647500D02*
X81672500Y-89647500D01*
X83060000Y-91264437D02*
X83060000Y-95720000D01*
X83060000Y-95720000D02*
X81360000Y-95720000D01*
%TO.C,FB4*%
X73880000Y-93193000D02*
X73880000Y-94793000D01*
X73880000Y-94793000D02*
X77080000Y-94793000D01*
X77080000Y-93193000D02*
X73880000Y-93193000D01*
X77080000Y-94793000D02*
X77080000Y-93193000D01*
%TO.C,R16*%
X64255500Y-90707500D02*
X64255500Y-94009500D01*
X64255500Y-94009500D02*
X65652500Y-94009500D01*
X65652500Y-90707500D02*
X64255500Y-90707500D01*
X65652500Y-94009500D02*
X65652500Y-90707500D01*
%TO.C,R34*%
X44893000Y-91060000D02*
X44893000Y-92457000D01*
X44893000Y-92457000D02*
X48195000Y-92457000D01*
X48195000Y-91060000D02*
X44893000Y-91060000D01*
X48195000Y-92457000D02*
X48195000Y-91060000D01*
%TO.C,R24*%
X79497000Y-84160000D02*
X79497000Y-85557000D01*
X79497000Y-85557000D02*
X82799000Y-85557000D01*
X82799000Y-84160000D02*
X79497000Y-84160000D01*
X82799000Y-85557000D02*
X82799000Y-84160000D01*
%TO.C,R20*%
X65703500Y-83868500D02*
X65703500Y-87170500D01*
X65703500Y-87170500D02*
X67100500Y-87170500D01*
X67100500Y-83868500D02*
X65703500Y-83868500D01*
X67100500Y-87170500D02*
X67100500Y-83868500D01*
%TO.C,U7*%
X70770000Y-84936000D02*
X70865000Y-84936000D01*
X70770000Y-89056000D02*
X70770000Y-84936000D01*
X70865000Y-89056000D02*
X70770000Y-89056000D01*
X75795000Y-84936000D02*
X75890000Y-84936000D01*
X75890000Y-84936000D02*
X75890000Y-89056000D01*
X75890000Y-89056000D02*
X75795000Y-89056000D01*
X76130000Y-84636000D02*
X75800000Y-84396000D01*
X76130000Y-84156000D01*
X76130000Y-84636000D01*
G36*
X76130000Y-84636000D02*
G01*
X75800000Y-84396000D01*
X76130000Y-84156000D01*
X76130000Y-84636000D01*
G37*
%TO.C,R5*%
X44494000Y-89193500D02*
X44494000Y-90590500D01*
X44494000Y-90590500D02*
X47796000Y-90590500D01*
X47796000Y-89193500D02*
X44494000Y-89193500D01*
X47796000Y-90590500D02*
X47796000Y-89193500D01*
D13*
%TO.C,PJ1*%
X83471500Y-78172000D02*
X85321500Y-78172000D01*
X83471500Y-84268000D02*
X83471500Y-78172000D01*
X83521500Y-84268000D02*
X83471500Y-84268000D01*
X87283500Y-78172000D02*
X92321500Y-78172000D01*
X89621500Y-84268000D02*
X85483500Y-84268000D01*
X93221500Y-84268000D02*
X91583500Y-84268000D01*
X94283500Y-78172000D02*
X95790500Y-78172000D01*
X95790500Y-84268000D02*
X95183500Y-84268000D01*
X95850500Y-78720000D02*
X95850500Y-78172000D01*
X95850500Y-83720000D02*
X95850500Y-84268000D01*
X97790500Y-78720000D02*
X95850500Y-78720000D01*
X97790500Y-83720000D02*
X95850500Y-83720000D01*
X97790500Y-83720000D02*
X97790500Y-78720000D01*
D12*
%TO.C,C13*%
X36245000Y-84220500D02*
X36245000Y-85617500D01*
X36245000Y-85617500D02*
X39547000Y-85617500D01*
X39547000Y-84220500D02*
X36245000Y-84220500D01*
X39547000Y-85617500D02*
X39547000Y-84220500D01*
%TO.C,C20*%
X62721500Y-90798000D02*
X62721500Y-94100000D01*
X62721500Y-94100000D02*
X64118500Y-94100000D01*
X64118500Y-90798000D02*
X62721500Y-90798000D01*
X64118500Y-94100000D02*
X64118500Y-90798000D01*
%TO.C,R12*%
X64178500Y-82439500D02*
X64178500Y-85741500D01*
X64178500Y-85741500D02*
X65575500Y-85741500D01*
X65575500Y-82439500D02*
X64178500Y-82439500D01*
X65575500Y-85741500D02*
X65575500Y-82439500D01*
%TO.C,R4*%
X45494000Y-85903500D02*
X45494000Y-87300500D01*
X45494000Y-87300500D02*
X48796000Y-87300500D01*
X48796000Y-85903500D02*
X45494000Y-85903500D01*
X48796000Y-87300500D02*
X48796000Y-85903500D01*
D14*
%TO.C,IC1*%
X50515000Y-89900000D02*
G75*
G02*
X50265000Y-89900000I-125000J0D01*
G01*
X50265000Y-89900000D02*
G75*
G02*
X50515000Y-89900000I125000J0D01*
G01*
D12*
%TO.C,C12*%
X45513000Y-81212000D02*
X45513000Y-82609000D01*
X45513000Y-82609000D02*
X48815000Y-82609000D01*
X48815000Y-81212000D02*
X45513000Y-81212000D01*
X48815000Y-82609000D02*
X48815000Y-81212000D01*
%TO.C,R9*%
X67222000Y-92447000D02*
X67222000Y-93844000D01*
X67222000Y-93844000D02*
X70524000Y-93844000D01*
X70524000Y-92447000D02*
X67222000Y-92447000D01*
X70524000Y-93844000D02*
X70524000Y-92447000D01*
%TO.C,R11*%
X68079000Y-90877000D02*
X68079000Y-92274000D01*
X68079000Y-92274000D02*
X71381000Y-92274000D01*
X71381000Y-90877000D02*
X68079000Y-90877000D01*
X71381000Y-92274000D02*
X71381000Y-90877000D01*
%TO.C,C26*%
X60881000Y-77356500D02*
X60881000Y-78753500D01*
X60881000Y-78753500D02*
X64183000Y-78753500D01*
X64183000Y-77356500D02*
X60881000Y-77356500D01*
X64183000Y-78753500D02*
X64183000Y-77356500D01*
%TO.C,C3*%
X38309500Y-80638000D02*
X38309500Y-83940000D01*
X38309500Y-83940000D02*
X39706500Y-83940000D01*
X39706500Y-80638000D02*
X38309500Y-80638000D01*
X39706500Y-83940000D02*
X39706500Y-80638000D01*
%TO.C,C37*%
X70927500Y-92379000D02*
X70927500Y-95681000D01*
X70927500Y-95681000D02*
X72324500Y-95681000D01*
X72324500Y-92379000D02*
X70927500Y-92379000D01*
X72324500Y-95681000D02*
X72324500Y-92379000D01*
%TO.C,C42*%
X55219500Y-92639832D02*
X55219500Y-95941832D01*
X55219500Y-95941832D02*
X56616500Y-95941832D01*
X56616500Y-92639832D02*
X55219500Y-92639832D01*
X56616500Y-95941832D02*
X56616500Y-92639832D01*
%TO.C,R6*%
X45494000Y-87682500D02*
X45494000Y-89079500D01*
X45494000Y-89079500D02*
X48796000Y-89079500D01*
X48796000Y-87682500D02*
X45494000Y-87682500D01*
X48796000Y-89079500D02*
X48796000Y-87682500D01*
%TO.C,R32*%
X79497000Y-85779000D02*
X79497000Y-87176000D01*
X79497000Y-87176000D02*
X82799000Y-87176000D01*
X82799000Y-85779000D02*
X79497000Y-85779000D01*
X82799000Y-87176000D02*
X82799000Y-85779000D01*
%TO.C,R22*%
X76185500Y-82432000D02*
X76185500Y-85734000D01*
X76185500Y-85734000D02*
X77582500Y-85734000D01*
X77582500Y-82432000D02*
X76185500Y-82432000D01*
X77582500Y-85734000D02*
X77582500Y-82432000D01*
%TO.C,C16*%
X71290500Y-75581000D02*
X71290500Y-78883000D01*
X71290500Y-78883000D02*
X72687500Y-78883000D01*
X72687500Y-75581000D02*
X71290500Y-75581000D01*
X72687500Y-78883000D02*
X72687500Y-75581000D01*
%TO.C,C5*%
X42855000Y-92758000D02*
X42855000Y-94155000D01*
X42855000Y-94155000D02*
X46157000Y-94155000D01*
X46157000Y-92758000D02*
X42855000Y-92758000D01*
X46157000Y-94155000D02*
X46157000Y-92758000D01*
%TO.C,C24*%
X76141500Y-85930000D02*
X76141500Y-89232000D01*
X76141500Y-89232000D02*
X77538500Y-89232000D01*
X77538500Y-85930000D02*
X76141500Y-85930000D01*
X77538500Y-89232000D02*
X77538500Y-85930000D01*
%TO.C,R30*%
X57547000Y-78105500D02*
X57547000Y-79502500D01*
X57547000Y-79502500D02*
X60849000Y-79502500D01*
X60849000Y-78105500D02*
X57547000Y-78105500D01*
X60849000Y-79502500D02*
X60849000Y-78105500D01*
%TO.C,C33*%
X72806500Y-79083250D02*
X72806500Y-82385250D01*
X72806500Y-82385250D02*
X74203500Y-82385250D01*
X74203500Y-79083250D02*
X72806500Y-79083250D01*
X74203500Y-82385250D02*
X74203500Y-79083250D01*
%TO.C,C25*%
X67221000Y-89345000D02*
X67221000Y-90742000D01*
X67221000Y-90742000D02*
X70523000Y-90742000D01*
X70523000Y-89345000D02*
X67221000Y-89345000D01*
X70523000Y-90742000D02*
X70523000Y-89345000D01*
%TO.C,C21*%
X28171000Y-96418500D02*
X28171000Y-97815500D01*
X28171000Y-97815500D02*
X31473000Y-97815500D01*
X31473000Y-96418500D02*
X28171000Y-96418500D01*
X31473000Y-97815500D02*
X31473000Y-96418500D01*
%TO.C,U3*%
X57320000Y-81298000D02*
X57415000Y-81298000D01*
X57320000Y-85418000D02*
X57320000Y-81298000D01*
X57415000Y-85418000D02*
X57320000Y-85418000D01*
X62345000Y-81298000D02*
X62440000Y-81298000D01*
X62440000Y-81298000D02*
X62440000Y-85418000D01*
X62440000Y-85418000D02*
X62345000Y-85418000D01*
X62680000Y-80998000D02*
X62350000Y-80758000D01*
X62680000Y-80518000D01*
X62680000Y-80998000D01*
G36*
X62680000Y-80998000D02*
G01*
X62350000Y-80758000D01*
X62680000Y-80518000D01*
X62680000Y-80998000D01*
G37*
D13*
%TO.C,PJ2*%
X83271500Y-89344000D02*
X85121500Y-89344000D01*
X83271500Y-95440000D02*
X83271500Y-89344000D01*
X83321500Y-95440000D02*
X83271500Y-95440000D01*
X87083500Y-89344000D02*
X92121500Y-89344000D01*
X89421500Y-95440000D02*
X85283500Y-95440000D01*
X93021500Y-95440000D02*
X91383500Y-95440000D01*
X94083500Y-89344000D02*
X95590500Y-89344000D01*
X95590500Y-95440000D02*
X94983500Y-95440000D01*
X95650500Y-89892000D02*
X95650500Y-89344000D01*
X95650500Y-94892000D02*
X95650500Y-95440000D01*
X97590500Y-89892000D02*
X95650500Y-89892000D01*
X97590500Y-94892000D02*
X95650500Y-94892000D01*
X97590500Y-94892000D02*
X97590500Y-89892000D01*
D12*
%TO.C,F1*%
X32700000Y-82238000D02*
X32700000Y-83838000D01*
X32700000Y-83838000D02*
X35900000Y-83838000D01*
X35900000Y-82238000D02*
X32700000Y-82238000D01*
X35900000Y-83838000D02*
X35900000Y-82238000D01*
%TO.C,FB2*%
X49231000Y-77914000D02*
X49231000Y-79514000D01*
X49231000Y-79514000D02*
X52431000Y-79514000D01*
X52431000Y-77914000D02*
X49231000Y-77914000D01*
X52431000Y-79514000D02*
X52431000Y-77914000D01*
%TO.C,U5*%
X40647500Y-76680000D02*
X42467500Y-76680000D01*
X40647500Y-76730000D02*
X40647500Y-76680000D01*
X40647500Y-79800000D02*
X40647500Y-79750000D01*
X42467500Y-76680000D02*
X42467500Y-76730000D01*
X42467500Y-77850000D02*
X42467500Y-78630000D01*
X42467500Y-79750000D02*
X42467500Y-79800000D01*
X42467500Y-79800000D02*
X40647500Y-79800000D01*
X40107500Y-76730000D02*
X39867500Y-76400000D01*
X40347500Y-76400000D01*
X40107500Y-76730000D01*
G36*
X40107500Y-76730000D02*
G01*
X39867500Y-76400000D01*
X40347500Y-76400000D01*
X40107500Y-76730000D01*
G37*
%TO.C,R15*%
X77666500Y-85847000D02*
X77666500Y-89149000D01*
X77666500Y-89149000D02*
X79063500Y-89149000D01*
X79063500Y-85847000D02*
X77666500Y-85847000D01*
X79063500Y-89149000D02*
X79063500Y-85847000D01*
%TO.C,C1*%
X35983000Y-92867500D02*
X35983000Y-94264500D01*
X35983000Y-94264500D02*
X39285000Y-94264500D01*
X39285000Y-92867500D02*
X35983000Y-92867500D01*
X39285000Y-94264500D02*
X39285000Y-92867500D01*
%TO.C,U2*%
X39988000Y-81305000D02*
X40988000Y-81305000D01*
X39988000Y-82825000D02*
X39988000Y-81305000D01*
X40038000Y-82825000D02*
X39988000Y-82825000D01*
X41938000Y-82825000D02*
X41158000Y-82825000D01*
X42108000Y-81305000D02*
X43108000Y-81305000D01*
X43108000Y-81305000D02*
X43108000Y-82825000D01*
X43108000Y-82825000D02*
X43058000Y-82825000D01*
X41498000Y-83605000D02*
X41168000Y-83365000D01*
X41498000Y-83125000D01*
X41498000Y-83605000D01*
G36*
X41498000Y-83605000D02*
G01*
X41168000Y-83365000D01*
X41498000Y-83125000D01*
X41498000Y-83605000D01*
G37*
%TO.C,C7*%
X52913000Y-79627000D02*
X52913000Y-81024000D01*
X52913000Y-81024000D02*
X56215000Y-81024000D01*
X56215000Y-79627000D02*
X52913000Y-79627000D01*
X56215000Y-81024000D02*
X56215000Y-79627000D01*
%TO.C,J3*%
X27345000Y-84895000D02*
X29050000Y-84895000D01*
X27345000Y-94055000D02*
X27345000Y-84895000D01*
X29050000Y-94055000D02*
X27345000Y-94055000D01*
X31060000Y-94055000D02*
X32980000Y-94055000D01*
X32980000Y-84895000D02*
X31060000Y-84895000D01*
%TO.C,C14*%
X71263000Y-78953000D02*
X71263000Y-82255000D01*
X71263000Y-82255000D02*
X72660000Y-82255000D01*
X72660000Y-78953000D02*
X71263000Y-78953000D01*
X72660000Y-82255000D02*
X72660000Y-78953000D01*
%TO.C,R17*%
X28260000Y-94879500D02*
X28260000Y-96276500D01*
X28260000Y-96276500D02*
X31562000Y-96276500D01*
X31562000Y-94879500D02*
X28260000Y-94879500D01*
X31562000Y-96276500D02*
X31562000Y-94879500D01*
%TO.C,C32*%
X72484000Y-90851500D02*
X72484000Y-92248500D01*
X72484000Y-92248500D02*
X75786000Y-92248500D01*
X75786000Y-90851500D02*
X72484000Y-90851500D01*
X75786000Y-92248500D02*
X75786000Y-90851500D01*
%TO.C,R25*%
X79497000Y-82552500D02*
X79497000Y-83949500D01*
X79497000Y-83949500D02*
X82799000Y-83949500D01*
X82799000Y-82552500D02*
X79497000Y-82552500D01*
X82799000Y-83949500D02*
X82799000Y-82552500D01*
%TO.C,J2*%
X27650000Y-77580000D02*
X27650000Y-82260000D01*
X30470000Y-76310000D02*
X31920000Y-76310000D01*
X30470000Y-83530000D02*
X31920000Y-83530000D01*
X31920000Y-76310000D02*
X31920000Y-78110000D01*
X31920000Y-78110000D02*
X32910000Y-78110000D01*
X31920000Y-83530000D02*
X31920000Y-81730000D01*
%TO.C,R1*%
X37936500Y-76852000D02*
X37936500Y-80154000D01*
X37936500Y-80154000D02*
X39333500Y-80154000D01*
X39333500Y-76852000D02*
X37936500Y-76852000D01*
X39333500Y-80154000D02*
X39333500Y-76852000D01*
%TO.C,FB3*%
X52957000Y-77950000D02*
X52957000Y-79550000D01*
X52957000Y-79550000D02*
X56157000Y-79550000D01*
X56157000Y-77950000D02*
X52957000Y-77950000D01*
X56157000Y-79550000D02*
X56157000Y-77950000D01*
%TO.C,C39*%
X50859000Y-96098828D02*
X50859000Y-97495828D01*
X50859000Y-97495828D02*
X54161000Y-97495828D01*
X54161000Y-96098828D02*
X50859000Y-96098828D01*
X54161000Y-97495828D02*
X54161000Y-96098828D01*
%TO.C,R13*%
X67155000Y-87711000D02*
X67155000Y-89108000D01*
X67155000Y-89108000D02*
X70457000Y-89108000D01*
X70457000Y-87711000D02*
X67155000Y-87711000D01*
X70457000Y-89108000D02*
X70457000Y-87711000D01*
%TO.C,D3*%
X35966000Y-83660000D02*
X36266000Y-83660000D01*
X36266000Y-83060000D01*
X35966000Y-83060000D01*
X35966000Y-83660000D01*
G36*
X35966000Y-83660000D02*
G01*
X36266000Y-83660000D01*
X36266000Y-83060000D01*
X35966000Y-83060000D01*
X35966000Y-83660000D01*
G37*
X36266000Y-84160000D02*
X37866000Y-84160000D01*
X37866000Y-81160000D01*
X36266000Y-81160000D01*
X36266000Y-84160000D01*
X37866000Y-83660000D02*
X38166000Y-83660000D01*
X38166000Y-83060000D01*
X37866000Y-83060000D01*
X37866000Y-83660000D01*
G36*
X37866000Y-83660000D02*
G01*
X38166000Y-83660000D01*
X38166000Y-83060000D01*
X37866000Y-83060000D01*
X37866000Y-83660000D01*
G37*
%TO.C,C40*%
X48229500Y-94561416D02*
X48229500Y-95958416D01*
X48229500Y-95958416D02*
X51531500Y-95958416D01*
X51531500Y-94561416D02*
X48229500Y-94561416D01*
X51531500Y-95958416D02*
X51531500Y-94561416D01*
%TO.C,R8*%
X65961000Y-76129000D02*
X65961000Y-79431000D01*
X65961000Y-79431000D02*
X67358000Y-79431000D01*
X67358000Y-76129000D02*
X65961000Y-76129000D01*
X67358000Y-79431000D02*
X67358000Y-76129000D01*
%TO.C,R10*%
X64255500Y-79005500D02*
X64255500Y-82307500D01*
X64255500Y-82307500D02*
X65652500Y-82307500D01*
X65652500Y-79005500D02*
X64255500Y-79005500D01*
X65652500Y-82307500D02*
X65652500Y-79005500D01*
%TD*%
%LPC*%
D15*
%TO.C,C34*%
X44367500Y-77487500D03*
X44367500Y-79237500D03*
%TD*%
D16*
%TO.C,C38*%
X73165000Y-94825000D03*
X73165000Y-93075000D03*
%TD*%
D17*
%TO.C,R7*%
X46232500Y-85067000D03*
X48057500Y-85067000D03*
%TD*%
D16*
%TO.C,C22*%
X78373000Y-85022000D03*
X78373000Y-83272000D03*
%TD*%
D17*
%TO.C,R29*%
X58285500Y-77321000D03*
X60110500Y-77321000D03*
%TD*%
%TO.C,R3*%
X33463500Y-97052500D03*
X35288500Y-97052500D03*
%TD*%
D15*
%TO.C,C27*%
X36967500Y-77638500D03*
X36967500Y-79388500D03*
%TD*%
D18*
%TO.C,U1*%
X43412500Y-92160000D03*
X43412500Y-91510000D03*
X43412500Y-90860000D03*
X43412500Y-90210000D03*
X43412500Y-89560000D03*
X43412500Y-88910000D03*
X43412500Y-88260000D03*
X43412500Y-87610000D03*
X43412500Y-86960000D03*
X43412500Y-86310000D03*
X37687500Y-86310000D03*
X37687500Y-86960000D03*
X37687500Y-87610000D03*
X37687500Y-88260000D03*
X37687500Y-88910000D03*
X37687500Y-89560000D03*
X37687500Y-90210000D03*
X37687500Y-90860000D03*
X37687500Y-91510000D03*
X37687500Y-92160000D03*
%TD*%
D19*
%TO.C,FB1*%
X46414500Y-78710000D03*
X47989500Y-78710000D03*
%TD*%
D20*
%TO.C,C6*%
X48039000Y-83567000D03*
X46289000Y-83567000D03*
%TD*%
D21*
%TO.C,C2*%
X40193000Y-93581000D03*
X41943000Y-93581000D03*
%TD*%
D17*
%TO.C,R21*%
X67866000Y-86061500D03*
X69691000Y-86061500D03*
%TD*%
D22*
%TO.C,R31*%
X82061500Y-87994500D03*
X80236500Y-87994500D03*
%TD*%
D21*
%TO.C,C8*%
X53778000Y-81842500D03*
X55528000Y-81842500D03*
%TD*%
D23*
%TO.C,X1*%
X38050000Y-96860000D03*
X40250000Y-96860000D03*
X40250000Y-95160000D03*
X38050000Y-95160000D03*
%TD*%
D21*
%TO.C,C15*%
X68381000Y-76793000D03*
X70131000Y-76793000D03*
%TD*%
%TO.C,C11*%
X46378000Y-80393500D03*
X48128000Y-80393500D03*
%TD*%
D24*
%TO.C,SW1*%
X42090000Y-95975000D03*
X46540000Y-95975000D03*
%TD*%
D25*
%TO.C,C36*%
X76836000Y-79446000D03*
X81236000Y-79446000D03*
%TD*%
D26*
%TO.C,PS2*%
X52422584Y-95154832D03*
X53372584Y-95154832D03*
X54322584Y-95154832D03*
X54322584Y-92654832D03*
X53372584Y-92654832D03*
X52422584Y-92654832D03*
%TD*%
D21*
%TO.C,C10*%
X49919000Y-81760500D03*
X51669000Y-81760500D03*
%TD*%
D27*
%TO.C,R18*%
X35511000Y-79379500D03*
X35511000Y-81204500D03*
%TD*%
D17*
%TO.C,R33*%
X57608172Y-95662000D03*
X59433172Y-95662000D03*
%TD*%
D20*
%TO.C,C4*%
X42209000Y-84909500D03*
X40459000Y-84909500D03*
%TD*%
D16*
%TO.C,C19*%
X64932000Y-89833500D03*
X64932000Y-88083500D03*
%TD*%
D28*
%TO.C,R14*%
X63377000Y-89939000D03*
X63377000Y-88114000D03*
%TD*%
D17*
%TO.C,R2*%
X33463500Y-95535500D03*
X35288500Y-95535500D03*
%TD*%
D27*
%TO.C,R19*%
X73566500Y-76412000D03*
X73566500Y-78237000D03*
%TD*%
D21*
%TO.C,C9*%
X50023000Y-80212000D03*
X51773000Y-80212000D03*
%TD*%
%TO.C,C23*%
X67969000Y-84559500D03*
X69719000Y-84559500D03*
%TD*%
D26*
%TO.C,PS1*%
X70369500Y-78422000D03*
X69419500Y-78422000D03*
X68469500Y-78422000D03*
X68469500Y-80922000D03*
X69419500Y-80922000D03*
X70369500Y-80922000D03*
%TD*%
D29*
%TO.C,U4*%
X61715000Y-88468000D03*
X60445000Y-88468000D03*
X59175000Y-88468000D03*
X57905000Y-88468000D03*
X57905000Y-93418000D03*
X59175000Y-93418000D03*
X60445000Y-93418000D03*
X61715000Y-93418000D03*
%TD*%
D17*
%TO.C,R23*%
X67973500Y-83095500D03*
X69798500Y-83095500D03*
%TD*%
D15*
%TO.C,C18*%
X63311000Y-83168500D03*
X63311000Y-84918500D03*
%TD*%
D16*
%TO.C,C17*%
X63311000Y-81487000D03*
X63311000Y-79737000D03*
%TD*%
D30*
%TO.C,C35*%
X80300000Y-90760000D03*
X80300000Y-95160000D03*
%TD*%
D31*
%TO.C,FB4*%
X76267500Y-93993000D03*
X74692500Y-93993000D03*
%TD*%
D27*
%TO.C,R16*%
X64954000Y-91446000D03*
X64954000Y-93271000D03*
%TD*%
D17*
%TO.C,R34*%
X45631500Y-91758500D03*
X47456500Y-91758500D03*
%TD*%
D22*
%TO.C,R24*%
X82060500Y-84858500D03*
X80235500Y-84858500D03*
%TD*%
D27*
%TO.C,R20*%
X66402000Y-84607000D03*
X66402000Y-86432000D03*
%TD*%
D29*
%TO.C,U7*%
X75235000Y-84521000D03*
X73965000Y-84521000D03*
X72695000Y-84521000D03*
X71425000Y-84521000D03*
X71425000Y-89471000D03*
X72695000Y-89471000D03*
X73965000Y-89471000D03*
X75235000Y-89471000D03*
%TD*%
D17*
%TO.C,R5*%
X45232500Y-89892000D03*
X47057500Y-89892000D03*
%TD*%
D32*
%TO.C,PJ1*%
X94202500Y-84720000D03*
X90602500Y-84720000D03*
X86302500Y-77720000D03*
X84502500Y-84720000D03*
X93302500Y-77720000D03*
%TD*%
D21*
%TO.C,C13*%
X37021000Y-84919000D03*
X38771000Y-84919000D03*
%TD*%
D15*
%TO.C,C20*%
X63420000Y-91574000D03*
X63420000Y-93324000D03*
%TD*%
D27*
%TO.C,R12*%
X64877000Y-83178000D03*
X64877000Y-85003000D03*
%TD*%
D17*
%TO.C,R4*%
X46232500Y-86602000D03*
X48057500Y-86602000D03*
%TD*%
D33*
%TO.C,IC1*%
X51140000Y-89450000D03*
X51640000Y-89450000D03*
X52140000Y-89450000D03*
X52640000Y-89450000D03*
X53140000Y-89450000D03*
X53640000Y-89450000D03*
X54140000Y-89450000D03*
D34*
X55090000Y-88500000D03*
X55090000Y-88000000D03*
X55090000Y-87500000D03*
X55090000Y-87000000D03*
X55090000Y-86500000D03*
X55090000Y-86000000D03*
X55090000Y-85500000D03*
D33*
X54140000Y-84550000D03*
X53640000Y-84550000D03*
X53140000Y-84550000D03*
X52640000Y-84550000D03*
X52140000Y-84550000D03*
X51640000Y-84550000D03*
X51140000Y-84550000D03*
D34*
X50190000Y-85500000D03*
X50190000Y-86000000D03*
X50190000Y-86500000D03*
X50190000Y-87000000D03*
X50190000Y-87500000D03*
X50190000Y-88000000D03*
X50190000Y-88500000D03*
D35*
X52640000Y-87000000D03*
%TD*%
D21*
%TO.C,C12*%
X46289000Y-81910500D03*
X48039000Y-81910500D03*
%TD*%
D17*
%TO.C,R9*%
X67960500Y-93145500D03*
X69785500Y-93145500D03*
%TD*%
%TO.C,R11*%
X68817500Y-91575500D03*
X70642500Y-91575500D03*
%TD*%
D21*
%TO.C,C26*%
X61657000Y-78055000D03*
X63407000Y-78055000D03*
%TD*%
D15*
%TO.C,C3*%
X39008000Y-81414000D03*
X39008000Y-83164000D03*
%TD*%
D16*
%TO.C,C37*%
X71626000Y-94905000D03*
X71626000Y-93155000D03*
%TD*%
D15*
%TO.C,C42*%
X55918000Y-93415832D03*
X55918000Y-95165832D03*
%TD*%
D17*
%TO.C,R6*%
X46232500Y-88381000D03*
X48057500Y-88381000D03*
%TD*%
D22*
%TO.C,R32*%
X82060500Y-86477500D03*
X80235500Y-86477500D03*
%TD*%
D28*
%TO.C,R22*%
X76884000Y-84995500D03*
X76884000Y-83170500D03*
%TD*%
D16*
%TO.C,C16*%
X71989000Y-78107000D03*
X71989000Y-76357000D03*
%TD*%
D20*
%TO.C,C5*%
X45381000Y-93456500D03*
X43631000Y-93456500D03*
%TD*%
D15*
%TO.C,C24*%
X76840000Y-86706000D03*
X76840000Y-88456000D03*
%TD*%
D22*
%TO.C,R30*%
X60110500Y-78804000D03*
X58285500Y-78804000D03*
%TD*%
D16*
%TO.C,C33*%
X73505000Y-81609250D03*
X73505000Y-79859250D03*
%TD*%
D21*
%TO.C,C25*%
X67997000Y-90043500D03*
X69747000Y-90043500D03*
%TD*%
%TO.C,C21*%
X28947000Y-97117000D03*
X30697000Y-97117000D03*
%TD*%
D29*
%TO.C,U3*%
X61785000Y-80883000D03*
X60515000Y-80883000D03*
X59245000Y-80883000D03*
X57975000Y-80883000D03*
X57975000Y-85833000D03*
X59245000Y-85833000D03*
X60515000Y-85833000D03*
X61785000Y-85833000D03*
%TD*%
D32*
%TO.C,PJ2*%
X94002500Y-95892000D03*
X90402500Y-95892000D03*
X86102500Y-88892000D03*
X84302500Y-95892000D03*
X93102500Y-88892000D03*
%TD*%
D31*
%TO.C,F1*%
X35087500Y-83038000D03*
X33512500Y-83038000D03*
%TD*%
D19*
%TO.C,FB2*%
X50043500Y-78714000D03*
X51618500Y-78714000D03*
%TD*%
D36*
%TO.C,U5*%
X40420000Y-77290000D03*
X40420000Y-78240000D03*
X40420000Y-79190000D03*
X42695000Y-79190000D03*
X42695000Y-77290000D03*
%TD*%
D27*
%TO.C,R15*%
X78365000Y-86585500D03*
X78365000Y-88410500D03*
%TD*%
D21*
%TO.C,C1*%
X36759000Y-93566000D03*
X38509000Y-93566000D03*
%TD*%
D37*
%TO.C,U2*%
X40598000Y-83002500D03*
X42498000Y-83002500D03*
X41548000Y-81127500D03*
%TD*%
D21*
%TO.C,C7*%
X53689000Y-80325500D03*
X55439000Y-80325500D03*
%TD*%
D38*
%TO.C,J3*%
X33735000Y-86585000D03*
X33735000Y-92365000D03*
D39*
X34855000Y-86275000D03*
X34855000Y-87075000D03*
D40*
X34855000Y-88225000D03*
X34855000Y-89225000D03*
X34855000Y-89725000D03*
X34855000Y-90725000D03*
D39*
X34855000Y-91875000D03*
X34855000Y-92675000D03*
X34855000Y-92675000D03*
X34855000Y-91875000D03*
D40*
X34855000Y-91225000D03*
X34855000Y-90225000D03*
X34855000Y-88725000D03*
X34855000Y-87725000D03*
D39*
X34855000Y-87075000D03*
X34855000Y-86275000D03*
D41*
X34255000Y-85155000D03*
D42*
X30055000Y-85155000D03*
D41*
X34255000Y-93795000D03*
D42*
X30055000Y-93795000D03*
%TD*%
D16*
%TO.C,C14*%
X71961500Y-81479000D03*
X71961500Y-79729000D03*
%TD*%
D17*
%TO.C,R17*%
X28998500Y-95578000D03*
X30823500Y-95578000D03*
%TD*%
D21*
%TO.C,C32*%
X73260000Y-91550000D03*
X75010000Y-91550000D03*
%TD*%
D22*
%TO.C,R25*%
X82060500Y-83251000D03*
X80235500Y-83251000D03*
%TD*%
D43*
%TO.C,J2*%
X32060000Y-78670000D03*
X32060000Y-79920000D03*
X32060000Y-81170000D03*
D44*
X28860000Y-76820000D03*
X28860000Y-83020000D03*
%TD*%
D27*
%TO.C,R1*%
X38635000Y-77590500D03*
X38635000Y-79415500D03*
%TD*%
D19*
%TO.C,FB3*%
X53769500Y-78750000D03*
X55344500Y-78750000D03*
%TD*%
D20*
%TO.C,C39*%
X53385000Y-96797328D03*
X51635000Y-96797328D03*
%TD*%
D17*
%TO.C,R13*%
X67893500Y-88409500D03*
X69718500Y-88409500D03*
%TD*%
D45*
%TO.C,D3*%
X37066000Y-83447500D03*
X37066000Y-81872500D03*
%TD*%
D20*
%TO.C,C40*%
X50755500Y-95259916D03*
X49005500Y-95259916D03*
%TD*%
D28*
%TO.C,R8*%
X66659500Y-78692500D03*
X66659500Y-76867500D03*
%TD*%
%TO.C,R10*%
X64954000Y-81569000D03*
X64954000Y-79744000D03*
%TD*%
%LPD*%
M02*
