M48
; DRILL file {KiCad 9.0.7} date 2026-03-05T15:15:48+0800
; FORMAT={-:-/ absolute / inch / decimal}
; #@! TF.CreationDate,2026-03-05T15:15:48+08:00
; #@! TF.GenerationSoftware,Kicad,Pcbnew,9.0.7
; #@! TF.FileFunction,Plated,1,2,PTH
FMAT,2
INCH
; #@! TA.AperFunction,Plated,PTH,ViaDrill
T1C0.0118
; #@! TA.AperFunction,Plated,PTH,ViaDrill
T2C0.0197
; #@! TA.AperFunction,Plated,PTH,ComponentDrill
T3C0.0236
%
G90
G05
T1
X1.2622Y-3.0972
X1.2622Y-3.1957
X1.2992Y-3.4626
X1.4213Y-3.4744
X1.5354Y-3.4291
X1.5409Y-3.5772
X1.5881Y-3.5404
X1.6487Y-3.5395
X1.6654Y-3.6024
X1.892Y-3.3491
X1.9055Y-3.5512
X2.0039Y-3.5236
X2.0197Y-3.2913
X2.0953Y-3.5579
X2.1378Y-3.5217
X2.1713Y-3.5098
X2.187Y-3.4154
X2.2797Y-3.6779
X2.2825Y-3.3793
X2.3297Y-3.483
X2.3325Y-3.1844
X2.4288Y-3.6822
X2.4298Y-3.3816
T2
X1.2085Y-3.8235
X1.2135Y-3.7629
X1.3814Y-3.2692
X1.3893Y-3.7612
X1.3893Y-3.821
X1.4252Y-3.4331
X1.4252Y-3.6142
X1.4554Y-3.1255
X1.498Y-3.7465
X1.5161Y-3.6837
X1.5357Y-3.2742
X1.5846Y-3.8134
X1.5929Y-3.3429
X1.5983Y-3.2678
X1.6339Y-3.0798
X1.6487Y-3.4677
X1.6513Y-3.6843
X1.6571Y-3.7785
X1.7468Y-3.1196
X1.7867Y-3.6794
X1.8224Y-3.2248
X1.8224Y-3.29
X1.8259Y-3.1651
X1.9294Y-3.7504
X1.9653Y-3.2189
X1.9694Y-3.158
X2.0329Y-3.8109
X2.0724Y-3.4252
X2.1137Y-3.1624
X2.1172Y-3.2221
X2.1516Y-3.6496
X2.1693Y-3.5787
X2.2791Y-3.4843
X2.2818Y-3.193
X2.2947Y-3.1025
X2.4963Y-3.073
X2.563Y-3.0709
X2.673Y-3.4807
X2.6759Y-3.3291
X2.6761Y-3.2715
X2.677Y-3.545
X2.6811Y-3.187
X2.7611Y-3.0233
X2.8199Y-3.6675
X2.8342Y-3.0062
X2.8805Y-3.6644
X2.8843Y-3.6043
X2.8939Y-3.1441
X3.1614Y-3.5732
X3.1614Y-3.7465
X3.1983Y-3.1278
X3.6655Y-3.5165
X3.6733Y-3.0598
X3.7009Y-3.7921
X3.7088Y-3.3354
T3
G00X1.199Y-3.3526
M15
G01X1.1675Y-3.3526
M16
G05
G00X1.199Y-3.6927
M15
G01X1.1675Y-3.6927
M16
G05
G00X1.3703Y-3.3526
M15
G01X1.327Y-3.3526
M16
G05
G00X1.3703Y-3.6927
M15
G01X1.327Y-3.6927
M16
G05
M30
