%TF.GenerationSoftware,KiCad,Pcbnew,9.0.7*%
%TF.CreationDate,2026-03-05T15:15:48+08:00*%
%TF.ProjectId,HSDAC,48534441-432e-46b6-9963-61645f706362,rev?*%
%TF.SameCoordinates,Original*%
%TF.FileFunction,Soldermask,Top*%
%TF.FilePolarity,Negative*%
%FSLAX46Y46*%
G04 Gerber Fmt 4.6, Leading zero omitted, Abs format (unit mm)*
G04 Created by KiCad (PCBNEW 9.0.7) date 2026-03-05 15:15:48*
%MOMM*%
%LPD*%
G01*
G04 APERTURE LIST*
G04 Aperture macros list*
%AMRoundRect*
0 Rectangle with rounded corners*
0 $1 Rounding radius*
0 $2 $3 $4 $5 $6 $7 $8 $9 X,Y pos of 4 corners*
0 Add a 4 corners polygon primitive as box body*
4,1,4,$2,$3,$4,$5,$6,$7,$8,$9,$2,$3,0*
0 Add four circle primitives for the rounded corners*
1,1,$1+$1,$2,$3*
1,1,$1+$1,$4,$5*
1,1,$1+$1,$6,$7*
1,1,$1+$1,$8,$9*
0 Add four rect primitives between the rounded corners*
20,1,$1+$1,$2,$3,$4,$5,0*
20,1,$1+$1,$4,$5,$6,$7,0*
20,1,$1+$1,$6,$7,$8,$9,0*
20,1,$1+$1,$8,$9,$2,$3,0*%
G04 Aperture macros list end*
%ADD10RoundRect,0.237500X-0.237500X0.287500X-0.237500X-0.287500X0.237500X-0.287500X0.237500X0.287500X0*%
%ADD11RoundRect,0.237500X0.237500X-0.287500X0.237500X0.287500X-0.237500X0.287500X-0.237500X-0.287500X0*%
%ADD12RoundRect,0.237500X-0.250000X-0.237500X0.250000X-0.237500X0.250000X0.237500X-0.250000X0.237500X0*%
%ADD13RoundRect,0.100000X0.637500X0.100000X-0.637500X0.100000X-0.637500X-0.100000X0.637500X-0.100000X0*%
%ADD14RoundRect,0.218750X-0.218750X-0.256250X0.218750X-0.256250X0.218750X0.256250X-0.218750X0.256250X0*%
%ADD15RoundRect,0.237500X0.287500X0.237500X-0.287500X0.237500X-0.287500X-0.237500X0.287500X-0.237500X0*%
%ADD16RoundRect,0.237500X-0.287500X-0.237500X0.287500X-0.237500X0.287500X0.237500X-0.287500X0.237500X0*%
%ADD17RoundRect,0.237500X0.250000X0.237500X-0.250000X0.237500X-0.250000X-0.237500X0.250000X-0.237500X0*%
%ADD18RoundRect,0.250000X-0.450000X-0.350000X0.450000X-0.350000X0.450000X0.350000X-0.450000X0.350000X0*%
%ADD19R,0.900000X1.700000*%
%ADD20RoundRect,0.250000X-1.250000X-0.550000X1.250000X-0.550000X1.250000X0.550000X-1.250000X0.550000X0*%
%ADD21R,0.600000X1.200000*%
%ADD22RoundRect,0.237500X-0.237500X0.250000X-0.237500X-0.250000X0.237500X-0.250000X0.237500X0.250000X0*%
%ADD23RoundRect,0.237500X0.237500X-0.250000X0.237500X0.250000X-0.237500X0.250000X-0.237500X-0.250000X0*%
%ADD24RoundRect,0.150000X-0.150000X0.825000X-0.150000X-0.825000X0.150000X-0.825000X0.150000X0.825000X0*%
%ADD25RoundRect,0.250000X-0.550000X1.250000X-0.550000X-1.250000X0.550000X-1.250000X0.550000X1.250000X0*%
%ADD26RoundRect,0.218750X0.218750X0.256250X-0.218750X0.256250X-0.218750X-0.256250X0.218750X-0.256250X0*%
%ADD27R,1.500000X3.000000*%
%ADD28R,0.300000X0.900000*%
%ADD29R,0.900000X0.300000*%
%ADD30R,3.600000X3.600000*%
%ADD31RoundRect,0.150000X-0.512500X-0.150000X0.512500X-0.150000X0.512500X0.150000X-0.512500X0.150000X0*%
%ADD32RoundRect,0.150000X0.150000X-0.587500X0.150000X0.587500X-0.150000X0.587500X-0.150000X-0.587500X0*%
%ADD33R,1.240000X0.600000*%
%ADD34R,1.240000X0.300000*%
%ADD35O,2.100000X1.000000*%
%ADD36O,1.800000X1.000000*%
%ADD37RoundRect,0.150000X-0.700000X0.150000X-0.700000X-0.150000X0.700000X-0.150000X0.700000X0.150000X0*%
%ADD38RoundRect,0.250000X-1.100000X0.250000X-1.100000X-0.250000X1.100000X-0.250000X1.100000X0.250000X0*%
%ADD39RoundRect,0.218750X0.256250X-0.218750X0.256250X0.218750X-0.256250X0.218750X-0.256250X-0.218750X0*%
G04 APERTURE END LIST*
D10*
%TO.C,C34*%
X44367500Y-77487500D03*
X44367500Y-79237500D03*
%TD*%
D11*
%TO.C,C38*%
X73165000Y-94825000D03*
X73165000Y-93075000D03*
%TD*%
D12*
%TO.C,R7*%
X46232500Y-85067000D03*
X48057500Y-85067000D03*
%TD*%
D11*
%TO.C,C22*%
X78373000Y-85022000D03*
X78373000Y-83272000D03*
%TD*%
D12*
%TO.C,R29*%
X58285500Y-77321000D03*
X60110500Y-77321000D03*
%TD*%
%TO.C,R3*%
X33463500Y-97052500D03*
X35288500Y-97052500D03*
%TD*%
D10*
%TO.C,C27*%
X36967500Y-77638500D03*
X36967500Y-79388500D03*
%TD*%
D13*
%TO.C,U1*%
X43412500Y-92160000D03*
X43412500Y-91510000D03*
X43412500Y-90860000D03*
X43412500Y-90210000D03*
X43412500Y-89560000D03*
X43412500Y-88910000D03*
X43412500Y-88260000D03*
X43412500Y-87610000D03*
X43412500Y-86960000D03*
X43412500Y-86310000D03*
X37687500Y-86310000D03*
X37687500Y-86960000D03*
X37687500Y-87610000D03*
X37687500Y-88260000D03*
X37687500Y-88910000D03*
X37687500Y-89560000D03*
X37687500Y-90210000D03*
X37687500Y-90860000D03*
X37687500Y-91510000D03*
X37687500Y-92160000D03*
%TD*%
D14*
%TO.C,FB1*%
X46414500Y-78710000D03*
X47989500Y-78710000D03*
%TD*%
D15*
%TO.C,C6*%
X48039000Y-83567000D03*
X46289000Y-83567000D03*
%TD*%
D16*
%TO.C,C2*%
X40193000Y-93581000D03*
X41943000Y-93581000D03*
%TD*%
D12*
%TO.C,R21*%
X67866000Y-86061500D03*
X69691000Y-86061500D03*
%TD*%
D17*
%TO.C,R31*%
X82061500Y-87994500D03*
X80236500Y-87994500D03*
%TD*%
D16*
%TO.C,C8*%
X53778000Y-81842500D03*
X55528000Y-81842500D03*
%TD*%
D18*
%TO.C,X1*%
X38050000Y-96860000D03*
X40250000Y-96860000D03*
X40250000Y-95160000D03*
X38050000Y-95160000D03*
%TD*%
D16*
%TO.C,C15*%
X68381000Y-76793000D03*
X70131000Y-76793000D03*
%TD*%
%TO.C,C11*%
X46378000Y-80393500D03*
X48128000Y-80393500D03*
%TD*%
D19*
%TO.C,SW1*%
X42090000Y-95975000D03*
X46540000Y-95975000D03*
%TD*%
D20*
%TO.C,C36*%
X76836000Y-79446000D03*
X81236000Y-79446000D03*
%TD*%
D21*
%TO.C,PS2*%
X52422584Y-95154832D03*
X53372584Y-95154832D03*
X54322584Y-95154832D03*
X54322584Y-92654832D03*
X53372584Y-92654832D03*
X52422584Y-92654832D03*
%TD*%
D16*
%TO.C,C10*%
X49919000Y-81760500D03*
X51669000Y-81760500D03*
%TD*%
D22*
%TO.C,R18*%
X35511000Y-79379500D03*
X35511000Y-81204500D03*
%TD*%
D12*
%TO.C,R33*%
X57608172Y-95662000D03*
X59433172Y-95662000D03*
%TD*%
D15*
%TO.C,C4*%
X42209000Y-84909500D03*
X40459000Y-84909500D03*
%TD*%
D11*
%TO.C,C19*%
X64932000Y-89833500D03*
X64932000Y-88083500D03*
%TD*%
D23*
%TO.C,R14*%
X63377000Y-89939000D03*
X63377000Y-88114000D03*
%TD*%
D12*
%TO.C,R2*%
X33463500Y-95535500D03*
X35288500Y-95535500D03*
%TD*%
D22*
%TO.C,R19*%
X73566500Y-76412000D03*
X73566500Y-78237000D03*
%TD*%
D16*
%TO.C,C9*%
X50023000Y-80212000D03*
X51773000Y-80212000D03*
%TD*%
%TO.C,C23*%
X67969000Y-84559500D03*
X69719000Y-84559500D03*
%TD*%
D21*
%TO.C,PS1*%
X70369500Y-78422000D03*
X69419500Y-78422000D03*
X68469500Y-78422000D03*
X68469500Y-80922000D03*
X69419500Y-80922000D03*
X70369500Y-80922000D03*
%TD*%
D24*
%TO.C,U4*%
X61715000Y-88468000D03*
X60445000Y-88468000D03*
X59175000Y-88468000D03*
X57905000Y-88468000D03*
X57905000Y-93418000D03*
X59175000Y-93418000D03*
X60445000Y-93418000D03*
X61715000Y-93418000D03*
%TD*%
D12*
%TO.C,R23*%
X67973500Y-83095500D03*
X69798500Y-83095500D03*
%TD*%
D10*
%TO.C,C18*%
X63311000Y-83168500D03*
X63311000Y-84918500D03*
%TD*%
D11*
%TO.C,C17*%
X63311000Y-81487000D03*
X63311000Y-79737000D03*
%TD*%
D25*
%TO.C,C35*%
X80300000Y-90760000D03*
X80300000Y-95160000D03*
%TD*%
D26*
%TO.C,FB4*%
X76267500Y-93993000D03*
X74692500Y-93993000D03*
%TD*%
D22*
%TO.C,R16*%
X64954000Y-91446000D03*
X64954000Y-93271000D03*
%TD*%
D12*
%TO.C,R34*%
X45631500Y-91758500D03*
X47456500Y-91758500D03*
%TD*%
D17*
%TO.C,R24*%
X82060500Y-84858500D03*
X80235500Y-84858500D03*
%TD*%
D22*
%TO.C,R20*%
X66402000Y-84607000D03*
X66402000Y-86432000D03*
%TD*%
D24*
%TO.C,U7*%
X75235000Y-84521000D03*
X73965000Y-84521000D03*
X72695000Y-84521000D03*
X71425000Y-84521000D03*
X71425000Y-89471000D03*
X72695000Y-89471000D03*
X73965000Y-89471000D03*
X75235000Y-89471000D03*
%TD*%
D12*
%TO.C,R5*%
X45232500Y-89892000D03*
X47057500Y-89892000D03*
%TD*%
D27*
%TO.C,PJ1*%
X94202500Y-84720000D03*
X90602500Y-84720000D03*
X86302500Y-77720000D03*
X84502500Y-84720000D03*
X93302500Y-77720000D03*
%TD*%
D16*
%TO.C,C13*%
X37021000Y-84919000D03*
X38771000Y-84919000D03*
%TD*%
D10*
%TO.C,C20*%
X63420000Y-91574000D03*
X63420000Y-93324000D03*
%TD*%
D22*
%TO.C,R12*%
X64877000Y-83178000D03*
X64877000Y-85003000D03*
%TD*%
D12*
%TO.C,R4*%
X46232500Y-86602000D03*
X48057500Y-86602000D03*
%TD*%
D28*
%TO.C,IC1*%
X51140000Y-89450000D03*
X51640000Y-89450000D03*
X52140000Y-89450000D03*
X52640000Y-89450000D03*
X53140000Y-89450000D03*
X53640000Y-89450000D03*
X54140000Y-89450000D03*
D29*
X55090000Y-88500000D03*
X55090000Y-88000000D03*
X55090000Y-87500000D03*
X55090000Y-87000000D03*
X55090000Y-86500000D03*
X55090000Y-86000000D03*
X55090000Y-85500000D03*
D28*
X54140000Y-84550000D03*
X53640000Y-84550000D03*
X53140000Y-84550000D03*
X52640000Y-84550000D03*
X52140000Y-84550000D03*
X51640000Y-84550000D03*
X51140000Y-84550000D03*
D29*
X50190000Y-85500000D03*
X50190000Y-86000000D03*
X50190000Y-86500000D03*
X50190000Y-87000000D03*
X50190000Y-87500000D03*
X50190000Y-88000000D03*
X50190000Y-88500000D03*
D30*
X52640000Y-87000000D03*
%TD*%
D16*
%TO.C,C12*%
X46289000Y-81910500D03*
X48039000Y-81910500D03*
%TD*%
D12*
%TO.C,R9*%
X67960500Y-93145500D03*
X69785500Y-93145500D03*
%TD*%
%TO.C,R11*%
X68817500Y-91575500D03*
X70642500Y-91575500D03*
%TD*%
D16*
%TO.C,C26*%
X61657000Y-78055000D03*
X63407000Y-78055000D03*
%TD*%
D10*
%TO.C,C3*%
X39008000Y-81414000D03*
X39008000Y-83164000D03*
%TD*%
D11*
%TO.C,C37*%
X71626000Y-94905000D03*
X71626000Y-93155000D03*
%TD*%
D10*
%TO.C,C42*%
X55918000Y-93415832D03*
X55918000Y-95165832D03*
%TD*%
D12*
%TO.C,R6*%
X46232500Y-88381000D03*
X48057500Y-88381000D03*
%TD*%
D17*
%TO.C,R32*%
X82060500Y-86477500D03*
X80235500Y-86477500D03*
%TD*%
D23*
%TO.C,R22*%
X76884000Y-84995500D03*
X76884000Y-83170500D03*
%TD*%
D11*
%TO.C,C16*%
X71989000Y-78107000D03*
X71989000Y-76357000D03*
%TD*%
D15*
%TO.C,C5*%
X45381000Y-93456500D03*
X43631000Y-93456500D03*
%TD*%
D10*
%TO.C,C24*%
X76840000Y-86706000D03*
X76840000Y-88456000D03*
%TD*%
D17*
%TO.C,R30*%
X60110500Y-78804000D03*
X58285500Y-78804000D03*
%TD*%
D11*
%TO.C,C33*%
X73505000Y-81609250D03*
X73505000Y-79859250D03*
%TD*%
D16*
%TO.C,C25*%
X67997000Y-90043500D03*
X69747000Y-90043500D03*
%TD*%
%TO.C,C21*%
X28947000Y-97117000D03*
X30697000Y-97117000D03*
%TD*%
D24*
%TO.C,U3*%
X61785000Y-80883000D03*
X60515000Y-80883000D03*
X59245000Y-80883000D03*
X57975000Y-80883000D03*
X57975000Y-85833000D03*
X59245000Y-85833000D03*
X60515000Y-85833000D03*
X61785000Y-85833000D03*
%TD*%
D27*
%TO.C,PJ2*%
X94002500Y-95892000D03*
X90402500Y-95892000D03*
X86102500Y-88892000D03*
X84302500Y-95892000D03*
X93102500Y-88892000D03*
%TD*%
D26*
%TO.C,F1*%
X35087500Y-83038000D03*
X33512500Y-83038000D03*
%TD*%
D14*
%TO.C,FB2*%
X50043500Y-78714000D03*
X51618500Y-78714000D03*
%TD*%
D31*
%TO.C,U5*%
X40420000Y-77290000D03*
X40420000Y-78240000D03*
X40420000Y-79190000D03*
X42695000Y-79190000D03*
X42695000Y-77290000D03*
%TD*%
D22*
%TO.C,R15*%
X78365000Y-86585500D03*
X78365000Y-88410500D03*
%TD*%
D16*
%TO.C,C1*%
X36759000Y-93566000D03*
X38509000Y-93566000D03*
%TD*%
D32*
%TO.C,U2*%
X40598000Y-83002500D03*
X42498000Y-83002500D03*
X41548000Y-81127500D03*
%TD*%
D16*
%TO.C,C7*%
X53689000Y-80325500D03*
X55439000Y-80325500D03*
%TD*%
D33*
%TO.C,J3*%
X34855000Y-86275000D03*
X34855000Y-87075000D03*
D34*
X34855000Y-88225000D03*
X34855000Y-89225000D03*
X34855000Y-89725000D03*
X34855000Y-90725000D03*
D33*
X34855000Y-91875000D03*
X34855000Y-92675000D03*
X34855000Y-92675000D03*
X34855000Y-91875000D03*
D34*
X34855000Y-91225000D03*
X34855000Y-90225000D03*
X34855000Y-88725000D03*
X34855000Y-87725000D03*
D33*
X34855000Y-87075000D03*
X34855000Y-86275000D03*
D35*
X34255000Y-85155000D03*
D36*
X30055000Y-85155000D03*
D35*
X34255000Y-93795000D03*
D36*
X30055000Y-93795000D03*
%TD*%
D11*
%TO.C,C14*%
X71961500Y-81479000D03*
X71961500Y-79729000D03*
%TD*%
D12*
%TO.C,R17*%
X28998500Y-95578000D03*
X30823500Y-95578000D03*
%TD*%
D16*
%TO.C,C32*%
X73260000Y-91550000D03*
X75010000Y-91550000D03*
%TD*%
D17*
%TO.C,R25*%
X82060500Y-83251000D03*
X80235500Y-83251000D03*
%TD*%
D37*
%TO.C,J2*%
X32060000Y-78670000D03*
X32060000Y-79920000D03*
X32060000Y-81170000D03*
D38*
X28860000Y-76820000D03*
X28860000Y-83020000D03*
%TD*%
D22*
%TO.C,R1*%
X38635000Y-77590500D03*
X38635000Y-79415500D03*
%TD*%
D14*
%TO.C,FB3*%
X53769500Y-78750000D03*
X55344500Y-78750000D03*
%TD*%
D15*
%TO.C,C39*%
X53385000Y-96797328D03*
X51635000Y-96797328D03*
%TD*%
D12*
%TO.C,R13*%
X67893500Y-88409500D03*
X69718500Y-88409500D03*
%TD*%
D39*
%TO.C,D3*%
X37066000Y-83447500D03*
X37066000Y-81872500D03*
%TD*%
D15*
%TO.C,C40*%
X50755500Y-95259916D03*
X49005500Y-95259916D03*
%TD*%
D23*
%TO.C,R8*%
X66659500Y-78692500D03*
X66659500Y-76867500D03*
%TD*%
%TO.C,R10*%
X64954000Y-81569000D03*
X64954000Y-79744000D03*
%TD*%
M02*
