%TF.GenerationSoftware,KiCad,Pcbnew,9.0.7*%
%TF.CreationDate,2026-03-05T15:15:48+08:00*%
%TF.ProjectId,HSDAC,48534441-432e-46b6-9963-61645f706362,rev?*%
%TF.SameCoordinates,Original*%
%TF.FileFunction,Legend,Bot*%
%TF.FilePolarity,Positive*%
%FSLAX46Y46*%
G04 Gerber Fmt 4.6, Leading zero omitted, Abs format (unit mm)*
G04 Created by KiCad (PCBNEW 9.0.7) date 2026-03-05 15:15:48*
%MOMM*%
%LPD*%
G01*
G04 APERTURE LIST*
G04 Aperture macros list*
%AMRoundRect*
0 Rectangle with rounded corners*
0 $1 Rounding radius*
0 $2 $3 $4 $5 $6 $7 $8 $9 X,Y pos of 4 corners*
0 Add a 4 corners polygon primitive as box body*
4,1,4,$2,$3,$4,$5,$6,$7,$8,$9,$2,$3,0*
0 Add four circle primitives for the rounded corners*
1,1,$1+$1,$2,$3*
1,1,$1+$1,$4,$5*
1,1,$1+$1,$6,$7*
1,1,$1+$1,$8,$9*
0 Add four rect primitives between the rounded corners*
20,1,$1+$1,$2,$3,$4,$5,0*
20,1,$1+$1,$4,$5,$6,$7,0*
20,1,$1+$1,$6,$7,$8,$9,0*
20,1,$1+$1,$8,$9,$2,$3,0*%
G04 Aperture macros list end*
%ADD10C,0.120000*%
%ADD11C,0.650000*%
%ADD12O,2.100000X1.000000*%
%ADD13O,1.800000X1.000000*%
%ADD14RoundRect,0.237500X0.237500X-0.287500X0.237500X0.287500X-0.237500X0.287500X-0.237500X-0.287500X0*%
%ADD15RoundRect,0.237500X0.287500X0.237500X-0.287500X0.237500X-0.287500X-0.237500X0.287500X-0.237500X0*%
%ADD16RoundRect,0.237500X0.237500X-0.250000X0.237500X0.250000X-0.237500X0.250000X-0.237500X-0.250000X0*%
%ADD17RoundRect,0.237500X-0.237500X0.287500X-0.237500X-0.287500X0.237500X-0.287500X0.237500X0.287500X0*%
%ADD18RoundRect,0.237500X-0.287500X-0.237500X0.287500X-0.237500X0.287500X0.237500X-0.287500X0.237500X0*%
G04 APERTURE END LIST*
D10*
%TO.C,C29*%
X57259500Y-78575000D02*
X58656500Y-78575000D01*
X57259500Y-81877000D02*
X57259500Y-78575000D01*
X58656500Y-78575000D02*
X58656500Y-81877000D01*
X58656500Y-81877000D02*
X57259500Y-81877000D01*
%TO.C,C31*%
X55363000Y-87802500D02*
X58665000Y-87802500D01*
X55363000Y-89199500D02*
X55363000Y-87802500D01*
X58665000Y-87802500D02*
X58665000Y-89199500D01*
X58665000Y-89199500D02*
X55363000Y-89199500D01*
%TO.C,R27*%
X39638000Y-87362000D02*
X41035000Y-87362000D01*
X39638000Y-90664000D02*
X39638000Y-87362000D01*
X41035000Y-87362000D02*
X41035000Y-90664000D01*
X41035000Y-90664000D02*
X39638000Y-90664000D01*
%TO.C,R26*%
X52516000Y-89706500D02*
X53913000Y-89706500D01*
X52516000Y-93008500D02*
X52516000Y-89706500D01*
X53913000Y-89706500D02*
X53913000Y-93008500D01*
X53913000Y-93008500D02*
X52516000Y-93008500D01*
%TO.C,R28*%
X41179500Y-87340000D02*
X42576500Y-87340000D01*
X41179500Y-90642000D02*
X41179500Y-87340000D01*
X42576500Y-87340000D02*
X42576500Y-90642000D01*
X42576500Y-90642000D02*
X41179500Y-90642000D01*
%TO.C,C43*%
X57267500Y-92660000D02*
X58664500Y-92660000D01*
X57267500Y-95962000D02*
X57267500Y-92660000D01*
X58664500Y-92660000D02*
X58664500Y-95962000D01*
X58664500Y-95962000D02*
X57267500Y-95962000D01*
%TO.C,C41*%
X57452000Y-85177000D02*
X60754000Y-85177000D01*
X57452000Y-86574000D02*
X57452000Y-85177000D01*
X60754000Y-85177000D02*
X60754000Y-86574000D01*
X60754000Y-86574000D02*
X57452000Y-86574000D01*
%TO.C,C30*%
X60915000Y-92830000D02*
X64217000Y-92830000D01*
X60915000Y-94227000D02*
X60915000Y-92830000D01*
X64217000Y-92830000D02*
X64217000Y-94227000D01*
X64217000Y-94227000D02*
X60915000Y-94227000D01*
%TO.C,C28*%
X60941000Y-85193250D02*
X64243000Y-85193250D01*
X60941000Y-86590250D02*
X60941000Y-85193250D01*
X64243000Y-85193250D02*
X64243000Y-86590250D01*
X64243000Y-86590250D02*
X60941000Y-86590250D01*
%TD*%
%LPC*%
D11*
%TO.C,J3*%
X33735000Y-86585000D03*
X33735000Y-92365000D03*
D12*
X34255000Y-85155000D03*
D13*
X30055000Y-85155000D03*
D12*
X34255000Y-93795000D03*
D13*
X30055000Y-93795000D03*
%TD*%
D14*
%TO.C,C29*%
X57958000Y-81101000D03*
X57958000Y-79351000D03*
%TD*%
D15*
%TO.C,C31*%
X57889000Y-88501000D03*
X56139000Y-88501000D03*
%TD*%
D16*
%TO.C,R27*%
X40336500Y-89925500D03*
X40336500Y-88100500D03*
%TD*%
%TO.C,R26*%
X53214500Y-92270000D03*
X53214500Y-90445000D03*
%TD*%
%TO.C,R28*%
X41878000Y-89903500D03*
X41878000Y-88078500D03*
%TD*%
D17*
%TO.C,C43*%
X57966000Y-93436000D03*
X57966000Y-95186000D03*
%TD*%
D18*
%TO.C,C41*%
X58228000Y-85875500D03*
X59978000Y-85875500D03*
%TD*%
D15*
%TO.C,C30*%
X63441000Y-93528500D03*
X61691000Y-93528500D03*
%TD*%
%TO.C,C28*%
X63467000Y-85891750D03*
X61717000Y-85891750D03*
%TD*%
%LPD*%
M02*
