%TF.GenerationSoftware,KiCad,Pcbnew,9.0.7*%
%TF.CreationDate,2026-03-05T15:15:48+08:00*%
%TF.ProjectId,HSDAC,48534441-432e-46b6-9963-61645f706362,rev?*%
%TF.SameCoordinates,Original*%
%TF.FileFunction,Copper,L2,Bot*%
%TF.FilePolarity,Positive*%
%FSLAX46Y46*%
G04 Gerber Fmt 4.6, Leading zero omitted, Abs format (unit mm)*
G04 Created by KiCad (PCBNEW 9.0.7) date 2026-03-05 15:15:48*
%MOMM*%
%LPD*%
G01*
G04 APERTURE LIST*
G04 Aperture macros list*
%AMRoundRect*
0 Rectangle with rounded corners*
0 $1 Rounding radius*
0 $2 $3 $4 $5 $6 $7 $8 $9 X,Y pos of 4 corners*
0 Add a 4 corners polygon primitive as box body*
4,1,4,$2,$3,$4,$5,$6,$7,$8,$9,$2,$3,0*
0 Add four circle primitives for the rounded corners*
1,1,$1+$1,$2,$3*
1,1,$1+$1,$4,$5*
1,1,$1+$1,$6,$7*
1,1,$1+$1,$8,$9*
0 Add four rect primitives between the rounded corners*
20,1,$1+$1,$2,$3,$4,$5,0*
20,1,$1+$1,$4,$5,$6,$7,0*
20,1,$1+$1,$6,$7,$8,$9,0*
20,1,$1+$1,$8,$9,$2,$3,0*%
G04 Aperture macros list end*
%TA.AperFunction,HeatsinkPad*%
%ADD10O,2.100000X1.000000*%
%TD*%
%TA.AperFunction,HeatsinkPad*%
%ADD11O,1.800000X1.000000*%
%TD*%
%TA.AperFunction,SMDPad,CuDef*%
%ADD12RoundRect,0.237500X0.237500X-0.287500X0.237500X0.287500X-0.237500X0.287500X-0.237500X-0.287500X0*%
%TD*%
%TA.AperFunction,SMDPad,CuDef*%
%ADD13RoundRect,0.237500X0.287500X0.237500X-0.287500X0.237500X-0.287500X-0.237500X0.287500X-0.237500X0*%
%TD*%
%TA.AperFunction,SMDPad,CuDef*%
%ADD14RoundRect,0.237500X0.237500X-0.250000X0.237500X0.250000X-0.237500X0.250000X-0.237500X-0.250000X0*%
%TD*%
%TA.AperFunction,SMDPad,CuDef*%
%ADD15RoundRect,0.237500X-0.237500X0.287500X-0.237500X-0.287500X0.237500X-0.287500X0.237500X0.287500X0*%
%TD*%
%TA.AperFunction,SMDPad,CuDef*%
%ADD16RoundRect,0.237500X-0.287500X-0.237500X0.287500X-0.237500X0.287500X0.237500X-0.287500X0.237500X0*%
%TD*%
%TA.AperFunction,ViaPad*%
%ADD17C,1.000000*%
%TD*%
%TA.AperFunction,ViaPad*%
%ADD18C,0.600000*%
%TD*%
%TA.AperFunction,Conductor*%
%ADD19C,0.500000*%
%TD*%
%TA.AperFunction,Conductor*%
%ADD20C,0.200000*%
%TD*%
G04 APERTURE END LIST*
D10*
%TO.P,J3,S1,SHIELD*%
%TO.N,Net-(J3-SHIELD)*%
X34255000Y-85155000D03*
D11*
X30055000Y-85155000D03*
D10*
X34255000Y-93795000D03*
D11*
X30055000Y-93795000D03*
%TD*%
D12*
%TO.P,C29,1*%
%TO.N,-5VA*%
X57958000Y-81101000D03*
%TO.P,C29,2*%
%TO.N,GND*%
X57958000Y-79351000D03*
%TD*%
D13*
%TO.P,C31,1*%
%TO.N,-5VA*%
X57889000Y-88501000D03*
%TO.P,C31,2*%
%TO.N,GND*%
X56139000Y-88501000D03*
%TD*%
D14*
%TO.P,R27,1*%
%TO.N,/SCL*%
X40336500Y-89925500D03*
%TO.P,R27,2*%
%TO.N,+3.3V*%
X40336500Y-88100500D03*
%TD*%
%TO.P,R26,1*%
%TO.N,GND*%
X53214500Y-92270000D03*
%TO.P,R26,2*%
%TO.N,Net-(IC1-ADDR)*%
X53214500Y-90445000D03*
%TD*%
%TO.P,R28,1*%
%TO.N,/SDA*%
X41878000Y-89903500D03*
%TO.P,R28,2*%
%TO.N,+3.3V*%
X41878000Y-88078500D03*
%TD*%
D15*
%TO.P,C43,1*%
%TO.N,/Vref*%
X57966000Y-93436000D03*
%TO.P,C43,2*%
%TO.N,GND*%
X57966000Y-95186000D03*
%TD*%
D16*
%TO.P,C41,1*%
%TO.N,/Vref*%
X58228000Y-85875500D03*
%TO.P,C41,2*%
%TO.N,GND*%
X59978000Y-85875500D03*
%TD*%
D13*
%TO.P,C30,1*%
%TO.N,GND*%
X63441000Y-93528500D03*
%TO.P,C30,2*%
%TO.N,+5VA*%
X61691000Y-93528500D03*
%TD*%
%TO.P,C28,1*%
%TO.N,GND*%
X63467000Y-85891750D03*
%TO.P,C28,2*%
%TO.N,+5VA*%
X61717000Y-85891750D03*
%TD*%
D17*
%TO.N,GND*%
X80300000Y-95160000D03*
X94202500Y-84720000D03*
X70131000Y-76793000D03*
X67997000Y-90043500D03*
X49005500Y-95259916D03*
X58285500Y-78804000D03*
X52640000Y-87000000D03*
X46289000Y-81910500D03*
X30697000Y-97117000D03*
X44367500Y-79237500D03*
X67969000Y-84559500D03*
X54650000Y-92700000D03*
X71626000Y-93155000D03*
X45381000Y-93456500D03*
X38050000Y-95160000D03*
X53689000Y-80325500D03*
X71989000Y-76357000D03*
X73505000Y-79859250D03*
X46289000Y-83567000D03*
X35288500Y-97052500D03*
X93102500Y-89320000D03*
X81236000Y-79446000D03*
X41500000Y-78227529D03*
X41943000Y-93581000D03*
D18*
X50900000Y-89500000D03*
D17*
X73260000Y-91550000D03*
D18*
X55550000Y-86750000D03*
D17*
X67893500Y-88409500D03*
D18*
X51300000Y-83600000D03*
D17*
X40598000Y-83002500D03*
X94002500Y-96320000D03*
X51635000Y-96797328D03*
D18*
X39140000Y-90860000D03*
X55150000Y-89150000D03*
D17*
X93302500Y-77720000D03*
X50023000Y-80212000D03*
X39008000Y-83164000D03*
X35288500Y-95535500D03*
X42090000Y-95975000D03*
X49919000Y-81760500D03*
X46378000Y-80393500D03*
X36967500Y-79388500D03*
X68100000Y-80950000D03*
X53778000Y-81842500D03*
X67973500Y-83095500D03*
X38509000Y-93566000D03*
X30823500Y-95578000D03*
X63407000Y-78055000D03*
D18*
X32060000Y-78670000D03*
D17*
X40250000Y-96860000D03*
X40459000Y-84909500D03*
X73165000Y-93075000D03*
%TO.N,+5V*%
X80300000Y-90760000D03*
X65100000Y-78000000D03*
%TO.N,+3.3V*%
X41878000Y-88078500D03*
D18*
%TO.N,/Vref*%
X57905000Y-93418000D03*
X59245000Y-80883000D03*
X59175000Y-88468000D03*
X57975000Y-85833000D03*
%TO.N,+5VA*%
X61717000Y-85891750D03*
X61691000Y-93528500D03*
%TO.N,/SCL*%
X40336500Y-89925500D03*
%TO.N,/RESETB*%
X48400000Y-90200000D03*
X42300000Y-91500000D03*
%TO.N,/SDA*%
X41878000Y-89903500D03*
%TO.N,Net-(IC1-ADDR)*%
X53220439Y-90371059D03*
%TO.N,Net-(IC1-XI(MCLK))*%
X54300000Y-89450000D03*
X48057500Y-85067000D03*
D17*
%TO.N,Net-(F1-Pad1)*%
X36200000Y-87200000D03*
X35087500Y-83038000D03*
X36200000Y-91800000D03*
D18*
%TO.N,/SWDIO*%
X39000000Y-87100000D03*
X32060000Y-81170000D03*
%TO.N,/SWCLK*%
X33000000Y-87950000D03*
X36100000Y-88250000D03*
D17*
%TO.N,-5VA*%
X55100000Y-90900000D03*
X57958000Y-81101000D03*
X57889000Y-88501000D03*
%TD*%
D19*
%TO.N,GND*%
X55799000Y-88501000D02*
X55150000Y-89150000D01*
X56139000Y-88501000D02*
X55799000Y-88501000D01*
%TO.N,+5V*%
X80300000Y-89550000D02*
X80300000Y-90760000D01*
X68900000Y-78150000D02*
X80300000Y-89550000D01*
X65250000Y-78150000D02*
X65100000Y-78000000D01*
X68900000Y-78150000D02*
X65250000Y-78150000D01*
%TO.N,+3.3V*%
X41878000Y-88078500D02*
X40358500Y-88078500D01*
X40358500Y-88078500D02*
X40336500Y-88100500D01*
%TO.N,/Vref*%
X59175000Y-92148000D02*
X57905000Y-93418000D01*
X59200000Y-83050000D02*
X59200000Y-80928000D01*
X57975000Y-85833000D02*
X57975000Y-84275000D01*
X59175000Y-88468000D02*
X59175000Y-92148000D01*
X57975000Y-84275000D02*
X59200000Y-83050000D01*
X59200000Y-80928000D02*
X59245000Y-80883000D01*
%TO.N,+5VA*%
X61717000Y-85891750D02*
X61717000Y-93502500D01*
X61717000Y-93502500D02*
X61691000Y-93528500D01*
D20*
%TO.N,/RESETB*%
X47100000Y-91500000D02*
X42300000Y-91500000D01*
X48400000Y-90200000D02*
X47100000Y-91500000D01*
%TO.N,Net-(IC1-XI(MCLK))*%
X48057500Y-85157500D02*
X48057500Y-85067000D01*
X54300000Y-89450000D02*
X54300000Y-85750000D01*
X54300000Y-85750000D02*
X53617000Y-85067000D01*
X48090000Y-85125000D02*
X48057500Y-85157500D01*
X53617000Y-85067000D02*
X48057500Y-85067000D01*
D19*
%TO.N,Net-(F1-Pad1)*%
X36511075Y-87499000D02*
X36499000Y-87499000D01*
X36950000Y-91050000D02*
X36950000Y-88562075D01*
X36200000Y-91800000D02*
X36950000Y-91050000D01*
X35900000Y-83850500D02*
X35087500Y-83038000D01*
X36499000Y-87499000D02*
X36200000Y-87200000D01*
X36951000Y-88561075D02*
X36951000Y-87938925D01*
X36951000Y-87938925D02*
X36511075Y-87499000D01*
X36950000Y-88562075D02*
X36951000Y-88561075D01*
X35900000Y-86900000D02*
X35900000Y-83850500D01*
X36200000Y-87200000D02*
X35900000Y-86900000D01*
D20*
%TO.N,/SWDIO*%
X37050000Y-85450000D02*
X37050000Y-83050000D01*
X32990000Y-82100000D02*
X32060000Y-81170000D01*
X39000000Y-87100000D02*
X38700000Y-86800000D01*
X38400000Y-86800000D02*
X37050000Y-85450000D01*
X36100000Y-82100000D02*
X32990000Y-82100000D01*
X37050000Y-83050000D02*
X36100000Y-82100000D01*
X38700000Y-86800000D02*
X38400000Y-86800000D01*
%TO.N,/SWCLK*%
X36100000Y-88250000D02*
X33300000Y-88250000D01*
X33300000Y-88250000D02*
X33000000Y-87950000D01*
D19*
%TO.N,-5VA*%
X57889000Y-88501000D02*
X55490000Y-90900000D01*
X55490000Y-90900000D02*
X55100000Y-90900000D01*
X57958000Y-81101000D02*
X57958000Y-81192000D01*
X57889000Y-88289000D02*
X57889000Y-88501000D01*
X57000000Y-87400000D02*
X57889000Y-88289000D01*
X57958000Y-81192000D02*
X57000000Y-82150000D01*
X57000000Y-82150000D02*
X57000000Y-87400000D01*
%TD*%
%TA.AperFunction,Conductor*%
%TO.N,GND*%
G36*
X97242539Y-75720185D02*
G01*
X97288294Y-75772989D01*
X97299500Y-75824500D01*
X97299500Y-97575500D01*
X97279815Y-97642539D01*
X97227011Y-97688294D01*
X97175500Y-97699500D01*
X27624500Y-97699500D01*
X27557461Y-97679815D01*
X27511706Y-97627011D01*
X27500500Y-97575500D01*
X27500500Y-93893543D01*
X28654499Y-93893543D01*
X28692947Y-94086829D01*
X28692950Y-94086839D01*
X28768364Y-94268907D01*
X28768371Y-94268920D01*
X28877860Y-94432781D01*
X28877863Y-94432785D01*
X29017214Y-94572136D01*
X29017218Y-94572139D01*
X29181079Y-94681628D01*
X29181092Y-94681635D01*
X29363160Y-94757049D01*
X29363165Y-94757051D01*
X29363169Y-94757051D01*
X29363170Y-94757052D01*
X29556456Y-94795500D01*
X29556459Y-94795500D01*
X30553543Y-94795500D01*
X30683582Y-94769632D01*
X30746835Y-94757051D01*
X30928914Y-94681632D01*
X31092782Y-94572139D01*
X31232139Y-94432782D01*
X31341632Y-94268914D01*
X31417051Y-94086835D01*
X31429632Y-94023582D01*
X31455500Y-93893543D01*
X32704499Y-93893543D01*
X32742947Y-94086829D01*
X32742950Y-94086839D01*
X32818364Y-94268907D01*
X32818371Y-94268920D01*
X32927860Y-94432781D01*
X32927863Y-94432785D01*
X33067214Y-94572136D01*
X33067218Y-94572139D01*
X33231079Y-94681628D01*
X33231092Y-94681635D01*
X33413160Y-94757049D01*
X33413165Y-94757051D01*
X33413169Y-94757051D01*
X33413170Y-94757052D01*
X33606456Y-94795500D01*
X33606459Y-94795500D01*
X34903543Y-94795500D01*
X35033582Y-94769632D01*
X35096835Y-94757051D01*
X35278914Y-94681632D01*
X35442782Y-94572139D01*
X35582139Y-94432782D01*
X35691632Y-94268914D01*
X35767051Y-94086835D01*
X35779632Y-94023582D01*
X35805500Y-93893543D01*
X35805500Y-93696456D01*
X35767052Y-93503170D01*
X35767051Y-93503169D01*
X35767051Y-93503165D01*
X35763350Y-93494229D01*
X35691635Y-93321092D01*
X35691628Y-93321079D01*
X35582139Y-93157218D01*
X35582136Y-93157214D01*
X35442785Y-93017863D01*
X35442781Y-93017860D01*
X35278920Y-92908371D01*
X35278907Y-92908364D01*
X35096839Y-92832950D01*
X35096829Y-92832947D01*
X34903543Y-92794500D01*
X34903541Y-92794500D01*
X34366333Y-92794500D01*
X34299294Y-92774815D01*
X34253539Y-92722011D01*
X34243595Y-92652853D01*
X34258947Y-92608499D01*
X34271278Y-92587140D01*
X34271277Y-92587140D01*
X34271281Y-92587135D01*
X34310500Y-92440766D01*
X34310500Y-92289234D01*
X34271281Y-92142865D01*
X34195515Y-92011635D01*
X34088365Y-91904485D01*
X34014869Y-91862052D01*
X33957136Y-91828719D01*
X33883950Y-91809109D01*
X33810766Y-91789500D01*
X33659234Y-91789500D01*
X33512863Y-91828719D01*
X33381635Y-91904485D01*
X33381632Y-91904487D01*
X33274487Y-92011632D01*
X33274485Y-92011635D01*
X33198719Y-92142863D01*
X33164725Y-92269735D01*
X33159500Y-92289234D01*
X33159500Y-92440766D01*
X33165710Y-92463942D01*
X33198719Y-92587136D01*
X33221397Y-92626415D01*
X33274485Y-92718365D01*
X33274489Y-92718369D01*
X33276278Y-92720701D01*
X33277177Y-92723027D01*
X33278549Y-92725403D01*
X33278178Y-92725616D01*
X33301475Y-92785869D01*
X33287439Y-92854315D01*
X33238627Y-92904306D01*
X33236359Y-92905549D01*
X33231084Y-92908368D01*
X33067218Y-93017860D01*
X33067214Y-93017863D01*
X32927863Y-93157214D01*
X32927860Y-93157218D01*
X32818371Y-93321079D01*
X32818364Y-93321092D01*
X32742950Y-93503160D01*
X32742947Y-93503170D01*
X32704500Y-93696456D01*
X32704500Y-93696459D01*
X32704500Y-93893541D01*
X32704500Y-93893543D01*
X32704499Y-93893543D01*
X31455500Y-93893543D01*
X31455500Y-93696456D01*
X31417052Y-93503170D01*
X31417051Y-93503169D01*
X31417051Y-93503165D01*
X31413350Y-93494229D01*
X31341635Y-93321092D01*
X31341628Y-93321079D01*
X31232139Y-93157218D01*
X31232136Y-93157214D01*
X31092785Y-93017863D01*
X31092781Y-93017860D01*
X30928920Y-92908371D01*
X30928907Y-92908364D01*
X30746839Y-92832950D01*
X30746829Y-92832947D01*
X30553543Y-92794500D01*
X30553541Y-92794500D01*
X29556459Y-92794500D01*
X29556457Y-92794500D01*
X29363170Y-92832947D01*
X29363160Y-92832950D01*
X29181092Y-92908364D01*
X29181079Y-92908371D01*
X29017218Y-93017860D01*
X29017214Y-93017863D01*
X28877863Y-93157214D01*
X28877860Y-93157218D01*
X28768371Y-93321079D01*
X28768364Y-93321092D01*
X28692950Y-93503160D01*
X28692947Y-93503170D01*
X28654500Y-93696456D01*
X28654500Y-93696459D01*
X28654500Y-93893541D01*
X28654500Y-93893543D01*
X28654499Y-93893543D01*
X27500500Y-93893543D01*
X27500500Y-85253543D01*
X28654499Y-85253543D01*
X28692947Y-85446829D01*
X28692950Y-85446839D01*
X28768364Y-85628907D01*
X28768371Y-85628920D01*
X28877860Y-85792781D01*
X28877863Y-85792785D01*
X29017214Y-85932136D01*
X29017218Y-85932139D01*
X29181079Y-86041628D01*
X29181092Y-86041635D01*
X29352303Y-86112552D01*
X29363165Y-86117051D01*
X29363169Y-86117051D01*
X29363170Y-86117052D01*
X29556456Y-86155500D01*
X29556459Y-86155500D01*
X30553543Y-86155500D01*
X30709462Y-86124485D01*
X30746835Y-86117051D01*
X30908478Y-86050097D01*
X30928907Y-86041635D01*
X30928907Y-86041634D01*
X30928914Y-86041632D01*
X31092782Y-85932139D01*
X31232139Y-85792782D01*
X31341632Y-85628914D01*
X31417051Y-85446835D01*
X31438255Y-85340236D01*
X31455500Y-85253543D01*
X31455500Y-85056456D01*
X31417052Y-84863170D01*
X31417051Y-84863169D01*
X31417051Y-84863165D01*
X31404763Y-84833498D01*
X31341635Y-84681092D01*
X31341628Y-84681079D01*
X31232138Y-84517216D01*
X31092785Y-84377863D01*
X31092781Y-84377860D01*
X30928920Y-84268371D01*
X30928907Y-84268364D01*
X30746839Y-84192950D01*
X30746829Y-84192947D01*
X30553543Y-84154500D01*
X30553541Y-84154500D01*
X29556459Y-84154500D01*
X29556457Y-84154500D01*
X29363170Y-84192947D01*
X29363160Y-84192950D01*
X29181092Y-84268364D01*
X29181079Y-84268371D01*
X29017218Y-84377860D01*
X29017214Y-84377863D01*
X28877863Y-84517214D01*
X28877862Y-84517216D01*
X28768371Y-84681079D01*
X28768364Y-84681092D01*
X28692950Y-84863160D01*
X28692947Y-84863170D01*
X28654500Y-85056456D01*
X28654500Y-85056459D01*
X28654500Y-85253541D01*
X28654500Y-85253543D01*
X28654499Y-85253543D01*
X27500500Y-85253543D01*
X27500500Y-81091153D01*
X31259500Y-81091153D01*
X31259500Y-81248846D01*
X31290261Y-81403489D01*
X31290264Y-81403501D01*
X31350602Y-81549172D01*
X31350609Y-81549185D01*
X31438210Y-81680288D01*
X31438213Y-81680292D01*
X31549707Y-81791786D01*
X31549711Y-81791789D01*
X31680814Y-81879390D01*
X31680827Y-81879397D01*
X31805620Y-81931087D01*
X31826503Y-81939737D01*
X31891147Y-81952595D01*
X31981849Y-81970638D01*
X32043760Y-82003023D01*
X32045335Y-82004570D01*
X32621284Y-82580520D01*
X32621286Y-82580521D01*
X32621290Y-82580524D01*
X32758209Y-82659573D01*
X32758216Y-82659577D01*
X32910943Y-82700501D01*
X32910945Y-82700501D01*
X33076654Y-82700501D01*
X33076670Y-82700500D01*
X33983437Y-82700500D01*
X34050476Y-82720185D01*
X34096231Y-82772989D01*
X34106175Y-82842147D01*
X34105054Y-82848691D01*
X34087000Y-82939454D01*
X34087000Y-82939459D01*
X34087000Y-83136541D01*
X34087000Y-83136543D01*
X34086999Y-83136543D01*
X34125447Y-83329829D01*
X34125449Y-83329835D01*
X34200864Y-83511907D01*
X34200871Y-83511920D01*
X34310360Y-83675781D01*
X34310363Y-83675785D01*
X34449714Y-83815136D01*
X34449718Y-83815139D01*
X34617725Y-83927398D01*
X34662530Y-83981010D01*
X34671237Y-84050335D01*
X34641083Y-84113362D01*
X34581640Y-84150082D01*
X34548834Y-84154500D01*
X33606457Y-84154500D01*
X33413170Y-84192947D01*
X33413160Y-84192950D01*
X33231092Y-84268364D01*
X33231079Y-84268371D01*
X33067218Y-84377860D01*
X33067214Y-84377863D01*
X32927863Y-84517214D01*
X32927862Y-84517216D01*
X32818371Y-84681079D01*
X32818364Y-84681092D01*
X32742950Y-84863160D01*
X32742947Y-84863170D01*
X32704500Y-85056456D01*
X32704500Y-85056459D01*
X32704500Y-85253541D01*
X32704500Y-85253543D01*
X32704499Y-85253543D01*
X32742947Y-85446829D01*
X32742950Y-85446839D01*
X32818364Y-85628907D01*
X32818371Y-85628920D01*
X32927860Y-85792781D01*
X32927863Y-85792785D01*
X33067214Y-85932136D01*
X33067218Y-85932139D01*
X33231082Y-86041630D01*
X33236351Y-86044446D01*
X33286199Y-86093405D01*
X33301664Y-86161542D01*
X33277836Y-86227223D01*
X33276282Y-86229293D01*
X33274487Y-86231631D01*
X33198719Y-86362863D01*
X33177176Y-86443265D01*
X33159500Y-86509234D01*
X33159500Y-86660766D01*
X33168898Y-86695840D01*
X33198719Y-86807136D01*
X33229894Y-86861132D01*
X33274485Y-86938365D01*
X33274487Y-86938367D01*
X33297578Y-86961458D01*
X33331063Y-87022781D01*
X33326079Y-87092473D01*
X33284207Y-87148406D01*
X33218743Y-87172823D01*
X33185706Y-87170756D01*
X33078845Y-87149500D01*
X33078842Y-87149500D01*
X32921158Y-87149500D01*
X32921155Y-87149500D01*
X32766510Y-87180261D01*
X32766498Y-87180264D01*
X32620827Y-87240602D01*
X32620814Y-87240609D01*
X32489711Y-87328210D01*
X32489707Y-87328213D01*
X32378213Y-87439707D01*
X32378210Y-87439711D01*
X32290609Y-87570814D01*
X32290602Y-87570827D01*
X32230264Y-87716498D01*
X32230261Y-87716510D01*
X32199500Y-87871153D01*
X32199500Y-88028846D01*
X32230261Y-88183489D01*
X32230264Y-88183501D01*
X32290602Y-88329172D01*
X32290609Y-88329185D01*
X32378210Y-88460288D01*
X32378213Y-88460292D01*
X32489707Y-88571786D01*
X32489711Y-88571789D01*
X32620814Y-88659390D01*
X32620827Y-88659397D01*
X32722448Y-88701489D01*
X32766503Y-88719737D01*
X32908283Y-88747939D01*
X32921153Y-88750499D01*
X32921156Y-88750500D01*
X32921158Y-88750500D01*
X32932666Y-88750500D01*
X32948153Y-88754649D01*
X32961899Y-88753995D01*
X32994661Y-88767110D01*
X33016966Y-88779988D01*
X33068215Y-88809577D01*
X33220943Y-88850500D01*
X35520234Y-88850500D01*
X35587273Y-88870185D01*
X35589125Y-88871398D01*
X35720814Y-88959390D01*
X35720827Y-88959397D01*
X35866498Y-89019735D01*
X35866503Y-89019737D01*
X36000496Y-89046390D01*
X36021153Y-89050499D01*
X36021156Y-89050500D01*
X36075500Y-89050500D01*
X36142539Y-89070185D01*
X36188294Y-89122989D01*
X36199500Y-89174500D01*
X36199500Y-90678234D01*
X36179815Y-90745273D01*
X36127011Y-90791028D01*
X36099692Y-90799851D01*
X35908170Y-90837947D01*
X35908160Y-90837950D01*
X35726092Y-90913364D01*
X35726079Y-90913371D01*
X35562218Y-91022860D01*
X35562214Y-91022863D01*
X35422863Y-91162214D01*
X35422860Y-91162218D01*
X35313371Y-91326079D01*
X35313364Y-91326092D01*
X35237950Y-91508160D01*
X35237947Y-91508170D01*
X35199500Y-91701456D01*
X35199500Y-91701459D01*
X35199500Y-91898541D01*
X35199500Y-91898543D01*
X35199499Y-91898543D01*
X35237947Y-92091829D01*
X35237950Y-92091839D01*
X35313364Y-92273907D01*
X35313371Y-92273920D01*
X35422860Y-92437781D01*
X35422863Y-92437785D01*
X35562214Y-92577136D01*
X35562218Y-92577139D01*
X35726079Y-92686628D01*
X35726092Y-92686635D01*
X35908160Y-92762049D01*
X35908165Y-92762051D01*
X35908169Y-92762051D01*
X35908170Y-92762052D01*
X36101456Y-92800500D01*
X36101459Y-92800500D01*
X36298543Y-92800500D01*
X36438656Y-92772629D01*
X36491835Y-92762051D01*
X36657456Y-92693449D01*
X36673907Y-92686635D01*
X36673907Y-92686634D01*
X36673914Y-92686632D01*
X36837782Y-92577139D01*
X36977139Y-92437782D01*
X37086632Y-92273914D01*
X37162051Y-92091835D01*
X37184193Y-91980520D01*
X37201689Y-91892566D01*
X37203492Y-91892924D01*
X37226419Y-91836128D01*
X37235972Y-91825394D01*
X37532951Y-91528416D01*
X37615084Y-91405495D01*
X37671658Y-91268913D01*
X37686990Y-91191835D01*
X37700500Y-91123920D01*
X37700500Y-88651240D01*
X37701097Y-88639088D01*
X37701500Y-88634995D01*
X37701500Y-87865004D01*
X37672659Y-87720017D01*
X37672658Y-87720016D01*
X37672658Y-87720012D01*
X37672656Y-87720007D01*
X37616087Y-87583436D01*
X37616083Y-87583429D01*
X37611795Y-87577011D01*
X37577377Y-87525501D01*
X37533952Y-87460509D01*
X37233454Y-87160011D01*
X37199969Y-87098688D01*
X37199518Y-87096521D01*
X37175132Y-86973926D01*
X37162051Y-86908165D01*
X37144792Y-86866498D01*
X37086635Y-86726092D01*
X37086628Y-86726079D01*
X37000319Y-86596909D01*
X36979441Y-86530232D01*
X36997925Y-86462851D01*
X37049904Y-86416161D01*
X37118874Y-86404985D01*
X37182938Y-86432870D01*
X37191102Y-86440337D01*
X37915139Y-87164374D01*
X37915149Y-87164385D01*
X37919479Y-87168715D01*
X37919480Y-87168716D01*
X38031284Y-87280520D01*
X38107459Y-87324499D01*
X38168215Y-87359577D01*
X38201860Y-87368592D01*
X38211931Y-87373346D01*
X38230051Y-87389452D01*
X38250752Y-87402070D01*
X38259162Y-87415328D01*
X38264153Y-87419765D01*
X38265872Y-87425908D01*
X38273560Y-87438027D01*
X38290606Y-87479178D01*
X38290609Y-87479185D01*
X38378210Y-87610288D01*
X38378213Y-87610292D01*
X38489707Y-87721786D01*
X38489711Y-87721789D01*
X38620814Y-87809390D01*
X38620827Y-87809397D01*
X38758089Y-87866252D01*
X38766503Y-87869737D01*
X38921153Y-87900499D01*
X38921156Y-87900500D01*
X38921158Y-87900500D01*
X39078844Y-87900500D01*
X39152496Y-87885849D01*
X39212809Y-87873852D01*
X39282400Y-87880079D01*
X39337577Y-87922942D01*
X39360822Y-87988831D01*
X39361000Y-87995469D01*
X39361000Y-88399669D01*
X39361001Y-88399687D01*
X39371325Y-88500752D01*
X39394864Y-88571786D01*
X39425592Y-88664516D01*
X39515066Y-88809577D01*
X39516161Y-88811351D01*
X39630129Y-88925319D01*
X39663614Y-88986642D01*
X39658630Y-89056334D01*
X39630129Y-89100681D01*
X39516161Y-89214648D01*
X39425593Y-89361481D01*
X39425591Y-89361486D01*
X39406499Y-89419103D01*
X39371326Y-89525247D01*
X39371326Y-89525248D01*
X39371325Y-89525248D01*
X39361000Y-89626315D01*
X39361000Y-90224669D01*
X39361001Y-90224687D01*
X39371325Y-90325752D01*
X39404573Y-90426086D01*
X39425592Y-90489516D01*
X39516160Y-90636350D01*
X39638150Y-90758340D01*
X39784984Y-90848908D01*
X39948747Y-90903174D01*
X40049823Y-90913500D01*
X40623176Y-90913499D01*
X40623184Y-90913498D01*
X40623187Y-90913498D01*
X40678530Y-90907844D01*
X40724253Y-90903174D01*
X40888016Y-90848908D01*
X41034850Y-90758340D01*
X41034852Y-90758338D01*
X41040513Y-90753862D01*
X41041400Y-90754983D01*
X41095678Y-90725339D01*
X41165370Y-90730316D01*
X41187141Y-90740960D01*
X41326484Y-90826908D01*
X41490247Y-90881174D01*
X41529122Y-90885145D01*
X41593813Y-90911540D01*
X41633965Y-90968720D01*
X41636829Y-91038531D01*
X41619623Y-91077393D01*
X41590608Y-91120816D01*
X41590602Y-91120827D01*
X41530264Y-91266498D01*
X41530261Y-91266510D01*
X41499500Y-91421153D01*
X41499500Y-91578846D01*
X41530261Y-91733489D01*
X41530264Y-91733501D01*
X41590602Y-91879172D01*
X41590609Y-91879185D01*
X41678210Y-92010288D01*
X41678213Y-92010292D01*
X41789707Y-92121786D01*
X41789711Y-92121789D01*
X41920814Y-92209390D01*
X41920827Y-92209397D01*
X42066498Y-92269735D01*
X42066503Y-92269737D01*
X42221153Y-92300499D01*
X42221156Y-92300500D01*
X42221158Y-92300500D01*
X42378844Y-92300500D01*
X42378845Y-92300499D01*
X42533497Y-92269737D01*
X42679179Y-92209394D01*
X42724378Y-92179193D01*
X42810875Y-92121398D01*
X42877553Y-92100520D01*
X42879766Y-92100500D01*
X47013331Y-92100500D01*
X47013347Y-92100501D01*
X47020943Y-92100501D01*
X47179054Y-92100501D01*
X47179057Y-92100501D01*
X47331785Y-92059577D01*
X47381904Y-92030639D01*
X47468716Y-91980520D01*
X47580520Y-91868716D01*
X47580520Y-91868714D01*
X47590728Y-91858507D01*
X47590729Y-91858504D01*
X48414665Y-91034570D01*
X48475984Y-91001088D01*
X48478151Y-91000637D01*
X48478840Y-91000500D01*
X48478842Y-91000500D01*
X48633497Y-90969737D01*
X48769585Y-90913368D01*
X48779172Y-90909397D01*
X48779172Y-90909396D01*
X48779179Y-90909394D01*
X48910289Y-90821789D01*
X49021789Y-90710289D01*
X49109394Y-90579179D01*
X49169737Y-90433497D01*
X49200500Y-90278842D01*
X49200500Y-90121158D01*
X49200500Y-90121155D01*
X49200499Y-90121153D01*
X49188280Y-90059723D01*
X49169737Y-89966503D01*
X49141984Y-89899500D01*
X49109397Y-89820827D01*
X49109390Y-89820814D01*
X49021789Y-89689711D01*
X49021786Y-89689707D01*
X48910292Y-89578213D01*
X48910288Y-89578210D01*
X48779185Y-89490609D01*
X48779172Y-89490602D01*
X48633501Y-89430264D01*
X48633489Y-89430261D01*
X48478845Y-89399500D01*
X48478842Y-89399500D01*
X48321158Y-89399500D01*
X48321155Y-89399500D01*
X48166510Y-89430261D01*
X48166498Y-89430264D01*
X48020827Y-89490602D01*
X48020814Y-89490609D01*
X47889711Y-89578210D01*
X47889707Y-89578213D01*
X47778213Y-89689707D01*
X47778210Y-89689711D01*
X47690609Y-89820814D01*
X47690602Y-89820827D01*
X47630264Y-89966498D01*
X47630261Y-89966508D01*
X47599362Y-90121848D01*
X47566977Y-90183759D01*
X47565426Y-90185337D01*
X46887584Y-90863181D01*
X46826261Y-90896666D01*
X46799903Y-90899500D01*
X42879766Y-90899500D01*
X42861622Y-90894172D01*
X42842713Y-90893835D01*
X42814495Y-90880334D01*
X42812727Y-90879815D01*
X42810875Y-90878602D01*
X42710637Y-90811625D01*
X42665832Y-90758013D01*
X42657125Y-90688688D01*
X42687279Y-90625660D01*
X42691832Y-90620857D01*
X42698340Y-90614350D01*
X42788908Y-90467516D01*
X42843174Y-90303753D01*
X42853500Y-90202677D01*
X42853499Y-89604324D01*
X42852393Y-89593501D01*
X42843174Y-89503247D01*
X42836436Y-89482913D01*
X42788908Y-89339484D01*
X42698340Y-89192650D01*
X42584371Y-89078681D01*
X42550886Y-89017358D01*
X42555870Y-88947666D01*
X42584371Y-88903319D01*
X42637750Y-88849940D01*
X42698340Y-88789350D01*
X42788908Y-88642516D01*
X42843174Y-88478753D01*
X42853500Y-88377677D01*
X42853499Y-88314934D01*
X42855882Y-88290741D01*
X42856319Y-88288549D01*
X42877216Y-88183497D01*
X42878500Y-88177042D01*
X42878500Y-87979956D01*
X42855882Y-87866252D01*
X42853499Y-87842060D01*
X42853499Y-87779330D01*
X42853498Y-87779313D01*
X42843174Y-87678247D01*
X42823514Y-87618917D01*
X42788908Y-87514484D01*
X42698340Y-87367650D01*
X42576350Y-87245660D01*
X42470325Y-87180263D01*
X42429518Y-87155093D01*
X42429513Y-87155091D01*
X42428069Y-87154612D01*
X42265753Y-87100826D01*
X42265751Y-87100825D01*
X42164684Y-87090500D01*
X42164677Y-87090500D01*
X42051594Y-87090500D01*
X42027403Y-87088117D01*
X42004779Y-87083617D01*
X41976542Y-87078000D01*
X41976541Y-87078000D01*
X41779459Y-87078000D01*
X41728588Y-87088118D01*
X41704400Y-87090500D01*
X41591331Y-87090500D01*
X41591312Y-87090501D01*
X41490247Y-87100825D01*
X41326484Y-87155092D01*
X41326481Y-87155093D01*
X41179647Y-87245661D01*
X41173987Y-87250138D01*
X41173102Y-87249019D01*
X41118795Y-87278666D01*
X41049104Y-87273674D01*
X41027353Y-87263036D01*
X40990988Y-87240606D01*
X40888016Y-87177092D01*
X40724253Y-87122826D01*
X40724251Y-87122825D01*
X40623178Y-87112500D01*
X40049830Y-87112500D01*
X40049812Y-87112501D01*
X39942012Y-87123514D01*
X39941882Y-87122246D01*
X39879297Y-87117557D01*
X39823505Y-87075497D01*
X39801406Y-87025714D01*
X39791105Y-86973926D01*
X39769737Y-86866503D01*
X39767512Y-86861132D01*
X39709397Y-86720827D01*
X39709390Y-86720814D01*
X39621789Y-86589711D01*
X39621786Y-86589707D01*
X39510292Y-86478213D01*
X39510288Y-86478210D01*
X39379185Y-86390609D01*
X39379172Y-86390602D01*
X39233501Y-86330264D01*
X39233489Y-86330261D01*
X39078845Y-86299500D01*
X39078842Y-86299500D01*
X39067334Y-86299500D01*
X39051846Y-86295350D01*
X39038100Y-86296005D01*
X39005334Y-86282887D01*
X38999469Y-86279501D01*
X38944335Y-86247669D01*
X38931785Y-86240423D01*
X38779057Y-86199499D01*
X38779054Y-86199499D01*
X38700096Y-86199499D01*
X38633057Y-86179814D01*
X38612415Y-86163180D01*
X37686819Y-85237584D01*
X37672115Y-85210656D01*
X37655523Y-85184838D01*
X37654631Y-85178637D01*
X37653334Y-85176261D01*
X37650500Y-85149903D01*
X37650500Y-84988153D01*
X47257000Y-84988153D01*
X47257000Y-85145846D01*
X47287761Y-85300489D01*
X47287764Y-85300501D01*
X47348102Y-85446172D01*
X47348109Y-85446185D01*
X47435710Y-85577288D01*
X47435713Y-85577292D01*
X47547207Y-85688786D01*
X47547211Y-85688789D01*
X47678314Y-85776390D01*
X47678327Y-85776397D01*
X47805469Y-85829060D01*
X47824003Y-85836737D01*
X47978653Y-85867499D01*
X47978656Y-85867500D01*
X47978658Y-85867500D01*
X48136344Y-85867500D01*
X48136345Y-85867499D01*
X48290997Y-85836737D01*
X48436679Y-85776394D01*
X48436685Y-85776390D01*
X48568375Y-85688398D01*
X48635053Y-85667520D01*
X48637266Y-85667500D01*
X53316903Y-85667500D01*
X53383942Y-85687185D01*
X53404584Y-85703819D01*
X53663181Y-85962416D01*
X53696666Y-86023739D01*
X53699500Y-86050097D01*
X53699500Y-88870234D01*
X53679815Y-88937273D01*
X53678602Y-88939125D01*
X53590609Y-89070814D01*
X53590602Y-89070827D01*
X53530264Y-89216498D01*
X53530261Y-89216508D01*
X53502277Y-89357192D01*
X53469892Y-89419103D01*
X53409176Y-89453677D01*
X53380660Y-89457000D01*
X52927830Y-89457000D01*
X52927812Y-89457001D01*
X52826747Y-89467325D01*
X52662984Y-89521592D01*
X52662981Y-89521593D01*
X52516148Y-89612161D01*
X52394161Y-89734148D01*
X52303593Y-89880981D01*
X52303591Y-89880986D01*
X52289064Y-89924826D01*
X52249326Y-90044747D01*
X52249326Y-90044748D01*
X52249325Y-90044748D01*
X52239000Y-90145815D01*
X52239000Y-90744169D01*
X52239001Y-90744187D01*
X52249325Y-90845252D01*
X52271941Y-90913500D01*
X52300815Y-91000637D01*
X52303592Y-91009015D01*
X52303593Y-91009018D01*
X52312133Y-91022863D01*
X52394160Y-91155850D01*
X52516150Y-91277840D01*
X52662984Y-91368408D01*
X52826747Y-91422674D01*
X52927823Y-91433000D01*
X53501176Y-91432999D01*
X53501184Y-91432998D01*
X53501187Y-91432998D01*
X53556530Y-91427344D01*
X53602253Y-91422674D01*
X53766016Y-91368408D01*
X53912850Y-91277840D01*
X53965985Y-91224704D01*
X54027306Y-91191220D01*
X54096998Y-91196204D01*
X54152931Y-91238075D01*
X54168226Y-91264933D01*
X54213366Y-91373910D01*
X54213371Y-91373920D01*
X54322860Y-91537781D01*
X54322863Y-91537785D01*
X54462214Y-91677136D01*
X54462218Y-91677139D01*
X54626079Y-91786628D01*
X54626092Y-91786635D01*
X54808160Y-91862049D01*
X54808165Y-91862051D01*
X54808169Y-91862051D01*
X54808170Y-91862052D01*
X55001456Y-91900500D01*
X55001459Y-91900500D01*
X55198543Y-91900500D01*
X55358343Y-91868713D01*
X55391835Y-91862051D01*
X55532655Y-91803721D01*
X55573907Y-91786635D01*
X55573907Y-91786634D01*
X55573914Y-91786632D01*
X55737782Y-91677139D01*
X55849947Y-91564972D01*
X55868735Y-91549555D01*
X55871538Y-91547681D01*
X55900373Y-91528416D01*
X55968416Y-91482952D01*
X57914379Y-89536987D01*
X57931127Y-89527842D01*
X57944901Y-89514629D01*
X57967744Y-89507848D01*
X57975700Y-89503504D01*
X57978219Y-89502983D01*
X57985789Y-89501500D01*
X57987541Y-89501500D01*
X58101533Y-89478824D01*
X58101600Y-89478812D01*
X58101784Y-89478829D01*
X58125439Y-89476499D01*
X58225670Y-89476499D01*
X58225676Y-89476499D01*
X58229788Y-89476079D01*
X58287899Y-89470143D01*
X58356591Y-89482913D01*
X58407476Y-89530794D01*
X58424500Y-89593501D01*
X58424500Y-91785769D01*
X58404815Y-91852808D01*
X58388181Y-91873450D01*
X57887449Y-92374181D01*
X57826126Y-92407666D01*
X57799769Y-92410500D01*
X57679331Y-92410500D01*
X57679312Y-92410501D01*
X57578247Y-92420825D01*
X57414484Y-92475092D01*
X57414481Y-92475093D01*
X57267648Y-92565661D01*
X57145661Y-92687648D01*
X57055093Y-92834481D01*
X57055091Y-92834486D01*
X57031955Y-92904306D01*
X57000826Y-92998247D01*
X57000826Y-92998248D01*
X57000825Y-92998248D01*
X56990500Y-93099315D01*
X56990500Y-93772669D01*
X56990501Y-93772687D01*
X57000825Y-93873752D01*
X57055092Y-94037515D01*
X57055093Y-94037518D01*
X57085512Y-94086835D01*
X57145660Y-94184350D01*
X57267650Y-94306340D01*
X57414484Y-94396908D01*
X57578247Y-94451174D01*
X57679323Y-94461500D01*
X58252676Y-94461499D01*
X58252684Y-94461498D01*
X58252687Y-94461498D01*
X58308030Y-94455844D01*
X58353753Y-94451174D01*
X58517516Y-94396908D01*
X58664350Y-94306340D01*
X58786340Y-94184350D01*
X58876908Y-94037516D01*
X58931174Y-93873753D01*
X58941500Y-93772677D01*
X58941499Y-93494228D01*
X58961183Y-93427190D01*
X58977813Y-93406553D01*
X59142551Y-93241815D01*
X60665500Y-93241815D01*
X60665500Y-93815169D01*
X60665501Y-93815187D01*
X60675825Y-93916252D01*
X60712109Y-94025749D01*
X60730092Y-94080016D01*
X60820660Y-94226850D01*
X60942650Y-94348840D01*
X61089484Y-94439408D01*
X61253247Y-94493674D01*
X61354323Y-94504000D01*
X62027676Y-94503999D01*
X62027684Y-94503998D01*
X62027687Y-94503998D01*
X62083030Y-94498344D01*
X62128753Y-94493674D01*
X62292516Y-94439408D01*
X62439350Y-94348840D01*
X62561340Y-94226850D01*
X62651908Y-94080016D01*
X62706174Y-93916253D01*
X62716500Y-93815177D01*
X62716499Y-93241824D01*
X62711729Y-93195132D01*
X62706174Y-93140747D01*
X62692447Y-93099323D01*
X62651908Y-92976984D01*
X62561340Y-92830150D01*
X62503819Y-92772629D01*
X62470334Y-92711306D01*
X62467500Y-92684948D01*
X62467500Y-92320062D01*
X85602145Y-92320062D01*
X85602145Y-92320647D01*
X85602145Y-92320648D01*
X85602145Y-92463940D01*
X85622399Y-92604806D01*
X85622400Y-92604810D01*
X85662930Y-92742847D01*
X85662933Y-92742855D01*
X85662934Y-92742856D01*
X85722053Y-92872310D01*
X85722054Y-92872312D01*
X85743414Y-92905549D01*
X85799841Y-92993351D01*
X85893038Y-93100907D01*
X86001775Y-93195128D01*
X86001781Y-93195132D01*
X86119620Y-93270863D01*
X86121277Y-93271969D01*
X86252370Y-93331838D01*
X86252374Y-93331839D01*
X86252376Y-93331840D01*
X86388927Y-93371935D01*
X86531343Y-93392411D01*
X86531346Y-93392411D01*
X86673654Y-93392411D01*
X86673657Y-93392411D01*
X86816073Y-93371935D01*
X86952624Y-93331840D01*
X86952624Y-93331839D01*
X86954370Y-93331327D01*
X86958659Y-93329083D01*
X87083503Y-93272069D01*
X87203225Y-93195128D01*
X87311961Y-93100907D01*
X87313341Y-93099315D01*
X87402263Y-92996693D01*
X87403762Y-92995082D01*
X87405145Y-92993365D01*
X87405158Y-92993352D01*
X87405160Y-92993350D01*
X87482947Y-92872310D01*
X87542066Y-92742856D01*
X87548593Y-92720629D01*
X87574337Y-92632948D01*
X87582600Y-92604808D01*
X87602854Y-92463942D01*
X87602855Y-92463938D01*
X87602854Y-92320062D01*
X91602145Y-92320062D01*
X91602145Y-92320647D01*
X91602145Y-92320648D01*
X91602145Y-92463940D01*
X91622399Y-92604806D01*
X91622400Y-92604810D01*
X91662930Y-92742847D01*
X91662933Y-92742855D01*
X91662934Y-92742856D01*
X91722053Y-92872310D01*
X91722054Y-92872312D01*
X91743414Y-92905549D01*
X91799841Y-92993351D01*
X91893038Y-93100907D01*
X92001775Y-93195128D01*
X92001781Y-93195132D01*
X92119620Y-93270863D01*
X92121277Y-93271969D01*
X92252370Y-93331838D01*
X92252374Y-93331839D01*
X92252376Y-93331840D01*
X92388927Y-93371935D01*
X92531343Y-93392411D01*
X92531346Y-93392411D01*
X92673654Y-93392411D01*
X92673657Y-93392411D01*
X92816073Y-93371935D01*
X92952624Y-93331840D01*
X92952624Y-93331839D01*
X92954370Y-93331327D01*
X92958659Y-93329083D01*
X93083503Y-93272069D01*
X93203225Y-93195128D01*
X93311961Y-93100907D01*
X93313341Y-93099315D01*
X93402263Y-92996693D01*
X93403762Y-92995082D01*
X93405145Y-92993365D01*
X93405158Y-92993352D01*
X93405160Y-92993350D01*
X93482947Y-92872310D01*
X93542066Y-92742856D01*
X93548593Y-92720629D01*
X93574337Y-92632948D01*
X93582600Y-92604808D01*
X93601953Y-92470202D01*
X93602301Y-92468434D01*
X93602854Y-92463940D01*
X93602855Y-92463938D01*
X93602854Y-92320058D01*
X93582600Y-92179192D01*
X93565745Y-92121789D01*
X93542069Y-92041152D01*
X93542067Y-92041148D01*
X93542066Y-92041144D01*
X93482947Y-91911690D01*
X93482946Y-91911688D01*
X93405158Y-91790648D01*
X93355640Y-91733501D01*
X93311961Y-91683092D01*
X93203224Y-91588871D01*
X93085378Y-91513136D01*
X93083722Y-91512029D01*
X92952629Y-91452161D01*
X92816077Y-91412066D01*
X92816065Y-91412063D01*
X92673657Y-91391589D01*
X92531343Y-91391589D01*
X92531342Y-91391589D01*
X92388934Y-91412063D01*
X92388922Y-91412066D01*
X92250624Y-91452674D01*
X92246323Y-91454924D01*
X92121508Y-91511924D01*
X92121492Y-91511933D01*
X92001775Y-91588871D01*
X91893038Y-91683092D01*
X91802736Y-91787307D01*
X91801238Y-91788915D01*
X91799837Y-91790653D01*
X91722053Y-91911689D01*
X91722052Y-91911691D01*
X91662930Y-92041152D01*
X91622400Y-92179189D01*
X91622399Y-92179192D01*
X91604958Y-92300499D01*
X91602146Y-92320058D01*
X91602145Y-92320062D01*
X87602854Y-92320062D01*
X87602854Y-92320058D01*
X87582600Y-92179192D01*
X87565745Y-92121789D01*
X87542069Y-92041152D01*
X87542067Y-92041148D01*
X87542066Y-92041144D01*
X87482947Y-91911690D01*
X87482946Y-91911688D01*
X87405158Y-91790648D01*
X87355640Y-91733501D01*
X87311961Y-91683092D01*
X87203224Y-91588871D01*
X87085378Y-91513136D01*
X87083722Y-91512029D01*
X86952629Y-91452161D01*
X86816077Y-91412066D01*
X86816065Y-91412063D01*
X86673657Y-91391589D01*
X86531343Y-91391589D01*
X86531342Y-91391589D01*
X86388934Y-91412063D01*
X86388922Y-91412066D01*
X86250624Y-91452674D01*
X86246323Y-91454924D01*
X86121508Y-91511924D01*
X86121492Y-91511933D01*
X86001775Y-91588871D01*
X85893038Y-91683092D01*
X85802736Y-91787307D01*
X85801238Y-91788915D01*
X85799837Y-91790653D01*
X85722053Y-91911689D01*
X85722052Y-91911691D01*
X85662930Y-92041152D01*
X85622400Y-92179189D01*
X85622399Y-92179192D01*
X85604958Y-92300499D01*
X85602146Y-92320058D01*
X85602145Y-92320062D01*
X62467500Y-92320062D01*
X62467500Y-86761302D01*
X62487185Y-86694263D01*
X62503819Y-86673621D01*
X62516676Y-86660764D01*
X62587340Y-86590100D01*
X62677908Y-86443266D01*
X62732174Y-86279503D01*
X62742500Y-86178427D01*
X62742499Y-85605074D01*
X62732174Y-85503997D01*
X62677908Y-85340234D01*
X62587340Y-85193400D01*
X62465350Y-85071410D01*
X62318516Y-84980842D01*
X62154753Y-84926576D01*
X62154751Y-84926575D01*
X62053678Y-84916250D01*
X61380330Y-84916250D01*
X61380312Y-84916251D01*
X61279247Y-84926575D01*
X61115484Y-84980842D01*
X61115481Y-84980843D01*
X60968648Y-85071411D01*
X60846661Y-85193398D01*
X60756093Y-85340231D01*
X60756091Y-85340236D01*
X60728719Y-85422838D01*
X60701826Y-85503997D01*
X60701826Y-85503998D01*
X60701825Y-85503998D01*
X60691500Y-85605065D01*
X60691500Y-86178419D01*
X60691501Y-86178437D01*
X60701825Y-86279502D01*
X60738109Y-86388999D01*
X60755121Y-86440337D01*
X60756092Y-86443265D01*
X60756093Y-86443268D01*
X60846661Y-86590101D01*
X60930181Y-86673621D01*
X60963666Y-86734944D01*
X60966500Y-86761302D01*
X60966500Y-92632948D01*
X60946815Y-92699987D01*
X60930181Y-92720629D01*
X60820661Y-92830148D01*
X60730093Y-92976981D01*
X60730091Y-92976986D01*
X60716546Y-93017863D01*
X60675826Y-93140747D01*
X60675826Y-93140748D01*
X60675825Y-93140748D01*
X60665500Y-93241815D01*
X59142551Y-93241815D01*
X59757951Y-92626416D01*
X59840084Y-92503495D01*
X59896658Y-92366913D01*
X59915157Y-92273914D01*
X59925500Y-92221920D01*
X59925500Y-88772604D01*
X59934939Y-88725151D01*
X59937181Y-88719738D01*
X59944737Y-88701497D01*
X59975500Y-88546842D01*
X59975500Y-88389158D01*
X59975500Y-88389155D01*
X59975499Y-88389153D01*
X59965979Y-88341295D01*
X59944737Y-88234503D01*
X59944735Y-88234498D01*
X59884397Y-88088827D01*
X59884390Y-88088814D01*
X59796789Y-87957711D01*
X59796786Y-87957707D01*
X59685292Y-87846213D01*
X59685288Y-87846210D01*
X59554185Y-87758609D01*
X59554172Y-87758602D01*
X59408501Y-87698264D01*
X59408489Y-87698261D01*
X59253845Y-87667500D01*
X59253842Y-87667500D01*
X59096158Y-87667500D01*
X59096155Y-87667500D01*
X58941510Y-87698261D01*
X58941498Y-87698264D01*
X58815427Y-87750484D01*
X58745957Y-87757953D01*
X58683478Y-87726677D01*
X58680294Y-87723604D01*
X58637351Y-87680661D01*
X58637350Y-87680660D01*
X58536527Y-87618472D01*
X58490518Y-87590093D01*
X58490513Y-87590091D01*
X58489069Y-87589612D01*
X58326753Y-87535826D01*
X58326751Y-87535825D01*
X58226336Y-87525567D01*
X58161645Y-87499171D01*
X58151258Y-87489890D01*
X57786819Y-87125451D01*
X57772115Y-87098523D01*
X57755523Y-87072705D01*
X57754631Y-87066504D01*
X57753334Y-87064128D01*
X57750500Y-87037770D01*
X57750500Y-86973926D01*
X57770185Y-86906887D01*
X57822989Y-86861132D01*
X57887117Y-86850570D01*
X57891323Y-86851000D01*
X58564676Y-86850999D01*
X58564684Y-86850998D01*
X58564687Y-86850998D01*
X58620030Y-86845344D01*
X58665753Y-86840674D01*
X58829516Y-86786408D01*
X58976350Y-86695840D01*
X59098340Y-86573850D01*
X59188908Y-86427016D01*
X59243174Y-86263253D01*
X59253500Y-86162177D01*
X59253499Y-85588824D01*
X59243174Y-85487747D01*
X59188908Y-85323984D01*
X59098340Y-85177150D01*
X58976350Y-85055160D01*
X58829516Y-84964592D01*
X58829514Y-84964591D01*
X58829512Y-84964590D01*
X58829513Y-84964590D01*
X58810494Y-84958288D01*
X58790462Y-84944418D01*
X58768297Y-84934296D01*
X58762248Y-84924883D01*
X58753050Y-84918515D01*
X58743696Y-84896016D01*
X58730523Y-84875518D01*
X58728063Y-84858413D01*
X58726228Y-84853998D01*
X58725500Y-84840583D01*
X58725500Y-84637229D01*
X58745185Y-84570190D01*
X58761819Y-84549548D01*
X59261032Y-84050335D01*
X59782952Y-83528415D01*
X59810205Y-83487627D01*
X59865084Y-83405495D01*
X59896423Y-83329835D01*
X59921659Y-83268912D01*
X59932765Y-83213080D01*
X59949479Y-83129055D01*
X59950499Y-83123922D01*
X59950500Y-83123915D01*
X59950500Y-81296244D01*
X59959939Y-81248791D01*
X59996812Y-81159771D01*
X60014737Y-81116497D01*
X60045500Y-80961842D01*
X60045500Y-80804158D01*
X60045500Y-80804155D01*
X60045499Y-80804153D01*
X60037575Y-80764315D01*
X60014737Y-80649503D01*
X60001959Y-80618653D01*
X59954397Y-80503827D01*
X59954390Y-80503814D01*
X59866789Y-80372711D01*
X59866786Y-80372707D01*
X59755292Y-80261213D01*
X59755288Y-80261210D01*
X59624185Y-80173609D01*
X59624172Y-80173602D01*
X59478501Y-80113264D01*
X59478489Y-80113261D01*
X59323845Y-80082500D01*
X59323842Y-80082500D01*
X59166158Y-80082500D01*
X59166155Y-80082500D01*
X59011510Y-80113261D01*
X59011498Y-80113264D01*
X58865827Y-80173602D01*
X58865809Y-80173612D01*
X58787082Y-80226216D01*
X58720405Y-80247094D01*
X58653097Y-80228653D01*
X58509516Y-80140092D01*
X58345753Y-80085826D01*
X58345751Y-80085825D01*
X58244678Y-80075500D01*
X57671330Y-80075500D01*
X57671312Y-80075501D01*
X57570247Y-80085825D01*
X57406484Y-80140092D01*
X57406481Y-80140093D01*
X57259648Y-80230661D01*
X57137661Y-80352648D01*
X57047093Y-80499481D01*
X57047092Y-80499484D01*
X56992826Y-80663247D01*
X56992826Y-80663248D01*
X56992825Y-80663248D01*
X56982500Y-80764315D01*
X56982500Y-80864564D01*
X56981672Y-80878873D01*
X56981095Y-80883838D01*
X56957500Y-81002459D01*
X56957500Y-81086951D01*
X56956672Y-81094079D01*
X56945715Y-81119903D01*
X56937815Y-81146809D01*
X56930392Y-81156020D01*
X56929383Y-81158399D01*
X56927369Y-81159771D01*
X56921181Y-81167451D01*
X56417048Y-81671583D01*
X56397037Y-81701532D01*
X56377159Y-81731284D01*
X56334919Y-81794499D01*
X56334912Y-81794511D01*
X56278343Y-81931082D01*
X56278340Y-81931092D01*
X56249500Y-82076079D01*
X56249500Y-82076082D01*
X56249500Y-87473918D01*
X56249500Y-87473920D01*
X56249499Y-87473920D01*
X56278340Y-87618907D01*
X56278343Y-87618917D01*
X56321706Y-87723604D01*
X56334916Y-87755495D01*
X56353262Y-87782952D01*
X56353261Y-87782952D01*
X56417046Y-87878414D01*
X56417052Y-87878421D01*
X56827181Y-88288549D01*
X56841884Y-88315476D01*
X56858477Y-88341295D01*
X56859368Y-88347495D01*
X56860666Y-88349872D01*
X56863500Y-88376230D01*
X56863500Y-88413769D01*
X56843815Y-88480808D01*
X56827181Y-88501450D01*
X55437740Y-89890890D01*
X55376417Y-89924375D01*
X55325868Y-89924826D01*
X55198545Y-89899500D01*
X55198541Y-89899500D01*
X55165845Y-89899500D01*
X55098806Y-89879815D01*
X55053051Y-89827011D01*
X55043107Y-89757853D01*
X55051284Y-89728048D01*
X55069735Y-89683501D01*
X55069737Y-89683497D01*
X55100500Y-89528842D01*
X55100500Y-89371158D01*
X55100500Y-89371155D01*
X55100499Y-89371153D01*
X55094199Y-89339481D01*
X55069737Y-89216503D01*
X55069735Y-89216498D01*
X55009397Y-89070827D01*
X55009390Y-89070814D01*
X54921398Y-88939125D01*
X54900520Y-88872447D01*
X54900500Y-88870234D01*
X54900500Y-85839059D01*
X54900501Y-85839046D01*
X54900501Y-85670945D01*
X54900501Y-85670943D01*
X54859577Y-85518215D01*
X54822399Y-85453821D01*
X54780520Y-85381284D01*
X54668716Y-85269480D01*
X54668715Y-85269479D01*
X54664385Y-85265149D01*
X54664374Y-85265139D01*
X54104590Y-84705355D01*
X54104588Y-84705352D01*
X53985717Y-84586481D01*
X53985709Y-84586475D01*
X53865751Y-84517218D01*
X53865751Y-84517217D01*
X53865746Y-84517216D01*
X53859827Y-84513798D01*
X53848786Y-84507423D01*
X53810603Y-84497192D01*
X53696057Y-84466499D01*
X53537943Y-84466499D01*
X53530347Y-84466499D01*
X53530331Y-84466500D01*
X48637266Y-84466500D01*
X48570227Y-84446815D01*
X48568375Y-84445602D01*
X48436685Y-84357609D01*
X48436672Y-84357602D01*
X48291001Y-84297264D01*
X48290989Y-84297261D01*
X48136345Y-84266500D01*
X48136342Y-84266500D01*
X47978658Y-84266500D01*
X47978655Y-84266500D01*
X47824010Y-84297261D01*
X47823998Y-84297264D01*
X47678327Y-84357602D01*
X47678314Y-84357609D01*
X47547211Y-84445210D01*
X47547207Y-84445213D01*
X47435713Y-84556707D01*
X47435710Y-84556711D01*
X47348109Y-84687814D01*
X47348102Y-84687827D01*
X47287764Y-84833498D01*
X47287761Y-84833510D01*
X47257000Y-84988153D01*
X37650500Y-84988153D01*
X37650500Y-83139059D01*
X37650501Y-83139046D01*
X37650501Y-82970945D01*
X37650501Y-82970943D01*
X37609577Y-82818215D01*
X37580639Y-82768095D01*
X37530520Y-82681284D01*
X37418716Y-82569480D01*
X37418715Y-82569479D01*
X37414385Y-82565149D01*
X37414374Y-82565139D01*
X36587590Y-81738355D01*
X36587588Y-81738352D01*
X36468717Y-81619481D01*
X36468716Y-81619480D01*
X36377902Y-81567049D01*
X36331785Y-81540423D01*
X36179057Y-81499499D01*
X36020943Y-81499499D01*
X36013347Y-81499499D01*
X36013331Y-81499500D01*
X33290098Y-81499500D01*
X33223059Y-81479815D01*
X33202417Y-81463181D01*
X32894573Y-81155337D01*
X32861088Y-81094014D01*
X32860637Y-81091847D01*
X32843797Y-81007189D01*
X32829737Y-80936503D01*
X32805866Y-80878873D01*
X32769397Y-80790827D01*
X32769390Y-80790814D01*
X32681789Y-80659711D01*
X32681786Y-80659707D01*
X32570292Y-80548213D01*
X32570288Y-80548210D01*
X32439185Y-80460609D01*
X32439172Y-80460602D01*
X32293501Y-80400264D01*
X32293489Y-80400261D01*
X32138845Y-80369500D01*
X32138842Y-80369500D01*
X31981158Y-80369500D01*
X31981155Y-80369500D01*
X31826510Y-80400261D01*
X31826498Y-80400264D01*
X31680827Y-80460602D01*
X31680814Y-80460609D01*
X31549711Y-80548210D01*
X31549707Y-80548213D01*
X31438213Y-80659707D01*
X31438210Y-80659711D01*
X31350609Y-80790814D01*
X31350602Y-80790827D01*
X31290264Y-80936498D01*
X31290261Y-80936510D01*
X31259500Y-81091153D01*
X27500500Y-81091153D01*
X27500500Y-78098543D01*
X64099499Y-78098543D01*
X64137947Y-78291829D01*
X64137950Y-78291839D01*
X64213364Y-78473907D01*
X64213371Y-78473920D01*
X64322860Y-78637781D01*
X64322863Y-78637785D01*
X64462214Y-78777136D01*
X64462218Y-78777139D01*
X64626079Y-78886628D01*
X64626092Y-78886635D01*
X64747249Y-78936819D01*
X64808165Y-78962051D01*
X64808169Y-78962051D01*
X64808170Y-78962052D01*
X65001456Y-79000500D01*
X65001459Y-79000500D01*
X65198543Y-79000500D01*
X65328582Y-78974632D01*
X65391835Y-78962051D01*
X65453007Y-78936712D01*
X65517646Y-78909939D01*
X65565098Y-78900500D01*
X68537770Y-78900500D01*
X68604809Y-78920185D01*
X68625451Y-78936819D01*
X79513181Y-89824548D01*
X79527884Y-89851475D01*
X79544477Y-89877294D01*
X79545368Y-89883494D01*
X79546666Y-89885871D01*
X79549500Y-89912229D01*
X79549500Y-90045389D01*
X79529815Y-90112428D01*
X79524763Y-90119370D01*
X79413371Y-90286079D01*
X79413364Y-90286092D01*
X79337950Y-90468160D01*
X79337947Y-90468170D01*
X79299500Y-90661456D01*
X79299500Y-90661459D01*
X79299500Y-90858541D01*
X79299500Y-90858543D01*
X79299499Y-90858543D01*
X79337947Y-91051829D01*
X79337950Y-91051839D01*
X79413364Y-91233907D01*
X79413371Y-91233920D01*
X79522860Y-91397781D01*
X79522863Y-91397785D01*
X79662214Y-91537136D01*
X79662218Y-91537139D01*
X79826079Y-91646628D01*
X79826092Y-91646635D01*
X79958451Y-91701459D01*
X80008165Y-91722051D01*
X80008169Y-91722051D01*
X80008170Y-91722052D01*
X80201456Y-91760500D01*
X80201459Y-91760500D01*
X80398543Y-91760500D01*
X80534333Y-91733489D01*
X80591835Y-91722051D01*
X80773914Y-91646632D01*
X80937782Y-91537139D01*
X81077139Y-91397782D01*
X81186632Y-91233914D01*
X81262051Y-91051835D01*
X81278381Y-90969738D01*
X81300500Y-90858543D01*
X81300500Y-90661456D01*
X81262052Y-90468170D01*
X81262051Y-90468169D01*
X81262051Y-90468165D01*
X81247688Y-90433489D01*
X81186635Y-90286092D01*
X81186628Y-90286079D01*
X81073755Y-90117153D01*
X81075278Y-90116135D01*
X81051331Y-90059723D01*
X81050500Y-90045389D01*
X81050500Y-89476079D01*
X81039166Y-89419103D01*
X81032906Y-89387632D01*
X81021659Y-89331088D01*
X80973428Y-89214650D01*
X80965084Y-89194505D01*
X80910205Y-89112373D01*
X80882952Y-89071585D01*
X76961270Y-85149903D01*
X73039508Y-81228140D01*
X72959430Y-81148062D01*
X85802145Y-81148062D01*
X85802145Y-81148647D01*
X85802145Y-81148648D01*
X85802145Y-81291940D01*
X85822399Y-81432806D01*
X85822400Y-81432810D01*
X85862930Y-81570847D01*
X85922052Y-81700308D01*
X85922055Y-81700313D01*
X85999841Y-81821351D01*
X86093038Y-81928907D01*
X86201775Y-82023128D01*
X86201781Y-82023132D01*
X86319620Y-82098863D01*
X86321277Y-82099969D01*
X86452370Y-82159838D01*
X86452374Y-82159839D01*
X86452376Y-82159840D01*
X86588927Y-82199935D01*
X86731343Y-82220411D01*
X86731346Y-82220411D01*
X86873654Y-82220411D01*
X86873657Y-82220411D01*
X87016073Y-82199935D01*
X87152624Y-82159840D01*
X87152624Y-82159839D01*
X87154370Y-82159327D01*
X87158659Y-82157083D01*
X87283503Y-82100069D01*
X87403225Y-82023128D01*
X87511961Y-81928907D01*
X87602263Y-81824692D01*
X87603762Y-81823082D01*
X87605145Y-81821365D01*
X87605158Y-81821352D01*
X87605160Y-81821350D01*
X87682947Y-81700310D01*
X87742066Y-81570856D01*
X87782600Y-81432808D01*
X87802854Y-81291942D01*
X87802855Y-81291938D01*
X87802854Y-81148062D01*
X91802145Y-81148062D01*
X91802145Y-81148647D01*
X91802145Y-81148648D01*
X91802145Y-81291940D01*
X91822399Y-81432806D01*
X91822400Y-81432810D01*
X91862930Y-81570847D01*
X91922052Y-81700308D01*
X91922055Y-81700313D01*
X91999841Y-81821351D01*
X92093038Y-81928907D01*
X92201775Y-82023128D01*
X92201781Y-82023132D01*
X92319620Y-82098863D01*
X92321277Y-82099969D01*
X92452370Y-82159838D01*
X92452374Y-82159839D01*
X92452376Y-82159840D01*
X92588927Y-82199935D01*
X92731343Y-82220411D01*
X92731346Y-82220411D01*
X92873654Y-82220411D01*
X92873657Y-82220411D01*
X93016073Y-82199935D01*
X93152624Y-82159840D01*
X93152624Y-82159839D01*
X93154370Y-82159327D01*
X93158659Y-82157083D01*
X93283503Y-82100069D01*
X93403225Y-82023128D01*
X93511961Y-81928907D01*
X93602263Y-81824692D01*
X93603762Y-81823082D01*
X93605145Y-81821365D01*
X93605158Y-81821352D01*
X93605160Y-81821350D01*
X93682947Y-81700310D01*
X93742066Y-81570856D01*
X93782600Y-81432808D01*
X93801953Y-81298202D01*
X93802301Y-81296434D01*
X93802854Y-81291940D01*
X93802855Y-81291938D01*
X93802854Y-81148058D01*
X93782600Y-81007192D01*
X93776329Y-80985836D01*
X93742069Y-80869152D01*
X93742067Y-80869148D01*
X93742066Y-80869144D01*
X93682947Y-80739690D01*
X93682946Y-80739688D01*
X93605158Y-80618648D01*
X93544126Y-80548213D01*
X93511961Y-80511092D01*
X93403224Y-80416871D01*
X93285378Y-80341136D01*
X93283722Y-80340029D01*
X93152629Y-80280161D01*
X93016077Y-80240066D01*
X93016065Y-80240063D01*
X92873657Y-80219589D01*
X92731343Y-80219589D01*
X92731342Y-80219589D01*
X92588934Y-80240063D01*
X92588922Y-80240066D01*
X92450624Y-80280674D01*
X92446323Y-80282924D01*
X92321508Y-80339924D01*
X92321492Y-80339933D01*
X92201775Y-80416871D01*
X92093038Y-80511092D01*
X92002736Y-80615307D01*
X92001238Y-80616915D01*
X91999837Y-80618653D01*
X91922053Y-80739689D01*
X91922052Y-80739691D01*
X91862930Y-80869152D01*
X91822400Y-81007189D01*
X91822399Y-81007192D01*
X91803146Y-81141100D01*
X91802146Y-81148058D01*
X91802145Y-81148062D01*
X87802854Y-81148062D01*
X87802854Y-81148058D01*
X87782600Y-81007192D01*
X87776329Y-80985836D01*
X87742069Y-80869152D01*
X87742067Y-80869148D01*
X87742066Y-80869144D01*
X87682947Y-80739690D01*
X87682946Y-80739688D01*
X87605158Y-80618648D01*
X87544126Y-80548213D01*
X87511961Y-80511092D01*
X87403224Y-80416871D01*
X87285378Y-80341136D01*
X87283722Y-80340029D01*
X87152629Y-80280161D01*
X87016077Y-80240066D01*
X87016065Y-80240063D01*
X86873657Y-80219589D01*
X86731343Y-80219589D01*
X86731342Y-80219589D01*
X86588934Y-80240063D01*
X86588922Y-80240066D01*
X86450624Y-80280674D01*
X86446323Y-80282924D01*
X86321508Y-80339924D01*
X86321492Y-80339933D01*
X86201775Y-80416871D01*
X86093038Y-80511092D01*
X86002736Y-80615307D01*
X86001238Y-80616915D01*
X85999837Y-80618653D01*
X85922053Y-80739689D01*
X85922052Y-80739691D01*
X85862930Y-80869152D01*
X85822400Y-81007189D01*
X85822399Y-81007192D01*
X85803146Y-81141100D01*
X85802146Y-81148058D01*
X85802145Y-81148062D01*
X72959430Y-81148062D01*
X69378421Y-77567052D01*
X69378414Y-77567046D01*
X69304729Y-77517812D01*
X69304729Y-77517813D01*
X69255491Y-77484913D01*
X69118917Y-77428343D01*
X69118907Y-77428340D01*
X68973920Y-77399500D01*
X68973918Y-77399500D01*
X65965784Y-77399500D01*
X65898745Y-77379815D01*
X65878103Y-77363181D01*
X65737785Y-77222863D01*
X65737781Y-77222860D01*
X65573920Y-77113371D01*
X65573907Y-77113364D01*
X65391839Y-77037950D01*
X65391829Y-77037947D01*
X65198543Y-76999500D01*
X65198541Y-76999500D01*
X65001459Y-76999500D01*
X65001457Y-76999500D01*
X64808170Y-77037947D01*
X64808160Y-77037950D01*
X64626092Y-77113364D01*
X64626079Y-77113371D01*
X64462218Y-77222860D01*
X64462214Y-77222863D01*
X64322863Y-77362214D01*
X64322860Y-77362218D01*
X64213371Y-77526079D01*
X64213364Y-77526092D01*
X64137950Y-77708160D01*
X64137947Y-77708170D01*
X64099500Y-77901456D01*
X64099500Y-77901459D01*
X64099500Y-78098541D01*
X64099500Y-78098543D01*
X64099499Y-78098543D01*
X27500500Y-78098543D01*
X27500500Y-75824500D01*
X27520185Y-75757461D01*
X27572989Y-75711706D01*
X27624500Y-75700500D01*
X97175500Y-75700500D01*
X97242539Y-75720185D01*
G37*
%TD.AperFunction*%
%TD*%
M02*
