%TF.GenerationSoftware,KiCad,Pcbnew,9.0.7*%
%TF.CreationDate,2026-03-05T15:15:48+08:00*%
%TF.ProjectId,HSDAC,48534441-432e-46b6-9963-61645f706362,rev?*%
%TF.SameCoordinates,Original*%
%TF.FileFunction,Copper,L1,Top*%
%TF.FilePolarity,Positive*%
%FSLAX46Y46*%
G04 Gerber Fmt 4.6, Leading zero omitted, Abs format (unit mm)*
G04 Created by KiCad (PCBNEW 9.0.7) date 2026-03-05 15:15:48*
%MOMM*%
%LPD*%
G01*
G04 APERTURE LIST*
G04 Aperture macros list*
%AMRoundRect*
0 Rectangle with rounded corners*
0 $1 Rounding radius*
0 $2 $3 $4 $5 $6 $7 $8 $9 X,Y pos of 4 corners*
0 Add a 4 corners polygon primitive as box body*
4,1,4,$2,$3,$4,$5,$6,$7,$8,$9,$2,$3,0*
0 Add four circle primitives for the rounded corners*
1,1,$1+$1,$2,$3*
1,1,$1+$1,$4,$5*
1,1,$1+$1,$6,$7*
1,1,$1+$1,$8,$9*
0 Add four rect primitives between the rounded corners*
20,1,$1+$1,$2,$3,$4,$5,0*
20,1,$1+$1,$4,$5,$6,$7,0*
20,1,$1+$1,$6,$7,$8,$9,0*
20,1,$1+$1,$8,$9,$2,$3,0*%
G04 Aperture macros list end*
%TA.AperFunction,SMDPad,CuDef*%
%ADD10RoundRect,0.237500X-0.237500X0.287500X-0.237500X-0.287500X0.237500X-0.287500X0.237500X0.287500X0*%
%TD*%
%TA.AperFunction,SMDPad,CuDef*%
%ADD11RoundRect,0.237500X0.237500X-0.287500X0.237500X0.287500X-0.237500X0.287500X-0.237500X-0.287500X0*%
%TD*%
%TA.AperFunction,SMDPad,CuDef*%
%ADD12RoundRect,0.237500X-0.250000X-0.237500X0.250000X-0.237500X0.250000X0.237500X-0.250000X0.237500X0*%
%TD*%
%TA.AperFunction,SMDPad,CuDef*%
%ADD13RoundRect,0.100000X0.637500X0.100000X-0.637500X0.100000X-0.637500X-0.100000X0.637500X-0.100000X0*%
%TD*%
%TA.AperFunction,SMDPad,CuDef*%
%ADD14RoundRect,0.218750X-0.218750X-0.256250X0.218750X-0.256250X0.218750X0.256250X-0.218750X0.256250X0*%
%TD*%
%TA.AperFunction,SMDPad,CuDef*%
%ADD15RoundRect,0.237500X0.287500X0.237500X-0.287500X0.237500X-0.287500X-0.237500X0.287500X-0.237500X0*%
%TD*%
%TA.AperFunction,SMDPad,CuDef*%
%ADD16RoundRect,0.237500X-0.287500X-0.237500X0.287500X-0.237500X0.287500X0.237500X-0.287500X0.237500X0*%
%TD*%
%TA.AperFunction,SMDPad,CuDef*%
%ADD17RoundRect,0.237500X0.250000X0.237500X-0.250000X0.237500X-0.250000X-0.237500X0.250000X-0.237500X0*%
%TD*%
%TA.AperFunction,SMDPad,CuDef*%
%ADD18RoundRect,0.250000X-0.450000X-0.350000X0.450000X-0.350000X0.450000X0.350000X-0.450000X0.350000X0*%
%TD*%
%TA.AperFunction,SMDPad,CuDef*%
%ADD19R,0.900000X1.700000*%
%TD*%
%TA.AperFunction,SMDPad,CuDef*%
%ADD20RoundRect,0.250000X-1.250000X-0.550000X1.250000X-0.550000X1.250000X0.550000X-1.250000X0.550000X0*%
%TD*%
%TA.AperFunction,SMDPad,CuDef*%
%ADD21R,0.600000X1.200000*%
%TD*%
%TA.AperFunction,SMDPad,CuDef*%
%ADD22RoundRect,0.237500X-0.237500X0.250000X-0.237500X-0.250000X0.237500X-0.250000X0.237500X0.250000X0*%
%TD*%
%TA.AperFunction,SMDPad,CuDef*%
%ADD23RoundRect,0.237500X0.237500X-0.250000X0.237500X0.250000X-0.237500X0.250000X-0.237500X-0.250000X0*%
%TD*%
%TA.AperFunction,SMDPad,CuDef*%
%ADD24RoundRect,0.150000X-0.150000X0.825000X-0.150000X-0.825000X0.150000X-0.825000X0.150000X0.825000X0*%
%TD*%
%TA.AperFunction,SMDPad,CuDef*%
%ADD25RoundRect,0.250000X-0.550000X1.250000X-0.550000X-1.250000X0.550000X-1.250000X0.550000X1.250000X0*%
%TD*%
%TA.AperFunction,SMDPad,CuDef*%
%ADD26RoundRect,0.218750X0.218750X0.256250X-0.218750X0.256250X-0.218750X-0.256250X0.218750X-0.256250X0*%
%TD*%
%TA.AperFunction,SMDPad,CuDef*%
%ADD27R,1.500000X3.000000*%
%TD*%
%TA.AperFunction,SMDPad,CuDef*%
%ADD28R,0.300000X0.900000*%
%TD*%
%TA.AperFunction,SMDPad,CuDef*%
%ADD29R,0.900000X0.300000*%
%TD*%
%TA.AperFunction,SMDPad,CuDef*%
%ADD30R,3.600000X3.600000*%
%TD*%
%TA.AperFunction,SMDPad,CuDef*%
%ADD31RoundRect,0.150000X-0.512500X-0.150000X0.512500X-0.150000X0.512500X0.150000X-0.512500X0.150000X0*%
%TD*%
%TA.AperFunction,SMDPad,CuDef*%
%ADD32RoundRect,0.150000X0.150000X-0.587500X0.150000X0.587500X-0.150000X0.587500X-0.150000X-0.587500X0*%
%TD*%
%TA.AperFunction,SMDPad,CuDef*%
%ADD33R,1.240000X0.600000*%
%TD*%
%TA.AperFunction,SMDPad,CuDef*%
%ADD34R,1.240000X0.300000*%
%TD*%
%TA.AperFunction,HeatsinkPad*%
%ADD35O,2.100000X1.000000*%
%TD*%
%TA.AperFunction,HeatsinkPad*%
%ADD36O,1.800000X1.000000*%
%TD*%
%TA.AperFunction,SMDPad,CuDef*%
%ADD37RoundRect,0.150000X-0.700000X0.150000X-0.700000X-0.150000X0.700000X-0.150000X0.700000X0.150000X0*%
%TD*%
%TA.AperFunction,SMDPad,CuDef*%
%ADD38RoundRect,0.250000X-1.100000X0.250000X-1.100000X-0.250000X1.100000X-0.250000X1.100000X0.250000X0*%
%TD*%
%TA.AperFunction,SMDPad,CuDef*%
%ADD39RoundRect,0.218750X0.256250X-0.218750X0.256250X0.218750X-0.256250X0.218750X-0.256250X-0.218750X0*%
%TD*%
%TA.AperFunction,ViaPad*%
%ADD40C,1.000000*%
%TD*%
%TA.AperFunction,ViaPad*%
%ADD41C,0.600000*%
%TD*%
%TA.AperFunction,Conductor*%
%ADD42C,0.200000*%
%TD*%
%TA.AperFunction,Conductor*%
%ADD43C,0.500000*%
%TD*%
%TA.AperFunction,Conductor*%
%ADD44C,0.127000*%
%TD*%
G04 APERTURE END LIST*
D10*
%TO.P,C34,1*%
%TO.N,+3.3VA*%
X44367500Y-77487500D03*
%TO.P,C34,2*%
%TO.N,GND*%
X44367500Y-79237500D03*
%TD*%
D11*
%TO.P,C38,1*%
%TO.N,+5VA*%
X73165000Y-94825000D03*
%TO.P,C38,2*%
%TO.N,GND*%
X73165000Y-93075000D03*
%TD*%
D12*
%TO.P,R7,1*%
%TO.N,/SCK*%
X46232500Y-85067000D03*
%TO.P,R7,2*%
%TO.N,Net-(IC1-XI(MCLK))*%
X48057500Y-85067000D03*
%TD*%
D11*
%TO.P,C22,1*%
%TO.N,Net-(U7A--)*%
X78373000Y-85022000D03*
%TO.P,C22,2*%
%TO.N,/AOUT.L*%
X78373000Y-83272000D03*
%TD*%
D12*
%TO.P,R29,1*%
%TO.N,+3.3VA*%
X58285500Y-77321000D03*
%TO.P,R29,2*%
%TO.N,/Vref*%
X60110500Y-77321000D03*
%TD*%
%TO.P,R3,1*%
%TO.N,Net-(J3-CC1)*%
X33463500Y-97052500D03*
%TO.P,R3,2*%
%TO.N,GND*%
X35288500Y-97052500D03*
%TD*%
D10*
%TO.P,C27,1*%
%TO.N,+5V*%
X36967500Y-77638500D03*
%TO.P,C27,2*%
%TO.N,GND*%
X36967500Y-79388500D03*
%TD*%
D13*
%TO.P,U1,1,~{RST}*%
%TO.N,/NRST*%
X43412500Y-92160000D03*
%TO.P,U1,2,PA1/PA5*%
%TO.N,/RESETB*%
X43412500Y-91510000D03*
%TO.P,U1,3,I2C2_SCL*%
%TO.N,/SCL*%
X43412500Y-90860000D03*
%TO.P,U1,4,I2C2_SDA*%
%TO.N,/SDA*%
X43412500Y-90210000D03*
%TO.P,U1,5,I2S2_WS*%
%TO.N,/LRCK*%
X43412500Y-89560000D03*
%TO.P,U1,6,I2S2_CK*%
%TO.N,/BCK*%
X43412500Y-88910000D03*
%TO.P,U1,7,PB14*%
%TO.N,unconnected-(U1-PB14-Pad7)*%
X43412500Y-88260000D03*
%TO.P,U1,8,I2S2_SD*%
%TO.N,/DIN*%
X43412500Y-87610000D03*
%TO.P,U1,9,I2S2_MCK*%
%TO.N,/SCK*%
X43412500Y-86960000D03*
%TO.P,U1,10,PC7*%
%TO.N,unconnected-(U1-PC7-Pad10)*%
X43412500Y-86310000D03*
%TO.P,U1,11,PC8*%
%TO.N,unconnected-(U1-PC8-Pad11)*%
X37687500Y-86310000D03*
%TO.P,U1,12,PA8/PC9*%
%TO.N,unconnected-(U1-PA8{slash}PC9-Pad12)*%
X37687500Y-86960000D03*
%TO.P,U1,13,SWDIO*%
%TO.N,/SWDIO*%
X37687500Y-87610000D03*
%TO.P,U1,14,VDD33*%
%TO.N,+3.3V*%
X37687500Y-88260000D03*
%TO.P,U1,15,SWCLK*%
%TO.N,/SWCLK*%
X37687500Y-88910000D03*
%TO.P,U1,16,USBHS_DM*%
%TO.N,/D-*%
X37687500Y-89560000D03*
%TO.P,U1,17,USBHS_DP*%
%TO.N,/D+*%
X37687500Y-90210000D03*
%TO.P,U1,18,VSS*%
%TO.N,GND*%
X37687500Y-90860000D03*
%TO.P,U1,19,OSC_IN*%
%TO.N,/OSC_IN*%
X37687500Y-91510000D03*
%TO.P,U1,20,OSC_OUT*%
%TO.N,/OSC_OUT*%
X37687500Y-92160000D03*
%TD*%
D14*
%TO.P,FB1,1*%
%TO.N,+3.3V*%
X46414500Y-78710000D03*
%TO.P,FB1,2*%
%TO.N,Net-(IC1-DVCC)*%
X47989500Y-78710000D03*
%TD*%
D15*
%TO.P,C6,1*%
%TO.N,Net-(IC1-DVDD)*%
X48039000Y-83567000D03*
%TO.P,C6,2*%
%TO.N,GND*%
X46289000Y-83567000D03*
%TD*%
D16*
%TO.P,C2,1*%
%TO.N,/OSC_IN*%
X40193000Y-93581000D03*
%TO.P,C2,2*%
%TO.N,GND*%
X41943000Y-93581000D03*
%TD*%
D12*
%TO.P,R21,1*%
%TO.N,Net-(C18-Pad2)*%
X67866000Y-86061500D03*
%TO.P,R21,2*%
%TO.N,Net-(U7A-+)*%
X69691000Y-86061500D03*
%TD*%
D17*
%TO.P,R31,1*%
%TO.N,Net-(PJ2-Pad2)*%
X82061500Y-87994500D03*
%TO.P,R31,2*%
%TO.N,/AOUT.R*%
X80236500Y-87994500D03*
%TD*%
D16*
%TO.P,C8,1*%
%TO.N,GND*%
X53778000Y-81842500D03*
%TO.P,C8,2*%
%TO.N,Net-(IC1-AVCC_L)*%
X55528000Y-81842500D03*
%TD*%
D18*
%TO.P,X1,1,1*%
%TO.N,/OSC_OUT*%
X38050000Y-96860000D03*
%TO.P,X1,2,2*%
%TO.N,GND*%
X40250000Y-96860000D03*
%TO.P,X1,3,3*%
%TO.N,/OSC_IN*%
X40250000Y-95160000D03*
%TO.P,X1,4,4*%
%TO.N,GND*%
X38050000Y-95160000D03*
%TD*%
D16*
%TO.P,C15,1*%
%TO.N,+5V*%
X68381000Y-76793000D03*
%TO.P,C15,2*%
%TO.N,GND*%
X70131000Y-76793000D03*
%TD*%
%TO.P,C11,1*%
%TO.N,GND*%
X46378000Y-80393500D03*
%TO.P,C11,2*%
%TO.N,Net-(IC1-DVCC)*%
X48128000Y-80393500D03*
%TD*%
D19*
%TO.P,SW1,1,1*%
%TO.N,GND*%
X42090000Y-95975000D03*
%TO.P,SW1,2,2*%
%TO.N,/NRST*%
X46540000Y-95975000D03*
%TD*%
D20*
%TO.P,C36,1*%
%TO.N,-5V*%
X76836000Y-79446000D03*
%TO.P,C36,2*%
%TO.N,GND*%
X81236000Y-79446000D03*
%TD*%
D21*
%TO.P,PS2,1,OUT*%
%TO.N,-5VA*%
X52422584Y-95154832D03*
%TO.P,PS2,2,IN*%
%TO.N,+5V*%
X53372584Y-95154832D03*
%TO.P,PS2,3,CFLY-*%
%TO.N,Net-(PS2-CFLY-)*%
X54322584Y-95154832D03*
%TO.P,PS2,4,GND*%
%TO.N,GND*%
X54322584Y-92654832D03*
%TO.P,PS2,5,EN*%
%TO.N,Net-(PS2-EN)*%
X53372584Y-92654832D03*
%TO.P,PS2,6,CFLY+*%
%TO.N,Net-(PS2-CFLY+)*%
X52422584Y-92654832D03*
%TD*%
D16*
%TO.P,C10,1*%
%TO.N,GND*%
X49919000Y-81760500D03*
%TO.P,C10,2*%
%TO.N,Net-(IC1-VCCA)*%
X51669000Y-81760500D03*
%TD*%
D22*
%TO.P,R18,1*%
%TO.N,+5V*%
X35511000Y-79379500D03*
%TO.P,R18,2*%
%TO.N,Net-(D3-A)*%
X35511000Y-81204500D03*
%TD*%
D12*
%TO.P,R33,1*%
%TO.N,Net-(PS2-EN)*%
X57608172Y-95662000D03*
%TO.P,R33,2*%
%TO.N,+5V*%
X59433172Y-95662000D03*
%TD*%
D15*
%TO.P,C4,1*%
%TO.N,+3.3V*%
X42209000Y-84909500D03*
%TO.P,C4,2*%
%TO.N,GND*%
X40459000Y-84909500D03*
%TD*%
D11*
%TO.P,C19,1*%
%TO.N,/DACRB*%
X64932000Y-89833500D03*
%TO.P,C19,2*%
%TO.N,Net-(C19-Pad2)*%
X64932000Y-88083500D03*
%TD*%
D23*
%TO.P,R14,1*%
%TO.N,/DACRB*%
X63377000Y-89939000D03*
%TO.P,R14,2*%
%TO.N,Net-(C19-Pad2)*%
X63377000Y-88114000D03*
%TD*%
D12*
%TO.P,R2,1*%
%TO.N,Net-(J3-CC2)*%
X33463500Y-95535500D03*
%TO.P,R2,2*%
%TO.N,GND*%
X35288500Y-95535500D03*
%TD*%
D22*
%TO.P,R19,1*%
%TO.N,-5V*%
X73566500Y-76412000D03*
%TO.P,R19,2*%
%TO.N,Net-(PS1-OUT)*%
X73566500Y-78237000D03*
%TD*%
D16*
%TO.P,C9,1*%
%TO.N,GND*%
X50023000Y-80212000D03*
%TO.P,C9,2*%
%TO.N,Net-(IC1-VCCA)*%
X51773000Y-80212000D03*
%TD*%
%TO.P,C23,1*%
%TO.N,GND*%
X67969000Y-84559500D03*
%TO.P,C23,2*%
%TO.N,Net-(U7A-+)*%
X69719000Y-84559500D03*
%TD*%
D21*
%TO.P,PS1,1,OUT*%
%TO.N,Net-(PS1-OUT)*%
X70369500Y-78422000D03*
%TO.P,PS1,2,IN*%
%TO.N,+5V*%
X69419500Y-78422000D03*
%TO.P,PS1,3,CFLY-*%
%TO.N,Net-(PS1-CFLY-)*%
X68469500Y-78422000D03*
%TO.P,PS1,4,GND*%
%TO.N,GND*%
X68469500Y-80922000D03*
%TO.P,PS1,5,EN*%
%TO.N,Net-(PS1-EN)*%
X69419500Y-80922000D03*
%TO.P,PS1,6,CFLY+*%
%TO.N,Net-(PS1-CFLY+)*%
X70369500Y-80922000D03*
%TD*%
D24*
%TO.P,U4,1*%
%TO.N,Net-(C19-Pad2)*%
X61715000Y-88468000D03*
%TO.P,U4,2,-*%
%TO.N,/DACRB*%
X60445000Y-88468000D03*
%TO.P,U4,3,+*%
%TO.N,/Vref*%
X59175000Y-88468000D03*
%TO.P,U4,4,V-*%
%TO.N,-5VA*%
X57905000Y-88468000D03*
%TO.P,U4,5,+*%
%TO.N,/Vref*%
X57905000Y-93418000D03*
%TO.P,U4,6,-*%
%TO.N,/DACR*%
X59175000Y-93418000D03*
%TO.P,U4,7*%
%TO.N,Net-(C20-Pad2)*%
X60445000Y-93418000D03*
%TO.P,U4,8,V+*%
%TO.N,+5VA*%
X61715000Y-93418000D03*
%TD*%
D12*
%TO.P,R23,1*%
%TO.N,GND*%
X67973500Y-83095500D03*
%TO.P,R23,2*%
%TO.N,Net-(U7A-+)*%
X69798500Y-83095500D03*
%TD*%
D10*
%TO.P,C18,1*%
%TO.N,/DACL*%
X63311000Y-83168500D03*
%TO.P,C18,2*%
%TO.N,Net-(C18-Pad2)*%
X63311000Y-84918500D03*
%TD*%
D11*
%TO.P,C17,1*%
%TO.N,/DACLB*%
X63311000Y-81487000D03*
%TO.P,C17,2*%
%TO.N,Net-(C17-Pad2)*%
X63311000Y-79737000D03*
%TD*%
D25*
%TO.P,C35,1*%
%TO.N,+5V*%
X80300000Y-90760000D03*
%TO.P,C35,2*%
%TO.N,GND*%
X80300000Y-95160000D03*
%TD*%
D26*
%TO.P,FB4,1*%
%TO.N,+5V*%
X76267500Y-93993000D03*
%TO.P,FB4,2*%
%TO.N,+5VA*%
X74692500Y-93993000D03*
%TD*%
D22*
%TO.P,R16,1*%
%TO.N,/DACR*%
X64954000Y-91446000D03*
%TO.P,R16,2*%
%TO.N,Net-(C20-Pad2)*%
X64954000Y-93271000D03*
%TD*%
D12*
%TO.P,R34,1*%
%TO.N,/SCL*%
X45631500Y-91758500D03*
%TO.P,R34,2*%
%TO.N,Net-(IC1-SCL)*%
X47456500Y-91758500D03*
%TD*%
D17*
%TO.P,R24,1*%
%TO.N,Net-(PJ1-Pad2)*%
X82060500Y-84858500D03*
%TO.P,R24,2*%
%TO.N,/AOUT.R*%
X80235500Y-84858500D03*
%TD*%
D22*
%TO.P,R20,1*%
%TO.N,Net-(C17-Pad2)*%
X66402000Y-84607000D03*
%TO.P,R20,2*%
%TO.N,Net-(U7A--)*%
X66402000Y-86432000D03*
%TD*%
D24*
%TO.P,U7,1*%
%TO.N,/AOUT.L*%
X75235000Y-84521000D03*
%TO.P,U7,2,-*%
%TO.N,Net-(U7A--)*%
X73965000Y-84521000D03*
%TO.P,U7,3,+*%
%TO.N,Net-(U7A-+)*%
X72695000Y-84521000D03*
%TO.P,U7,4,V-*%
%TO.N,-5V*%
X71425000Y-84521000D03*
%TO.P,U7,5,+*%
%TO.N,Net-(U7B-+)*%
X71425000Y-89471000D03*
%TO.P,U7,6,-*%
%TO.N,Net-(U7B--)*%
X72695000Y-89471000D03*
%TO.P,U7,7*%
%TO.N,/AOUT.R*%
X73965000Y-89471000D03*
%TO.P,U7,8,V+*%
%TO.N,+5VA*%
X75235000Y-89471000D03*
%TD*%
D12*
%TO.P,R5,1*%
%TO.N,/LRCK*%
X45232500Y-89892000D03*
%TO.P,R5,2*%
%TO.N,Net-(IC1-DATA1)*%
X47057500Y-89892000D03*
%TD*%
D27*
%TO.P,PJ1,1,1*%
%TO.N,GND*%
X94202500Y-84720000D03*
%TO.P,PJ1,2,2*%
%TO.N,Net-(PJ1-Pad2)*%
X90602500Y-84720000D03*
%TO.P,PJ1,3,3*%
%TO.N,Net-(PJ1-Pad3)*%
X86302500Y-77720000D03*
%TO.P,PJ1,4,4*%
%TO.N,unconnected-(PJ1-Pad4)*%
X84502500Y-84720000D03*
%TO.P,PJ1,5,5*%
%TO.N,GND*%
X93302500Y-77720000D03*
%TD*%
D16*
%TO.P,C13,1*%
%TO.N,GND*%
X37021000Y-84919000D03*
%TO.P,C13,2*%
%TO.N,+3.3V*%
X38771000Y-84919000D03*
%TD*%
D10*
%TO.P,C20,1*%
%TO.N,/DACR*%
X63420000Y-91574000D03*
%TO.P,C20,2*%
%TO.N,Net-(C20-Pad2)*%
X63420000Y-93324000D03*
%TD*%
D22*
%TO.P,R12,1*%
%TO.N,/DACL*%
X64877000Y-83178000D03*
%TO.P,R12,2*%
%TO.N,Net-(C18-Pad2)*%
X64877000Y-85003000D03*
%TD*%
D12*
%TO.P,R4,1*%
%TO.N,/DIN*%
X46232500Y-86602000D03*
%TO.P,R4,2*%
%TO.N,Net-(IC1-DATA2)*%
X48057500Y-86602000D03*
%TD*%
D28*
%TO.P,IC1,1,DGND_1*%
%TO.N,GND*%
X51140000Y-89450000D03*
%TO.P,IC1,2,N.C._1*%
%TO.N,unconnected-(IC1-N.C._1-Pad2)*%
X51640000Y-89450000D03*
%TO.P,IC1,3,SCL*%
%TO.N,Net-(IC1-SCL)*%
X52140000Y-89450000D03*
%TO.P,IC1,4,SDA*%
%TO.N,/SDA*%
X52640000Y-89450000D03*
%TO.P,IC1,5,ADDR*%
%TO.N,Net-(IC1-ADDR)*%
X53140000Y-89450000D03*
%TO.P,IC1,6,XO*%
%TO.N,unconnected-(IC1-XO-Pad6)*%
X53640000Y-89450000D03*
%TO.P,IC1,7,XI(MCLK)*%
%TO.N,Net-(IC1-XI(MCLK))*%
X54140000Y-89450000D03*
D29*
%TO.P,IC1,8,AGND*%
%TO.N,GND*%
X55090000Y-88500000D03*
%TO.P,IC1,9,DACR*%
%TO.N,/DACR*%
X55090000Y-88000000D03*
%TO.P,IC1,10,DACRB*%
%TO.N,/DACRB*%
X55090000Y-87500000D03*
%TO.P,IC1,11,AGND_R*%
%TO.N,GND*%
X55090000Y-87000000D03*
%TO.P,IC1,12,AGND_L*%
X55090000Y-86500000D03*
%TO.P,IC1,13,DACL*%
%TO.N,/DACL*%
X55090000Y-86000000D03*
%TO.P,IC1,14,DACLB*%
%TO.N,/DACLB*%
X55090000Y-85500000D03*
D28*
%TO.P,IC1,15,AVCC_L*%
%TO.N,Net-(IC1-AVCC_L)*%
X54140000Y-84550000D03*
%TO.P,IC1,16,AVCC_R*%
X53640000Y-84550000D03*
%TO.P,IC1,17,VCCA*%
%TO.N,Net-(IC1-VCCA)*%
X53140000Y-84550000D03*
%TO.P,IC1,18,DVCC*%
%TO.N,Net-(IC1-DVCC)*%
X52640000Y-84550000D03*
%TO.P,IC1,19,N.C._2*%
%TO.N,unconnected-(IC1-N.C._2-Pad19)*%
X52140000Y-84550000D03*
%TO.P,IC1,20,DGND_2*%
%TO.N,GND*%
X51640000Y-84550000D03*
%TO.P,IC1,21,DVDD*%
%TO.N,Net-(IC1-DVDD)*%
X51140000Y-84550000D03*
D29*
%TO.P,IC1,22,N.C._3*%
%TO.N,unconnected-(IC1-N.C._3-Pad22)*%
X50190000Y-85500000D03*
%TO.P,IC1,23,GPIO2*%
%TO.N,unconnected-(IC1-GPIO2-Pad23)*%
X50190000Y-86000000D03*
%TO.P,IC1,24,GPIO1*%
%TO.N,unconnected-(IC1-GPIO1-Pad24)*%
X50190000Y-86500000D03*
%TO.P,IC1,25,DATA2*%
%TO.N,Net-(IC1-DATA2)*%
X50190000Y-87000000D03*
%TO.P,IC1,26,DATA1*%
%TO.N,Net-(IC1-DATA1)*%
X50190000Y-87500000D03*
%TO.P,IC1,27,DATA_CLK*%
%TO.N,Net-(IC1-DATA_CLK)*%
X50190000Y-88000000D03*
%TO.P,IC1,28,RESETB*%
%TO.N,/RESETB*%
X50190000Y-88500000D03*
D30*
%TO.P,IC1,29,EP*%
%TO.N,GND*%
X52640000Y-87000000D03*
%TD*%
D16*
%TO.P,C12,1*%
%TO.N,GND*%
X46289000Y-81910500D03*
%TO.P,C12,2*%
%TO.N,Net-(IC1-DVCC)*%
X48039000Y-81910500D03*
%TD*%
D12*
%TO.P,R9,1*%
%TO.N,Net-(C20-Pad2)*%
X67960500Y-93145500D03*
%TO.P,R9,2*%
%TO.N,Net-(U7B-+)*%
X69785500Y-93145500D03*
%TD*%
%TO.P,R11,1*%
%TO.N,Net-(C19-Pad2)*%
X68817500Y-91575500D03*
%TO.P,R11,2*%
%TO.N,Net-(U7B--)*%
X70642500Y-91575500D03*
%TD*%
D16*
%TO.P,C26,1*%
%TO.N,/Vref*%
X61657000Y-78055000D03*
%TO.P,C26,2*%
%TO.N,GND*%
X63407000Y-78055000D03*
%TD*%
D10*
%TO.P,C3,1*%
%TO.N,+5V*%
X39008000Y-81414000D03*
%TO.P,C3,2*%
%TO.N,GND*%
X39008000Y-83164000D03*
%TD*%
D11*
%TO.P,C37,1*%
%TO.N,+5VA*%
X71626000Y-94905000D03*
%TO.P,C37,2*%
%TO.N,GND*%
X71626000Y-93155000D03*
%TD*%
D10*
%TO.P,C42,1*%
%TO.N,Net-(PS2-CFLY+)*%
X55918000Y-93415832D03*
%TO.P,C42,2*%
%TO.N,Net-(PS2-CFLY-)*%
X55918000Y-95165832D03*
%TD*%
D12*
%TO.P,R6,1*%
%TO.N,/BCK*%
X46232500Y-88381000D03*
%TO.P,R6,2*%
%TO.N,Net-(IC1-DATA_CLK)*%
X48057500Y-88381000D03*
%TD*%
D17*
%TO.P,R32,1*%
%TO.N,Net-(PJ2-Pad3)*%
X82060500Y-86477500D03*
%TO.P,R32,2*%
%TO.N,/AOUT.L*%
X80235500Y-86477500D03*
%TD*%
D23*
%TO.P,R22,1*%
%TO.N,Net-(U7A--)*%
X76884000Y-84995500D03*
%TO.P,R22,2*%
%TO.N,/AOUT.L*%
X76884000Y-83170500D03*
%TD*%
D11*
%TO.P,C16,1*%
%TO.N,Net-(PS1-OUT)*%
X71989000Y-78107000D03*
%TO.P,C16,2*%
%TO.N,GND*%
X71989000Y-76357000D03*
%TD*%
D15*
%TO.P,C5,1*%
%TO.N,GND*%
X45381000Y-93456500D03*
%TO.P,C5,2*%
%TO.N,/NRST*%
X43631000Y-93456500D03*
%TD*%
D10*
%TO.P,C24,1*%
%TO.N,Net-(U7B--)*%
X76840000Y-86706000D03*
%TO.P,C24,2*%
%TO.N,/AOUT.R*%
X76840000Y-88456000D03*
%TD*%
D17*
%TO.P,R30,1*%
%TO.N,/Vref*%
X60110500Y-78804000D03*
%TO.P,R30,2*%
%TO.N,GND*%
X58285500Y-78804000D03*
%TD*%
D11*
%TO.P,C33,1*%
%TO.N,-5V*%
X73505000Y-81609250D03*
%TO.P,C33,2*%
%TO.N,GND*%
X73505000Y-79859250D03*
%TD*%
D16*
%TO.P,C25,1*%
%TO.N,GND*%
X67997000Y-90043500D03*
%TO.P,C25,2*%
%TO.N,Net-(U7B-+)*%
X69747000Y-90043500D03*
%TD*%
%TO.P,C21,1*%
%TO.N,Net-(J3-SHIELD)*%
X28947000Y-97117000D03*
%TO.P,C21,2*%
%TO.N,GND*%
X30697000Y-97117000D03*
%TD*%
D24*
%TO.P,U3,1*%
%TO.N,Net-(C17-Pad2)*%
X61785000Y-80883000D03*
%TO.P,U3,2,-*%
%TO.N,/DACLB*%
X60515000Y-80883000D03*
%TO.P,U3,3,+*%
%TO.N,/Vref*%
X59245000Y-80883000D03*
%TO.P,U3,4,V-*%
%TO.N,-5VA*%
X57975000Y-80883000D03*
%TO.P,U3,5,+*%
%TO.N,/Vref*%
X57975000Y-85833000D03*
%TO.P,U3,6,-*%
%TO.N,/DACL*%
X59245000Y-85833000D03*
%TO.P,U3,7*%
%TO.N,Net-(C18-Pad2)*%
X60515000Y-85833000D03*
%TO.P,U3,8,V+*%
%TO.N,+5VA*%
X61785000Y-85833000D03*
%TD*%
D27*
%TO.P,PJ2,1,1*%
%TO.N,GND*%
X94002500Y-95892000D03*
%TO.P,PJ2,2,2*%
%TO.N,Net-(PJ2-Pad2)*%
X90402500Y-95892000D03*
%TO.P,PJ2,3,3*%
%TO.N,Net-(PJ2-Pad3)*%
X86102500Y-88892000D03*
%TO.P,PJ2,4,4*%
%TO.N,unconnected-(PJ2-Pad4)*%
X84302500Y-95892000D03*
%TO.P,PJ2,5,5*%
%TO.N,GND*%
X93102500Y-88892000D03*
%TD*%
D26*
%TO.P,F1,1*%
%TO.N,Net-(F1-Pad1)*%
X35087500Y-83038000D03*
%TO.P,F1,2*%
%TO.N,+5V*%
X33512500Y-83038000D03*
%TD*%
D14*
%TO.P,FB2,1*%
%TO.N,+3.3VA*%
X50043500Y-78714000D03*
%TO.P,FB2,2*%
%TO.N,Net-(IC1-VCCA)*%
X51618500Y-78714000D03*
%TD*%
D31*
%TO.P,U5,1,IN*%
%TO.N,+5V*%
X40420000Y-77290000D03*
%TO.P,U5,2,GND*%
%TO.N,GND*%
X40420000Y-78240000D03*
%TO.P,U5,3,EN*%
%TO.N,Net-(U5-EN)*%
X40420000Y-79190000D03*
%TO.P,U5,4,NC*%
%TO.N,unconnected-(U5-NC-Pad4)*%
X42695000Y-79190000D03*
%TO.P,U5,5,OUT*%
%TO.N,+3.3VA*%
X42695000Y-77290000D03*
%TD*%
D22*
%TO.P,R15,1*%
%TO.N,Net-(U7B--)*%
X78365000Y-86585500D03*
%TO.P,R15,2*%
%TO.N,/AOUT.R*%
X78365000Y-88410500D03*
%TD*%
D16*
%TO.P,C1,1*%
%TO.N,/OSC_OUT*%
X36759000Y-93566000D03*
%TO.P,C1,2*%
%TO.N,GND*%
X38509000Y-93566000D03*
%TD*%
D32*
%TO.P,U2,1,GND*%
%TO.N,GND*%
X40598000Y-83002500D03*
%TO.P,U2,2,Vout*%
%TO.N,+3.3V*%
X42498000Y-83002500D03*
%TO.P,U2,3,VIN*%
%TO.N,+5V*%
X41548000Y-81127500D03*
%TD*%
D16*
%TO.P,C7,1*%
%TO.N,GND*%
X53689000Y-80325500D03*
%TO.P,C7,2*%
%TO.N,Net-(IC1-AVCC_L)*%
X55439000Y-80325500D03*
%TD*%
D33*
%TO.P,J3,A1,GND*%
%TO.N,GND*%
X34855000Y-86275000D03*
%TO.P,J3,A4,VBUS*%
%TO.N,Net-(F1-Pad1)*%
X34855000Y-87075000D03*
D34*
%TO.P,J3,A5,CC1*%
%TO.N,Net-(J3-CC1)*%
X34855000Y-88225000D03*
%TO.P,J3,A6,D+*%
%TO.N,/D+*%
X34855000Y-89225000D03*
%TO.P,J3,A7,D-*%
%TO.N,/D-*%
X34855000Y-89725000D03*
%TO.P,J3,A8,SBU1*%
%TO.N,unconnected-(J3-SBU1-PadA8)*%
X34855000Y-90725000D03*
D33*
%TO.P,J3,A9,VBUS*%
%TO.N,Net-(F1-Pad1)*%
X34855000Y-91875000D03*
%TO.P,J3,A12,GND*%
%TO.N,GND*%
X34855000Y-92675000D03*
%TO.P,J3,B1,GND*%
X34855000Y-92675000D03*
%TO.P,J3,B4,VBUS*%
%TO.N,Net-(F1-Pad1)*%
X34855000Y-91875000D03*
D34*
%TO.P,J3,B5,CC2*%
%TO.N,Net-(J3-CC2)*%
X34855000Y-91225000D03*
%TO.P,J3,B6,D+*%
%TO.N,/D+*%
X34855000Y-90225000D03*
%TO.P,J3,B7,D-*%
%TO.N,/D-*%
X34855000Y-88725000D03*
%TO.P,J3,B8,SBU2*%
%TO.N,unconnected-(J3-SBU2-PadB8)*%
X34855000Y-87725000D03*
D33*
%TO.P,J3,B9,VBUS*%
%TO.N,Net-(F1-Pad1)*%
X34855000Y-87075000D03*
%TO.P,J3,B12,GND*%
%TO.N,GND*%
X34855000Y-86275000D03*
D35*
%TO.P,J3,S1,SHIELD*%
%TO.N,Net-(J3-SHIELD)*%
X34255000Y-85155000D03*
D36*
X30055000Y-85155000D03*
D35*
X34255000Y-93795000D03*
D36*
X30055000Y-93795000D03*
%TD*%
D11*
%TO.P,C14,1*%
%TO.N,Net-(PS1-CFLY+)*%
X71961500Y-81479000D03*
%TO.P,C14,2*%
%TO.N,Net-(PS1-CFLY-)*%
X71961500Y-79729000D03*
%TD*%
D12*
%TO.P,R17,1*%
%TO.N,Net-(J3-SHIELD)*%
X28998500Y-95578000D03*
%TO.P,R17,2*%
%TO.N,GND*%
X30823500Y-95578000D03*
%TD*%
D16*
%TO.P,C32,1*%
%TO.N,GND*%
X73260000Y-91550000D03*
%TO.P,C32,2*%
%TO.N,+5VA*%
X75010000Y-91550000D03*
%TD*%
D17*
%TO.P,R25,1*%
%TO.N,Net-(PJ1-Pad3)*%
X82060500Y-83251000D03*
%TO.P,R25,2*%
%TO.N,/AOUT.L*%
X80235500Y-83251000D03*
%TD*%
D37*
%TO.P,J2,1,Pin_1*%
%TO.N,GND*%
X32060000Y-78670000D03*
%TO.P,J2,2,Pin_2*%
%TO.N,/SWCLK*%
X32060000Y-79920000D03*
%TO.P,J2,3,Pin_3*%
%TO.N,/SWDIO*%
X32060000Y-81170000D03*
D38*
%TO.P,J2,MP*%
%TO.N,N/C*%
X28860000Y-76820000D03*
X28860000Y-83020000D03*
%TD*%
D22*
%TO.P,R1,1*%
%TO.N,+5V*%
X38635000Y-77590500D03*
%TO.P,R1,2*%
%TO.N,Net-(U5-EN)*%
X38635000Y-79415500D03*
%TD*%
D14*
%TO.P,FB3,1*%
%TO.N,+3.3VA*%
X53769500Y-78750000D03*
%TO.P,FB3,2*%
%TO.N,Net-(IC1-AVCC_L)*%
X55344500Y-78750000D03*
%TD*%
D15*
%TO.P,C39,1*%
%TO.N,+5V*%
X53385000Y-96797328D03*
%TO.P,C39,2*%
%TO.N,GND*%
X51635000Y-96797328D03*
%TD*%
D12*
%TO.P,R13,1*%
%TO.N,GND*%
X67893500Y-88409500D03*
%TO.P,R13,2*%
%TO.N,Net-(U7B-+)*%
X69718500Y-88409500D03*
%TD*%
D39*
%TO.P,D3,1,K*%
%TO.N,GND*%
X37066000Y-83447500D03*
%TO.P,D3,2,A*%
%TO.N,Net-(D3-A)*%
X37066000Y-81872500D03*
%TD*%
D15*
%TO.P,C40,1*%
%TO.N,-5VA*%
X50755500Y-95259916D03*
%TO.P,C40,2*%
%TO.N,GND*%
X49005500Y-95259916D03*
%TD*%
D23*
%TO.P,R8,1*%
%TO.N,Net-(PS1-EN)*%
X66659500Y-78692500D03*
%TO.P,R8,2*%
%TO.N,+5V*%
X66659500Y-76867500D03*
%TD*%
%TO.P,R10,1*%
%TO.N,/DACLB*%
X64954000Y-81569000D03*
%TO.P,R10,2*%
%TO.N,Net-(C17-Pad2)*%
X64954000Y-79744000D03*
%TD*%
D40*
%TO.N,GND*%
X80300000Y-95160000D03*
X94202500Y-84720000D03*
X70131000Y-76793000D03*
X67997000Y-90043500D03*
X49005500Y-95259916D03*
X58285500Y-78804000D03*
X52640000Y-87000000D03*
X46289000Y-81910500D03*
X30697000Y-97117000D03*
X44367500Y-79237500D03*
X67969000Y-84559500D03*
X54650000Y-92700000D03*
X71626000Y-93155000D03*
X45381000Y-93456500D03*
X38050000Y-95160000D03*
X53689000Y-80325500D03*
X71989000Y-76357000D03*
X73505000Y-79859250D03*
X46289000Y-83567000D03*
X35288500Y-97052500D03*
X93102500Y-89320000D03*
X81236000Y-79446000D03*
X41500000Y-78227529D03*
X41943000Y-93581000D03*
D41*
X50900000Y-89500000D03*
D40*
X73260000Y-91550000D03*
D41*
X55550000Y-86750000D03*
D40*
X67893500Y-88409500D03*
D41*
X51300000Y-83600000D03*
D40*
X40598000Y-83002500D03*
X94002500Y-96320000D03*
X51635000Y-96797328D03*
D41*
X39140000Y-90860000D03*
X55150000Y-89150000D03*
D40*
X93302500Y-77720000D03*
X50023000Y-80212000D03*
X39008000Y-83164000D03*
X35288500Y-95535500D03*
X42090000Y-95975000D03*
X49919000Y-81760500D03*
X46378000Y-80393500D03*
X36967500Y-79388500D03*
X68100000Y-80950000D03*
X53778000Y-81842500D03*
X67973500Y-83095500D03*
X38509000Y-93566000D03*
X30823500Y-95578000D03*
X63407000Y-78055000D03*
D41*
X32060000Y-78670000D03*
D40*
X40250000Y-96860000D03*
X40459000Y-84909500D03*
X73165000Y-93075000D03*
%TO.N,+5V*%
X80300000Y-90760000D03*
X65100000Y-78000000D03*
%TO.N,+3.3V*%
X41878000Y-88078500D03*
D41*
%TO.N,/Vref*%
X57905000Y-93418000D03*
X59245000Y-80883000D03*
X59175000Y-88468000D03*
X57975000Y-85833000D03*
%TO.N,+5VA*%
X61717000Y-85891750D03*
X61691000Y-93528500D03*
%TO.N,/SCL*%
X40336500Y-89925500D03*
%TO.N,/RESETB*%
X48400000Y-90200000D03*
X42300000Y-91500000D03*
%TO.N,/SDA*%
X41878000Y-89903500D03*
%TO.N,Net-(IC1-ADDR)*%
X53220439Y-90371059D03*
%TO.N,Net-(IC1-XI(MCLK))*%
X54300000Y-89450000D03*
X48057500Y-85067000D03*
D40*
%TO.N,Net-(F1-Pad1)*%
X36200000Y-87200000D03*
X35087500Y-83038000D03*
X36200000Y-91800000D03*
D41*
%TO.N,/SWDIO*%
X39000000Y-87100000D03*
X32060000Y-81170000D03*
%TO.N,/SWCLK*%
X33000000Y-87950000D03*
X36100000Y-88250000D03*
D40*
%TO.N,-5VA*%
X55100000Y-90900000D03*
X57958000Y-81101000D03*
X57889000Y-88501000D03*
%TD*%
D42*
%TO.N,Net-(PS1-OUT)*%
X70369500Y-78422000D02*
X71674000Y-78422000D01*
X71989000Y-78107000D02*
X73436500Y-78107000D01*
X71674000Y-78422000D02*
X71989000Y-78107000D01*
X73436500Y-78107000D02*
X73566500Y-78237000D01*
%TO.N,GND*%
X51090000Y-89500000D02*
X51140000Y-89450000D01*
D43*
X38724500Y-83447500D02*
X39008000Y-83164000D01*
D42*
X55090000Y-89090000D02*
X55090000Y-88500000D01*
D43*
X40598000Y-83002500D02*
X40598000Y-84770500D01*
X41500000Y-78227529D02*
X40432471Y-78227529D01*
D42*
X68100000Y-80950000D02*
X68441500Y-80950000D01*
D43*
X34855000Y-92675000D02*
X35029917Y-92675000D01*
D42*
X55300000Y-86500000D02*
X55550000Y-86750000D01*
D43*
X35665000Y-86275000D02*
X37021000Y-84919000D01*
D42*
X55150000Y-89150000D02*
X55090000Y-89090000D01*
X50900000Y-89500000D02*
X51090000Y-89500000D01*
D43*
X35783000Y-95041000D02*
X35288500Y-95535500D01*
X40436500Y-83164000D02*
X40598000Y-83002500D01*
D42*
X55090000Y-87000000D02*
X55300000Y-87000000D01*
D43*
X37066000Y-83447500D02*
X37066000Y-84874000D01*
X40432471Y-78227529D02*
X40420000Y-78240000D01*
D42*
X51640000Y-84550000D02*
X51640000Y-83940000D01*
D43*
X34855000Y-86275000D02*
X35665000Y-86275000D01*
D42*
X55090000Y-86500000D02*
X55300000Y-86500000D01*
D43*
X35029917Y-92675000D02*
X35783000Y-93428083D01*
X39008000Y-83164000D02*
X40436500Y-83164000D01*
X40598000Y-84770500D02*
X40459000Y-84909500D01*
X35288500Y-95535500D02*
X35288500Y-97052500D01*
D42*
X51640000Y-83940000D02*
X51300000Y-83600000D01*
X68441500Y-80950000D02*
X68469500Y-80922000D01*
D43*
X39140000Y-90860000D02*
X37687500Y-90860000D01*
D42*
X55300000Y-87000000D02*
X55550000Y-86750000D01*
D43*
X37066000Y-84874000D02*
X37021000Y-84919000D01*
X37066000Y-83447500D02*
X38724500Y-83447500D01*
X35783000Y-93428083D02*
X35783000Y-95041000D01*
D42*
%TO.N,Net-(U7A--)*%
X73965000Y-84521000D02*
X73965000Y-85615000D01*
X78346500Y-84995500D02*
X78373000Y-85022000D01*
X76754500Y-84995500D02*
X76884000Y-84995500D01*
X74750000Y-86400000D02*
X75350000Y-86400000D01*
X72260999Y-87200000D02*
X73965000Y-85495999D01*
X67170000Y-87200000D02*
X72260999Y-87200000D01*
X73965000Y-85615000D02*
X74750000Y-86400000D01*
X73965000Y-85495999D02*
X73965000Y-84521000D01*
X75350000Y-86400000D02*
X76754500Y-84995500D01*
X66402000Y-86432000D02*
X67170000Y-87200000D01*
X76884000Y-84995500D02*
X78346500Y-84995500D01*
D43*
%TO.N,+5V*%
X65100000Y-78000000D02*
X65527000Y-78000000D01*
X41548000Y-81127500D02*
X39294500Y-81127500D01*
X58297844Y-96797328D02*
X53385000Y-96797328D01*
X65200000Y-76250000D02*
X41460000Y-76250000D01*
X41460000Y-76250000D02*
X40420000Y-77290000D01*
X65527000Y-78000000D02*
X66659500Y-76867500D01*
X36903000Y-77703000D02*
X36967500Y-77638500D01*
X69419500Y-77831500D02*
X69419500Y-78422000D01*
X80300000Y-90760000D02*
X77067000Y-93993000D01*
X74900000Y-96300000D02*
X76267500Y-94932500D01*
X33512500Y-83038000D02*
X33512500Y-81378000D01*
X53372584Y-96784912D02*
X53385000Y-96797328D01*
X36967500Y-77638500D02*
X38587000Y-77638500D01*
X68306500Y-76867500D02*
X68381000Y-76793000D01*
X65200000Y-76250000D02*
X65817500Y-76867500D01*
X65817500Y-76867500D02*
X66659500Y-76867500D01*
X38635000Y-77590500D02*
X38935500Y-77290000D01*
X35511000Y-79095000D02*
X36903000Y-77703000D01*
X53372584Y-95154832D02*
X53372584Y-96784912D01*
X59433172Y-95662000D02*
X60071172Y-96300000D01*
X36600000Y-80650000D02*
X38244000Y-80650000D01*
X60071172Y-96300000D02*
X74900000Y-96300000D01*
X77067000Y-93993000D02*
X76267500Y-93993000D01*
X38935500Y-77290000D02*
X40420000Y-77290000D01*
X35511000Y-79561000D02*
X36600000Y-80650000D01*
X39294500Y-81127500D02*
X39008000Y-81414000D01*
X38587000Y-77638500D02*
X38635000Y-77590500D01*
X66659500Y-76867500D02*
X68306500Y-76867500D01*
X35511000Y-79379500D02*
X35511000Y-79561000D01*
X59433172Y-95662000D02*
X58297844Y-96797328D01*
X68455500Y-76867500D02*
X69419500Y-77831500D01*
X76267500Y-94932500D02*
X76267500Y-93993000D01*
X38244000Y-80650000D02*
X39008000Y-81414000D01*
X35511000Y-79379500D02*
X35511000Y-79095000D01*
X33512500Y-81378000D02*
X35511000Y-79379500D01*
%TO.N,+3.3V*%
X37687500Y-88260000D02*
X41696500Y-88260000D01*
X38771000Y-84919000D02*
X38771000Y-85371000D01*
X42498000Y-83002500D02*
X42498000Y-84620500D01*
X42209000Y-84909500D02*
X42209000Y-85691000D01*
X42498000Y-84620500D02*
X42209000Y-84909500D01*
X42498000Y-83002500D02*
X42498000Y-82626500D01*
X41696500Y-88260000D02*
X41878000Y-88078500D01*
X38771000Y-85371000D02*
X39850000Y-86450000D01*
X41450000Y-86450000D02*
X41878000Y-86878000D01*
X42209000Y-85691000D02*
X41450000Y-86450000D01*
X42498000Y-82626500D02*
X46414500Y-78710000D01*
X41878000Y-86878000D02*
X41878000Y-88078500D01*
X39850000Y-86450000D02*
X41450000Y-86450000D01*
D42*
%TO.N,Net-(IC1-DVDD)*%
X50157000Y-83567000D02*
X51140000Y-84550000D01*
X48039000Y-83567000D02*
X50157000Y-83567000D01*
%TO.N,Net-(IC1-AVCC_L)*%
X53640000Y-84550000D02*
X53640000Y-83960000D01*
X55528000Y-81842500D02*
X55528000Y-82072000D01*
X53640000Y-83960000D02*
X54140000Y-83460000D01*
X55528000Y-82072000D02*
X54140000Y-83460000D01*
X54140000Y-83460000D02*
X54140000Y-84550000D01*
D43*
X55439000Y-80325500D02*
X55439000Y-81753500D01*
X55344500Y-78750000D02*
X55344500Y-80231000D01*
X55344500Y-80231000D02*
X55439000Y-80325500D01*
X55439000Y-81753500D02*
X55528000Y-81842500D01*
%TO.N,Net-(IC1-VCCA)*%
X51618500Y-80057500D02*
X51773000Y-80212000D01*
X51773000Y-81656500D02*
X51669000Y-81760500D01*
D42*
X51669000Y-81760500D02*
X51669000Y-81949000D01*
X51669000Y-81949000D02*
X53140000Y-83420000D01*
X53140000Y-83420000D02*
X53140000Y-84550000D01*
D43*
X51618500Y-78714000D02*
X51618500Y-80057500D01*
X51773000Y-80212000D02*
X51773000Y-81656500D01*
D42*
%TO.N,Net-(IC1-DVCC)*%
X51792000Y-83000000D02*
X52640000Y-83848000D01*
D43*
X48128000Y-81821500D02*
X48039000Y-81910500D01*
D42*
X52640000Y-83848000D02*
X52640000Y-84550000D01*
D43*
X48128000Y-80393500D02*
X48128000Y-81821500D01*
D42*
X48039000Y-81919000D02*
X49120000Y-83000000D01*
X48039000Y-81910500D02*
X48039000Y-81919000D01*
D43*
X47989500Y-80255000D02*
X48128000Y-80393500D01*
D42*
X49120000Y-83000000D02*
X51792000Y-83000000D01*
D43*
X47989500Y-78710000D02*
X47989500Y-80255000D01*
D42*
%TO.N,Net-(C17-Pad2)*%
X64954000Y-80231500D02*
X66402000Y-81679500D01*
X64954000Y-79744000D02*
X64954000Y-80231500D01*
X62931000Y-79737000D02*
X63311000Y-79737000D01*
X61785000Y-80883000D02*
X62931000Y-79737000D01*
X63311000Y-79737000D02*
X64947000Y-79737000D01*
X64947000Y-79737000D02*
X64954000Y-79744000D01*
X66402000Y-81679500D02*
X66402000Y-84607000D01*
%TO.N,/DACLB*%
X60515000Y-82285000D02*
X60000000Y-82800000D01*
X57000000Y-82800000D02*
X55090000Y-84710000D01*
X55090000Y-84710000D02*
X55090000Y-85500000D01*
X63311000Y-81487000D02*
X64872000Y-81487000D01*
X60515000Y-82285000D02*
X62513000Y-82285000D01*
X60000000Y-82800000D02*
X57000000Y-82800000D01*
X60515000Y-80883000D02*
X60515000Y-82285000D01*
X62513000Y-82285000D02*
X63311000Y-81487000D01*
X64872000Y-81487000D02*
X64954000Y-81569000D01*
%TO.N,/DACL*%
X59245000Y-84145000D02*
X59245000Y-85833000D01*
X56900000Y-84200000D02*
X57400000Y-83700000D01*
X60005000Y-84145000D02*
X59245000Y-84145000D01*
X64867500Y-83168500D02*
X64877000Y-83178000D01*
X58800000Y-83700000D02*
X59245000Y-84145000D01*
X60981500Y-83168500D02*
X60005000Y-84145000D01*
X57400000Y-83700000D02*
X58800000Y-83700000D01*
X56900000Y-84892000D02*
X56900000Y-84200000D01*
X55792000Y-86000000D02*
X56900000Y-84892000D01*
X63311000Y-83168500D02*
X60981500Y-83168500D01*
X63311000Y-83168500D02*
X64867500Y-83168500D01*
X55090000Y-86000000D02*
X55792000Y-86000000D01*
%TO.N,Net-(C18-Pad2)*%
X63311000Y-84918500D02*
X64792500Y-84918500D01*
X65374000Y-85500000D02*
X67304500Y-85500000D01*
X60515000Y-84885000D02*
X61300000Y-84100000D01*
X64877000Y-85003000D02*
X65374000Y-85500000D01*
X62492500Y-84100000D02*
X63311000Y-84918500D01*
X60515000Y-85833000D02*
X60515000Y-84885000D01*
X67304500Y-85500000D02*
X67866000Y-86061500D01*
X64792500Y-84918500D02*
X64877000Y-85003000D01*
X61300000Y-84100000D02*
X62492500Y-84100000D01*
%TO.N,Net-(C20-Pad2)*%
X60445000Y-92455000D02*
X60925000Y-91975000D01*
X63420000Y-93324000D02*
X64901000Y-93324000D01*
X60445000Y-93418000D02*
X60445000Y-92455000D01*
X65079000Y-93271000D02*
X65204500Y-93145500D01*
X60925000Y-91975000D02*
X62325000Y-91975000D01*
X64901000Y-93324000D02*
X64954000Y-93271000D01*
X63420000Y-93070000D02*
X63420000Y-93324000D01*
X62325000Y-91975000D02*
X63420000Y-93070000D01*
X64954000Y-93271000D02*
X65079000Y-93271000D01*
X65204500Y-93145500D02*
X67960500Y-93145500D01*
D43*
%TO.N,-5V*%
X76836000Y-79446000D02*
X75668250Y-79446000D01*
X75668250Y-79446000D02*
X73505000Y-81609250D01*
X71425000Y-83675000D02*
X71425000Y-84521000D01*
X73505000Y-81609250D02*
X71425000Y-83689250D01*
X71425000Y-83689250D02*
X71425000Y-84521000D01*
X73566500Y-76412000D02*
X73802000Y-76412000D01*
X73802000Y-76412000D02*
X76836000Y-79446000D01*
D42*
%TO.N,Net-(PS1-CFLY+)*%
X71816000Y-80922000D02*
X71973000Y-81079000D01*
X70926500Y-81479000D02*
X70369500Y-80922000D01*
X71961500Y-81479000D02*
X70926500Y-81479000D01*
%TO.N,Net-(PS1-CFLY-)*%
X68976500Y-79729000D02*
X68469500Y-79222000D01*
X71961500Y-79729000D02*
X68976500Y-79729000D01*
X68469500Y-79222000D02*
X68469500Y-78422000D01*
%TO.N,/DACRB*%
X64826500Y-89939000D02*
X64932000Y-89833500D01*
X60580001Y-90300000D02*
X60941001Y-89939000D01*
X55090000Y-87500000D02*
X56500000Y-87500000D01*
X56850000Y-89750000D02*
X57400000Y-90300000D01*
X56850000Y-87850000D02*
X56850000Y-89750000D01*
X63377000Y-89939000D02*
X64826500Y-89939000D01*
X57400000Y-90300000D02*
X60580001Y-90300000D01*
X60445000Y-89442999D02*
X60941001Y-89939000D01*
X60445000Y-88468000D02*
X60445000Y-89442999D01*
X60941001Y-89939000D02*
X63377000Y-89939000D01*
X56500000Y-87500000D02*
X56850000Y-87850000D01*
%TO.N,Net-(C19-Pad2)*%
X65683500Y-88083500D02*
X66550000Y-88950000D01*
X66550000Y-88950000D02*
X66550000Y-91000000D01*
X61715000Y-88468000D02*
X63023000Y-88468000D01*
X64901500Y-88114000D02*
X64932000Y-88083500D01*
X63377000Y-88114000D02*
X64901500Y-88114000D01*
X66550000Y-91000000D02*
X67125500Y-91575500D01*
X64932000Y-88083500D02*
X65683500Y-88083500D01*
X63023000Y-88468000D02*
X63377000Y-88114000D01*
X67125500Y-91575500D02*
X68817500Y-91575500D01*
%TO.N,/DACR*%
X59175000Y-92443001D02*
X60044001Y-91574000D01*
X60044001Y-91574000D02*
X60468001Y-91150000D01*
X57074000Y-91574000D02*
X60044001Y-91574000D01*
X64826000Y-91574000D02*
X64954000Y-91446000D01*
X63420000Y-91574000D02*
X64826000Y-91574000D01*
X55090000Y-88000000D02*
X55900000Y-88000000D01*
X56200000Y-88300000D02*
X56200000Y-90700000D01*
X60468001Y-91150000D02*
X62996000Y-91150000D01*
X55900000Y-88000000D02*
X56200000Y-88300000D01*
X56200000Y-90700000D02*
X57074000Y-91574000D01*
X62996000Y-91150000D02*
X63420000Y-91574000D01*
X59175000Y-93418000D02*
X59175000Y-92443001D01*
%TO.N,Net-(PS1-EN)*%
X67684500Y-82200000D02*
X68941500Y-82200000D01*
X69419500Y-81722000D02*
X69419500Y-80922000D01*
X66659500Y-81175000D02*
X67684500Y-82200000D01*
X66659500Y-78692500D02*
X66659500Y-81175000D01*
X68941500Y-82200000D02*
X69419500Y-81722000D01*
%TO.N,/AOUT.L*%
X80214500Y-83272000D02*
X80235500Y-83251000D01*
X75235000Y-84521000D02*
X76585500Y-83170500D01*
X78271500Y-83170500D02*
X78373000Y-83272000D01*
X80235500Y-86477500D02*
X81150000Y-85563000D01*
X81150000Y-84165500D02*
X80235500Y-83251000D01*
X76884000Y-83170500D02*
X78271500Y-83170500D01*
X78373000Y-83272000D02*
X80214500Y-83272000D01*
X76585500Y-83170500D02*
X76884000Y-83170500D01*
X81150000Y-85563000D02*
X81150000Y-84165500D01*
%TO.N,Net-(U7A-+)*%
X69719000Y-84559500D02*
X69719000Y-86033500D01*
X69798500Y-84480000D02*
X69719000Y-84559500D01*
X72695000Y-85495999D02*
X72695000Y-84521000D01*
X69691000Y-86061500D02*
X72129499Y-86061500D01*
X72129499Y-86061500D02*
X72695000Y-85495999D01*
X69798500Y-83095500D02*
X69798500Y-84480000D01*
X69719000Y-86033500D02*
X69691000Y-86061500D01*
%TO.N,/AOUT.R*%
X78365000Y-88410500D02*
X79300000Y-87475500D01*
X79300000Y-85794000D02*
X80235500Y-84858500D01*
X74894032Y-88195000D02*
X76579000Y-88195000D01*
X78365000Y-88410500D02*
X79820500Y-88410500D01*
X79300000Y-87475500D02*
X79300000Y-85794000D01*
X73965000Y-89471000D02*
X73965000Y-89124032D01*
X78319500Y-88456000D02*
X78365000Y-88410500D01*
X76840000Y-88456000D02*
X78319500Y-88456000D01*
X73965000Y-89124032D02*
X74894032Y-88195000D01*
X79820500Y-88410500D02*
X80236500Y-87994500D01*
X76579000Y-88195000D02*
X76840000Y-88456000D01*
%TO.N,Net-(U7B--)*%
X76246000Y-87300000D02*
X76840000Y-86706000D01*
X78244500Y-86706000D02*
X78365000Y-86585500D01*
X70642500Y-91575500D02*
X71474500Y-91575500D01*
X71474500Y-91575500D02*
X72695000Y-90355000D01*
X73891001Y-87300000D02*
X76246000Y-87300000D01*
X72695000Y-89471000D02*
X72695000Y-88496001D01*
X72695000Y-88496001D02*
X73891001Y-87300000D01*
X72695000Y-90355000D02*
X72695000Y-89471000D01*
X76840000Y-86706000D02*
X78244500Y-86706000D01*
%TO.N,Net-(U7B-+)*%
X69718500Y-88409500D02*
X69718500Y-90015000D01*
X69785500Y-93145500D02*
X69785500Y-90082000D01*
X70852500Y-90043500D02*
X71425000Y-89471000D01*
X69747000Y-90043500D02*
X70852500Y-90043500D01*
X69718500Y-90015000D02*
X69747000Y-90043500D01*
X69785500Y-90082000D02*
X69747000Y-90043500D01*
%TO.N,/Vref*%
X60159000Y-78852500D02*
X60110500Y-78804000D01*
D43*
X60110500Y-78804000D02*
X60908000Y-78804000D01*
X60110500Y-77321000D02*
X60110500Y-78804000D01*
X57975000Y-85833000D02*
X57975000Y-86525000D01*
X60908000Y-78804000D02*
X61657000Y-78055000D01*
X59175000Y-87725000D02*
X59175000Y-88468000D01*
X57975000Y-86525000D02*
X59175000Y-87725000D01*
X59245000Y-79669500D02*
X59245000Y-80883000D01*
X60110500Y-78804000D02*
X59245000Y-79669500D01*
%TO.N,+5VA*%
X73085000Y-94905000D02*
X73165000Y-94825000D01*
X71626000Y-94905000D02*
X73085000Y-94905000D01*
X75010000Y-91550000D02*
X75010000Y-89696000D01*
X74692500Y-93993000D02*
X74692500Y-91867500D01*
X63202000Y-94905000D02*
X71626000Y-94905000D01*
X75010000Y-89696000D02*
X75235000Y-89471000D01*
X73165000Y-94825000D02*
X73860500Y-94825000D01*
X61715000Y-93418000D02*
X63202000Y-94905000D01*
X74692500Y-91867500D02*
X75010000Y-91550000D01*
X73860500Y-94825000D02*
X74692500Y-93993000D01*
D42*
%TO.N,/SCL*%
X45509500Y-91880500D02*
X45509500Y-91958500D01*
X43412500Y-90860000D02*
X41271000Y-90860000D01*
X45131399Y-91758500D02*
X45631500Y-91758500D01*
X44232899Y-90860000D02*
X45131399Y-91758500D01*
X41271000Y-90860000D02*
X40336500Y-89925500D01*
X43412500Y-90860000D02*
X44232899Y-90860000D01*
X45631500Y-91758500D02*
X45509500Y-91880500D01*
%TO.N,Net-(IC1-DATA_CLK)*%
X48057500Y-88381000D02*
X48438500Y-88000000D01*
X48438500Y-88000000D02*
X50190000Y-88000000D01*
%TO.N,/RESETB*%
X48490000Y-90200000D02*
X48400000Y-90200000D01*
X43412500Y-91510000D02*
X42310000Y-91510000D01*
X42310000Y-91510000D02*
X42300000Y-91500000D01*
X50190000Y-88500000D02*
X48490000Y-90200000D01*
%TO.N,/LRCK*%
X44900500Y-89560000D02*
X45232500Y-89892000D01*
X43412500Y-89560000D02*
X44900500Y-89560000D01*
%TO.N,/SCK*%
X43412500Y-86960000D02*
X44339500Y-86960000D01*
X44339500Y-86960000D02*
X46232500Y-85067000D01*
%TO.N,Net-(IC1-DATA2)*%
X48057500Y-86602000D02*
X48455500Y-87000000D01*
X48455500Y-87000000D02*
X50190000Y-87000000D01*
%TO.N,/DIN*%
X45196000Y-87638500D02*
X46232500Y-86602000D01*
X43441000Y-87638500D02*
X45196000Y-87638500D01*
X43412500Y-87610000D02*
X43441000Y-87638500D01*
%TO.N,/SDA*%
X44739999Y-90800000D02*
X46000000Y-90800000D01*
X51548000Y-90602000D02*
X52257100Y-90602000D01*
X46700000Y-92800000D02*
X49350000Y-92800000D01*
X42184500Y-90210000D02*
X41878000Y-89903500D01*
X52640000Y-90219100D02*
X52640000Y-89450000D01*
X46000000Y-90800000D02*
X46546000Y-91346000D01*
X43412500Y-90210000D02*
X42184500Y-90210000D01*
X46546000Y-92646000D02*
X46700000Y-92800000D01*
X52257100Y-90602000D02*
X52640000Y-90219100D01*
X43412500Y-90210000D02*
X44149999Y-90210000D01*
X49350000Y-92800000D02*
X51548000Y-90602000D01*
X46546000Y-91346000D02*
X46546000Y-92646000D01*
X44149999Y-90210000D02*
X44739999Y-90800000D01*
%TO.N,/BCK*%
X43412500Y-88910000D02*
X45703500Y-88910000D01*
X45703500Y-88910000D02*
X46232500Y-88381000D01*
D43*
%TO.N,+3.3VA*%
X48817000Y-77487500D02*
X50043500Y-78714000D01*
X57618500Y-77321000D02*
X57452000Y-77487500D01*
X58285500Y-77321000D02*
X57618500Y-77321000D01*
X52507000Y-77487500D02*
X57452000Y-77487500D01*
X48817000Y-77487500D02*
X52507000Y-77487500D01*
X44170000Y-77290000D02*
X44367500Y-77487500D01*
X42695000Y-77290000D02*
X44170000Y-77290000D01*
X44367500Y-77487500D02*
X48817000Y-77487500D01*
X52507000Y-77487500D02*
X53769500Y-78750000D01*
D42*
%TO.N,Net-(PJ1-Pad2)*%
X82060500Y-85130000D02*
X83730500Y-86800000D01*
X82060500Y-84858500D02*
X82060500Y-85130000D01*
X83730500Y-86800000D02*
X88522500Y-86800000D01*
X88522500Y-86800000D02*
X90602500Y-84720000D01*
%TO.N,Net-(PJ1-Pad3)*%
X82060500Y-83251000D02*
X82060500Y-81962000D01*
X82060500Y-81962000D02*
X86302500Y-77720000D01*
%TO.N,Net-(IC1-ADDR)*%
X53220439Y-90371059D02*
X53140000Y-90290620D01*
X53140000Y-90290620D02*
X53140000Y-89450000D01*
%TO.N,Net-(IC1-XI(MCLK))*%
X54300000Y-89450000D02*
X54140000Y-89450000D01*
%TO.N,Net-(IC1-DATA1)*%
X47057500Y-87892500D02*
X47450000Y-87500000D01*
X47450000Y-87500000D02*
X50190000Y-87500000D01*
X47057500Y-89892000D02*
X47057500Y-87892500D01*
%TO.N,Net-(PJ2-Pad2)*%
X88547251Y-96320000D02*
X90402500Y-96320000D01*
X82061500Y-89834249D02*
X88547251Y-96320000D01*
X82061500Y-87994500D02*
X82061500Y-89834249D01*
%TO.N,Net-(PJ2-Pad3)*%
X84903000Y-89320000D02*
X86102500Y-89320000D01*
X82060500Y-86477500D02*
X84903000Y-89320000D01*
%TO.N,Net-(U5-EN)*%
X40194500Y-79415500D02*
X40420000Y-79190000D01*
X38635000Y-79415500D02*
X40194500Y-79415500D01*
%TO.N,/OSC_OUT*%
X37410000Y-96860000D02*
X38050000Y-96860000D01*
X36759000Y-93566000D02*
X36759000Y-96209000D01*
X36759000Y-93566000D02*
X36759000Y-93241000D01*
X36759000Y-96209000D02*
X37410000Y-96860000D01*
X36759000Y-93241000D02*
X37687500Y-92312500D01*
X37687500Y-92312500D02*
X37687500Y-92160000D01*
%TO.N,/OSC_IN*%
X40193000Y-93581000D02*
X40193000Y-95103000D01*
X39110000Y-91510000D02*
X40193000Y-92593000D01*
X40193000Y-92593000D02*
X40193000Y-93581000D01*
X40193000Y-95103000D02*
X40250000Y-95160000D01*
X37687500Y-91510000D02*
X39110000Y-91510000D01*
%TO.N,/NRST*%
X43412500Y-93238000D02*
X43631000Y-93456500D01*
X44925000Y-96025000D02*
X46490000Y-96025000D01*
X43412500Y-92160000D02*
X43412500Y-93238000D01*
X46490000Y-96025000D02*
X46540000Y-95975000D01*
X43631000Y-93456500D02*
X43631000Y-94731000D01*
X43631000Y-94731000D02*
X44925000Y-96025000D01*
%TO.N,Net-(D3-A)*%
X36179000Y-81872500D02*
X35511000Y-81204500D01*
X37066000Y-81872500D02*
X36179000Y-81872500D01*
D43*
%TO.N,Net-(F1-Pad1)*%
X36125000Y-91875000D02*
X36200000Y-91800000D01*
X34855000Y-91875000D02*
X36125000Y-91875000D01*
X34855000Y-87075000D02*
X36075000Y-87075000D01*
X36075000Y-87075000D02*
X36200000Y-87200000D01*
D42*
%TO.N,/SWDIO*%
X38490000Y-87610000D02*
X37687500Y-87610000D01*
X39000000Y-87100000D02*
X38490000Y-87610000D01*
%TO.N,/SWCLK*%
X36200000Y-88350000D02*
X36200000Y-88400000D01*
X31380000Y-79920000D02*
X30650000Y-80650000D01*
X32250000Y-83550000D02*
X32250000Y-87200000D01*
X32060000Y-79920000D02*
X31380000Y-79920000D01*
X30650000Y-81950000D02*
X32250000Y-83550000D01*
X32250000Y-87200000D02*
X33000000Y-87950000D01*
X36100000Y-88250000D02*
X36200000Y-88350000D01*
X36710000Y-88910000D02*
X37687500Y-88910000D01*
X36200000Y-88400000D02*
X36710000Y-88910000D01*
X30650000Y-80650000D02*
X30650000Y-81950000D01*
%TO.N,Net-(J3-SHIELD)*%
X30055000Y-94521500D02*
X28998500Y-95578000D01*
X30055000Y-93795000D02*
X30055000Y-94521500D01*
X28998500Y-95578000D02*
X28998500Y-97065500D01*
X28998500Y-97065500D02*
X28947000Y-97117000D01*
%TO.N,Net-(J3-CC1)*%
X31900000Y-90050000D02*
X31900000Y-95489000D01*
X33725000Y-88225000D02*
X31900000Y-90050000D01*
X31900000Y-95489000D02*
X33463500Y-97052500D01*
X34855000Y-88225000D02*
X33725000Y-88225000D01*
%TO.N,Net-(J3-CC2)*%
X32450000Y-94522000D02*
X32450000Y-91850000D01*
X33075000Y-91225000D02*
X34855000Y-91225000D01*
X32450000Y-91850000D02*
X33075000Y-91225000D01*
X33463500Y-95535500D02*
X32450000Y-94522000D01*
D44*
%TO.N,/D+*%
X33970500Y-89310500D02*
X33970500Y-90139500D01*
X34855000Y-90225000D02*
X37672500Y-90225000D01*
X34056000Y-90225000D02*
X34855000Y-90225000D01*
X34056000Y-89225000D02*
X33970500Y-89310500D01*
X34855000Y-89225000D02*
X34056000Y-89225000D01*
X33970500Y-90139500D02*
X34056000Y-90225000D01*
X37672500Y-90225000D02*
X37687500Y-90210000D01*
%TO.N,/D-*%
X36075000Y-89725000D02*
X36240000Y-89560000D01*
X34855000Y-88725000D02*
X35654000Y-88725000D01*
X35739500Y-88810500D02*
X35739500Y-89639500D01*
X35654000Y-89725000D02*
X34855000Y-89725000D01*
X36240000Y-89560000D02*
X37687500Y-89560000D01*
X35739500Y-89639500D02*
X35654000Y-89725000D01*
X35654000Y-88725000D02*
X35739500Y-88810500D01*
X34855000Y-89725000D02*
X36075000Y-89725000D01*
D43*
%TO.N,-5VA*%
X52317500Y-95259916D02*
X52422584Y-95154832D01*
X50755500Y-95259916D02*
X52317500Y-95259916D01*
X52122416Y-91153000D02*
X50755500Y-92519916D01*
X54847000Y-91153000D02*
X52122416Y-91153000D01*
X50755500Y-92519916D02*
X50755500Y-95259916D01*
X55100000Y-90900000D02*
X54847000Y-91153000D01*
D42*
%TO.N,Net-(PS2-CFLY-)*%
X54322584Y-95154832D02*
X55907000Y-95154832D01*
X55907000Y-95154832D02*
X55918000Y-95165832D01*
%TO.N,Net-(PS2-CFLY+)*%
X52422584Y-93322584D02*
X52422584Y-92654832D01*
X53000000Y-93900000D02*
X52422584Y-93322584D01*
X55918000Y-93415832D02*
X55433832Y-93900000D01*
X55433832Y-93900000D02*
X53000000Y-93900000D01*
%TO.N,Net-(PS2-EN)*%
X53725416Y-91750000D02*
X56150000Y-91750000D01*
X53372584Y-92102832D02*
X53725416Y-91750000D01*
X53372584Y-92654832D02*
X53372584Y-92102832D01*
X56950000Y-95003828D02*
X57608172Y-95662000D01*
X56950000Y-92550000D02*
X56950000Y-95003828D01*
X56150000Y-91750000D02*
X56950000Y-92550000D01*
%TO.N,Net-(IC1-SCL)*%
X52140000Y-90152000D02*
X52091000Y-90201000D01*
X49291500Y-91758500D02*
X47456500Y-91758500D01*
X52140000Y-89450000D02*
X52140000Y-90152000D01*
X50849000Y-90201000D02*
X49291500Y-91758500D01*
X52091000Y-90201000D02*
X50849000Y-90201000D01*
%TD*%
M02*
